%TF.GenerationSoftware,KiCad,Pcbnew,(6.0.0-0)*%
%TF.CreationDate,2022-03-24T13:46:47-04:00*%
%TF.ProjectId,Rotary,526f7461-7279-42e6-9b69-6361645f7063,rev?*%
%TF.SameCoordinates,Original*%
%TF.FileFunction,Copper,L3,Inr*%
%TF.FilePolarity,Positive*%
%FSLAX46Y46*%
G04 Gerber Fmt 4.6, Leading zero omitted, Abs format (unit mm)*
G04 Created by KiCad (PCBNEW (6.0.0-0)) date 2022-03-24 13:46:47*
%MOMM*%
%LPD*%
G01*
G04 APERTURE LIST*
%TA.AperFunction,ComponentPad*%
%ADD10R,1.700000X1.700000*%
%TD*%
%TA.AperFunction,ComponentPad*%
%ADD11O,1.700000X1.700000*%
%TD*%
%TA.AperFunction,ComponentPad*%
%ADD12R,1.836000X1.836000*%
%TD*%
%TA.AperFunction,ComponentPad*%
%ADD13C,1.836000*%
%TD*%
%TA.AperFunction,Conductor*%
%ADD14C,0.250000*%
%TD*%
G04 APERTURE END LIST*
D10*
%TO.N,GND*%
%TO.C,J3*%
X120410000Y-103340000D03*
D11*
%TO.N,RTR_LIMIT*%
X117870000Y-103340000D03*
%TD*%
D12*
%TO.N,RTR_ENB*%
%TO.C,J2*%
X174853250Y-103503500D03*
D13*
%TO.N,LKIT_C*%
X174853250Y-100963500D03*
%TO.N,RTR_ENA*%
X177393250Y-103503500D03*
%TO.N,LKIT_B*%
X177393250Y-100963500D03*
%TO.N,RTR_LIMIT*%
X179933250Y-103503500D03*
%TO.N,LKIT_A*%
X179933250Y-100963500D03*
%TO.N,5V*%
X182473250Y-103503500D03*
%TO.N,GND*%
X182473250Y-100963500D03*
%TO.N,RMOT2*%
X185013250Y-103503500D03*
%TO.N,RMOT1*%
X185013250Y-100963500D03*
%TD*%
D10*
%TO.N,RTR_ENB*%
%TO.C,J1*%
X108320000Y-99520000D03*
D11*
%TO.N,GND*%
X108320000Y-96980000D03*
%TO.N,RTR_ENA*%
X110860000Y-99520000D03*
%TO.N,GND*%
X110860000Y-96980000D03*
%TO.N,5V*%
X113400000Y-99520000D03*
X113400000Y-96980000D03*
%TO.N,GND*%
X115940000Y-99520000D03*
%TO.N,LKIT_A*%
X115940000Y-96980000D03*
%TO.N,RMOT1*%
X118480000Y-99520000D03*
%TO.N,LKIT_B*%
X118480000Y-96980000D03*
%TO.N,RMOT2*%
X121020000Y-99520000D03*
%TO.N,LKIT_C*%
X121020000Y-96980000D03*
%TD*%
D14*
%TO.N,RTR_ENB*%
X163420000Y-125240000D02*
X131590000Y-125240000D01*
X174853250Y-113806750D02*
X163420000Y-125240000D01*
X174853250Y-103503500D02*
X174853250Y-113806750D01*
X131590000Y-125240000D02*
X108320000Y-101970000D01*
X108320000Y-101970000D02*
X108320000Y-99520000D01*
%TO.N,RTR_ENA*%
X176095761Y-102206011D02*
X173665717Y-102206011D01*
X163200000Y-124290000D02*
X131600000Y-124290000D01*
X177393250Y-103503500D02*
X176095761Y-102206011D01*
X110860000Y-103550000D02*
X110860000Y-99520000D01*
X173130000Y-102741728D02*
X173130000Y-114360000D01*
X173665717Y-102206011D02*
X173130000Y-102741728D01*
X173130000Y-114360000D02*
X163200000Y-124290000D01*
X131600000Y-124290000D02*
X110860000Y-103550000D01*
%TO.N,LKIT_A*%
X179933250Y-94973250D02*
X158230960Y-73270960D01*
X179933250Y-100963500D02*
X179933250Y-94973250D01*
X158230960Y-73270960D02*
X135269040Y-73270960D01*
X135269040Y-73270960D02*
X115940000Y-92600000D01*
X115940000Y-92600000D02*
X115940000Y-96980000D01*
%TO.N,LKIT_B*%
X118480000Y-91020000D02*
X118480000Y-96980000D01*
X175760000Y-99330250D02*
X175760000Y-91520000D01*
X177393250Y-100963500D02*
X175760000Y-99330250D01*
X135779520Y-73720480D02*
X118480000Y-91020000D01*
X157960480Y-73720480D02*
X135779520Y-73720480D01*
X175760000Y-91520000D02*
X157960480Y-73720480D01*
%TO.N,LKIT_C*%
X136270000Y-74170000D02*
X121020000Y-89420000D01*
X157600000Y-74170000D02*
X136270000Y-74170000D01*
X174853250Y-91423250D02*
X157600000Y-74170000D01*
X174853250Y-100963500D02*
X174853250Y-91423250D01*
X121020000Y-89420000D02*
X121020000Y-96980000D01*
%TD*%
M02*
