%TF.GenerationSoftware,KiCad,Pcbnew,(6.0.0-0)*%
%TF.CreationDate,2022-03-24T13:46:47-04:00*%
%TF.ProjectId,Rotary,526f7461-7279-42e6-9b69-6361645f7063,rev?*%
%TF.SameCoordinates,Original*%
%TF.FileFunction,Copper,L1,Top*%
%TF.FilePolarity,Positive*%
%FSLAX46Y46*%
G04 Gerber Fmt 4.6, Leading zero omitted, Abs format (unit mm)*
G04 Created by KiCad (PCBNEW (6.0.0-0)) date 2022-03-24 13:46:47*
%MOMM*%
%LPD*%
G01*
G04 APERTURE LIST*
%TA.AperFunction,ComponentPad*%
%ADD10R,1.700000X1.700000*%
%TD*%
%TA.AperFunction,ComponentPad*%
%ADD11O,1.700000X1.700000*%
%TD*%
%TA.AperFunction,ComponentPad*%
%ADD12R,1.836000X1.836000*%
%TD*%
%TA.AperFunction,ComponentPad*%
%ADD13C,1.836000*%
%TD*%
G04 APERTURE END LIST*
D10*
%TO.P,J3,1,Pin_1*%
%TO.N,GND*%
X120410000Y-103340000D03*
D11*
%TO.P,J3,2,Pin_2*%
%TO.N,RTR_LIMIT*%
X117870000Y-103340000D03*
%TD*%
D12*
%TO.P,J2,1,Pin_1*%
%TO.N,RTR_ENB*%
X174853250Y-103503500D03*
D13*
%TO.P,J2,2,Pin_2*%
%TO.N,LKIT_C*%
X174853250Y-100963500D03*
%TO.P,J2,3,Pin_3*%
%TO.N,RTR_ENA*%
X177393250Y-103503500D03*
%TO.P,J2,4,Pin_4*%
%TO.N,LKIT_B*%
X177393250Y-100963500D03*
%TO.P,J2,5,Pin_5*%
%TO.N,RTR_LIMIT*%
X179933250Y-103503500D03*
%TO.P,J2,6,Pin_6*%
%TO.N,LKIT_A*%
X179933250Y-100963500D03*
%TO.P,J2,7,Pin_7*%
%TO.N,5V*%
X182473250Y-103503500D03*
%TO.P,J2,8,Pin_8*%
%TO.N,GND*%
X182473250Y-100963500D03*
%TO.P,J2,9,Pin_9*%
%TO.N,RMOT2*%
X185013250Y-103503500D03*
%TO.P,J2,10,Pin_10*%
%TO.N,RMOT1*%
X185013250Y-100963500D03*
%TD*%
D10*
%TO.P,J1,1,Pin_1*%
%TO.N,RTR_ENB*%
X108320000Y-99520000D03*
D11*
%TO.P,J1,2,Pin_2*%
%TO.N,GND*%
X108320000Y-96980000D03*
%TO.P,J1,3,Pin_3*%
%TO.N,RTR_ENA*%
X110860000Y-99520000D03*
%TO.P,J1,4,Pin_4*%
%TO.N,GND*%
X110860000Y-96980000D03*
%TO.P,J1,5,Pin_5*%
%TO.N,5V*%
X113400000Y-99520000D03*
%TO.P,J1,6,Pin_6*%
X113400000Y-96980000D03*
%TO.P,J1,7,Pin_7*%
%TO.N,GND*%
X115940000Y-99520000D03*
%TO.P,J1,8,Pin_8*%
%TO.N,LKIT_A*%
X115940000Y-96980000D03*
%TO.P,J1,9,Pin_9*%
%TO.N,RMOT1*%
X118480000Y-99520000D03*
%TO.P,J1,10,Pin_10*%
%TO.N,LKIT_B*%
X118480000Y-96980000D03*
%TO.P,J1,11,Pin_11*%
%TO.N,RMOT2*%
X121020000Y-99520000D03*
%TO.P,J1,12,Pin_12*%
%TO.N,LKIT_C*%
X121020000Y-96980000D03*
%TD*%
%TA.AperFunction,Conductor*%
%TO.N,5V*%
G36*
X146926719Y-64363028D02*
G01*
X147741021Y-64376785D01*
X147745260Y-64376929D01*
X148006563Y-64390182D01*
X148857858Y-64433360D01*
X148862104Y-64433647D01*
X149522691Y-64489574D01*
X149972216Y-64527632D01*
X149976404Y-64528058D01*
X151082666Y-64659483D01*
X151086876Y-64660055D01*
X152188114Y-64828778D01*
X152192272Y-64829488D01*
X153287160Y-65035309D01*
X153291289Y-65036158D01*
X153828408Y-65156042D01*
X154378587Y-65278842D01*
X154382725Y-65279839D01*
X155100918Y-65465815D01*
X155461224Y-65559116D01*
X155465305Y-65560247D01*
X155807310Y-65661252D01*
X156533711Y-65875782D01*
X156537772Y-65877056D01*
X157594934Y-66228508D01*
X157598950Y-66229919D01*
X158643619Y-66616872D01*
X158647586Y-66618418D01*
X159344385Y-66903638D01*
X159564959Y-66993925D01*
X159678608Y-67040445D01*
X159682513Y-67042121D01*
X159745482Y-67070416D01*
X160698670Y-67498724D01*
X160702521Y-67500533D01*
X161702712Y-67991217D01*
X161706457Y-67993134D01*
X162689512Y-68517328D01*
X162693192Y-68519370D01*
X163657953Y-69076456D01*
X163661603Y-69078646D01*
X164607020Y-69668016D01*
X164610593Y-69670329D01*
X165535505Y-70291258D01*
X165538999Y-70293690D01*
X166288973Y-70834802D01*
X166442433Y-70945525D01*
X166445842Y-70948073D01*
X167326752Y-71630058D01*
X167330074Y-71632721D01*
X168153265Y-72315714D01*
X168168615Y-72330846D01*
X168180935Y-72345271D01*
X168198450Y-72356732D01*
X168211990Y-72365593D01*
X168223480Y-72374079D01*
X172605508Y-76011989D01*
X189642481Y-90155890D01*
X189696483Y-90200722D01*
X189736120Y-90259625D01*
X189742000Y-90297668D01*
X189742000Y-104702332D01*
X189721998Y-104770453D01*
X189696484Y-104799277D01*
X177763368Y-114706015D01*
X168229420Y-122620991D01*
X168215337Y-122631129D01*
X168190449Y-122646560D01*
X168172505Y-122666559D01*
X168159177Y-122679381D01*
X167330074Y-123367279D01*
X167326752Y-123369942D01*
X166445842Y-124051927D01*
X166442436Y-124054473D01*
X166266344Y-124181525D01*
X165538999Y-124706310D01*
X165535505Y-124708742D01*
X164610593Y-125329671D01*
X164607020Y-125331984D01*
X163661603Y-125921354D01*
X163657959Y-125923541D01*
X162693192Y-126480630D01*
X162689512Y-126482672D01*
X161706457Y-127006866D01*
X161702712Y-127008783D01*
X160957777Y-127374241D01*
X160702523Y-127499466D01*
X160698670Y-127501276D01*
X159682519Y-127957876D01*
X159678608Y-127959555D01*
X158647586Y-128381582D01*
X158643619Y-128383128D01*
X157598950Y-128770081D01*
X157594934Y-128771492D01*
X156537772Y-129122944D01*
X156533711Y-129124218D01*
X155824853Y-129333567D01*
X155465305Y-129439753D01*
X155461224Y-129440884D01*
X155100918Y-129534185D01*
X154382725Y-129720161D01*
X154378587Y-129721158D01*
X153828408Y-129843958D01*
X153291289Y-129963842D01*
X153287160Y-129964691D01*
X152192272Y-130170512D01*
X152188114Y-130171222D01*
X151086880Y-130339945D01*
X151082666Y-130340517D01*
X149976404Y-130471942D01*
X149972216Y-130472368D01*
X149522691Y-130510426D01*
X148862104Y-130566353D01*
X148857858Y-130566640D01*
X148006563Y-130609818D01*
X147745260Y-130623071D01*
X147741021Y-130623215D01*
X146926719Y-130636972D01*
X146627128Y-130642033D01*
X146622872Y-130642033D01*
X146323281Y-130636972D01*
X145508979Y-130623215D01*
X145504740Y-130623071D01*
X145243437Y-130609818D01*
X144392142Y-130566640D01*
X144387896Y-130566353D01*
X143727309Y-130510426D01*
X143277784Y-130472368D01*
X143273596Y-130471942D01*
X142167334Y-130340517D01*
X142163120Y-130339945D01*
X141061886Y-130171222D01*
X141057728Y-130170512D01*
X139962840Y-129964691D01*
X139958711Y-129963842D01*
X139421592Y-129843958D01*
X138871413Y-129721158D01*
X138867275Y-129720161D01*
X138149082Y-129534185D01*
X137788776Y-129440884D01*
X137784695Y-129439753D01*
X137425147Y-129333567D01*
X136716289Y-129124218D01*
X136712228Y-129122944D01*
X135655066Y-128771492D01*
X135651050Y-128770081D01*
X134606381Y-128383128D01*
X134602414Y-128381582D01*
X133571392Y-127959555D01*
X133567481Y-127957876D01*
X132551330Y-127501276D01*
X132547477Y-127499466D01*
X132292223Y-127374241D01*
X131547288Y-127008783D01*
X131543543Y-127006866D01*
X130560488Y-126482672D01*
X130556808Y-126480630D01*
X129592041Y-125923541D01*
X129588397Y-125921354D01*
X128642980Y-125331984D01*
X128639407Y-125329671D01*
X127714495Y-124708742D01*
X127711001Y-124706310D01*
X126983656Y-124181525D01*
X126807564Y-124054473D01*
X126804158Y-124051927D01*
X125923248Y-123369942D01*
X125919926Y-123367279D01*
X125096735Y-122684286D01*
X125081385Y-122669154D01*
X125069065Y-122654729D01*
X125038010Y-122634407D01*
X125026520Y-122625921D01*
X118223190Y-116977874D01*
X125012190Y-116977874D01*
X125028735Y-117264820D01*
X125029560Y-117269025D01*
X125029561Y-117269033D01*
X125050920Y-117377897D01*
X125084070Y-117546865D01*
X125085457Y-117550916D01*
X125161206Y-117772161D01*
X125177171Y-117818792D01*
X125306316Y-118075567D01*
X125308742Y-118079096D01*
X125308745Y-118079102D01*
X125347587Y-118135617D01*
X125469114Y-118312439D01*
X125662553Y-118525026D01*
X125665841Y-118527775D01*
X125879761Y-118706641D01*
X125879766Y-118706645D01*
X125883053Y-118709393D01*
X125976012Y-118767706D01*
X126122895Y-118859846D01*
X126122899Y-118859848D01*
X126126535Y-118862129D01*
X126388493Y-118980407D01*
X126664079Y-119062040D01*
X126668313Y-119062688D01*
X126668318Y-119062689D01*
X126919095Y-119101063D01*
X126948195Y-119105516D01*
X127094580Y-119107815D01*
X127231291Y-119109963D01*
X127231297Y-119109963D01*
X127235582Y-119110030D01*
X127520923Y-119075500D01*
X127798937Y-119002565D01*
X127802897Y-119000925D01*
X127802902Y-119000923D01*
X127945911Y-118941686D01*
X128064481Y-118892573D01*
X128277216Y-118768261D01*
X128308943Y-118749721D01*
X128308944Y-118749721D01*
X128312641Y-118747560D01*
X128538823Y-118570210D01*
X128738844Y-118363804D01*
X128741377Y-118360356D01*
X128741381Y-118360351D01*
X128906464Y-118135617D01*
X128909002Y-118132162D01*
X129046149Y-117879571D01*
X129096947Y-117745137D01*
X129146227Y-117614721D01*
X129146228Y-117614718D01*
X129147745Y-117610703D01*
X129185889Y-117444156D01*
X129210954Y-117334718D01*
X129210955Y-117334714D01*
X129211912Y-117330534D01*
X129218661Y-117254922D01*
X129237243Y-117046715D01*
X129237463Y-117044250D01*
X129237926Y-117000000D01*
X129237757Y-116997519D01*
X129218669Y-116717520D01*
X129218668Y-116717514D01*
X129218377Y-116713243D01*
X129213841Y-116691337D01*
X129160962Y-116435998D01*
X129160091Y-116431792D01*
X129152556Y-116410512D01*
X129065579Y-116164897D01*
X129064148Y-116160856D01*
X128932321Y-115905447D01*
X128767052Y-115670293D01*
X128571397Y-115459743D01*
X128348978Y-115277695D01*
X128103910Y-115127517D01*
X128099993Y-115125798D01*
X128099990Y-115125796D01*
X127983678Y-115074739D01*
X127840728Y-115011989D01*
X127836600Y-115010813D01*
X127836597Y-115010812D01*
X127750693Y-114986342D01*
X127564302Y-114933247D01*
X127560060Y-114932643D01*
X127560054Y-114932642D01*
X127283998Y-114893353D01*
X127279747Y-114892748D01*
X127128246Y-114891955D01*
X126996614Y-114891265D01*
X126996608Y-114891265D01*
X126992328Y-114891243D01*
X126988083Y-114891802D01*
X126988081Y-114891802D01*
X126922784Y-114900399D01*
X126707365Y-114928760D01*
X126430129Y-115004603D01*
X126165752Y-115117369D01*
X126162071Y-115119572D01*
X125922806Y-115262768D01*
X125922802Y-115262771D01*
X125919124Y-115264972D01*
X125915781Y-115267650D01*
X125915777Y-115267653D01*
X125903243Y-115277695D01*
X125694811Y-115444681D01*
X125496963Y-115653170D01*
X125329240Y-115886581D01*
X125327231Y-115890376D01*
X125327230Y-115890377D01*
X125318458Y-115906945D01*
X125194746Y-116140596D01*
X125193271Y-116144627D01*
X125120592Y-116343233D01*
X125095971Y-116410512D01*
X125034741Y-116691337D01*
X125012698Y-116971415D01*
X125012190Y-116977874D01*
X118223190Y-116977874D01*
X117603030Y-116463024D01*
X103553517Y-104799277D01*
X103513880Y-104740375D01*
X103508000Y-104702332D01*
X103508000Y-103306695D01*
X116507251Y-103306695D01*
X116507548Y-103311848D01*
X116507548Y-103311851D01*
X116519151Y-103513080D01*
X116520110Y-103529715D01*
X116521247Y-103534761D01*
X116521248Y-103534767D01*
X116545304Y-103641508D01*
X116569222Y-103747639D01*
X116618058Y-103867908D01*
X116643898Y-103931544D01*
X116653266Y-103954616D01*
X116769987Y-104145088D01*
X116916250Y-104313938D01*
X117088126Y-104456632D01*
X117281000Y-104569338D01*
X117489692Y-104649030D01*
X117494760Y-104650061D01*
X117494763Y-104650062D01*
X117602017Y-104671883D01*
X117708597Y-104693567D01*
X117713772Y-104693757D01*
X117713774Y-104693757D01*
X117926673Y-104701564D01*
X117926677Y-104701564D01*
X117931837Y-104701753D01*
X117936957Y-104701097D01*
X117936959Y-104701097D01*
X118148288Y-104674025D01*
X118148289Y-104674025D01*
X118153416Y-104673368D01*
X118179008Y-104665690D01*
X118362429Y-104610661D01*
X118362434Y-104610659D01*
X118367384Y-104609174D01*
X118567994Y-104510896D01*
X118749860Y-104381173D01*
X118858091Y-104273319D01*
X118920462Y-104239404D01*
X118991268Y-104244592D01*
X119048030Y-104287238D01*
X119065012Y-104318341D01*
X119074809Y-104344475D01*
X119109385Y-104436705D01*
X119196739Y-104553261D01*
X119313295Y-104640615D01*
X119449684Y-104691745D01*
X119511866Y-104698500D01*
X121308134Y-104698500D01*
X121370316Y-104691745D01*
X121506705Y-104640615D01*
X121623261Y-104553261D01*
X121710615Y-104436705D01*
X121761745Y-104300316D01*
X121768500Y-104238134D01*
X121768500Y-102441866D01*
X121761745Y-102379684D01*
X121710615Y-102243295D01*
X121623261Y-102126739D01*
X121506705Y-102039385D01*
X121370316Y-101988255D01*
X121308134Y-101981500D01*
X119511866Y-101981500D01*
X119449684Y-101988255D01*
X119313295Y-102039385D01*
X119196739Y-102126739D01*
X119109385Y-102243295D01*
X119106233Y-102251703D01*
X119064919Y-102361907D01*
X119022277Y-102418671D01*
X118955716Y-102443371D01*
X118886367Y-102428163D01*
X118853743Y-102402476D01*
X118803151Y-102346875D01*
X118803142Y-102346866D01*
X118799670Y-102343051D01*
X118795619Y-102339852D01*
X118795615Y-102339848D01*
X118628414Y-102207800D01*
X118628410Y-102207798D01*
X118624359Y-102204598D01*
X118428789Y-102096638D01*
X118423920Y-102094914D01*
X118423916Y-102094912D01*
X118223087Y-102023795D01*
X118223083Y-102023794D01*
X118218212Y-102022069D01*
X118213119Y-102021162D01*
X118213116Y-102021161D01*
X118003373Y-101983800D01*
X118003367Y-101983799D01*
X117998284Y-101982894D01*
X117924452Y-101981992D01*
X117780081Y-101980228D01*
X117780079Y-101980228D01*
X117774911Y-101980165D01*
X117554091Y-102013955D01*
X117341756Y-102083357D01*
X117143607Y-102186507D01*
X117139474Y-102189610D01*
X117139471Y-102189612D01*
X117028358Y-102273038D01*
X116964965Y-102320635D01*
X116939576Y-102347203D01*
X116871280Y-102418671D01*
X116810629Y-102482138D01*
X116684743Y-102666680D01*
X116653765Y-102733416D01*
X116600102Y-102849025D01*
X116590688Y-102869305D01*
X116530989Y-103084570D01*
X116507251Y-103306695D01*
X103508000Y-103306695D01*
X103508000Y-96946695D01*
X106957251Y-96946695D01*
X106957548Y-96951848D01*
X106957548Y-96951851D01*
X106963011Y-97046590D01*
X106970110Y-97169715D01*
X106971247Y-97174761D01*
X106971248Y-97174767D01*
X106989358Y-97255124D01*
X107019222Y-97387639D01*
X107103266Y-97594616D01*
X107154019Y-97677438D01*
X107217291Y-97780688D01*
X107219987Y-97785088D01*
X107366250Y-97953938D01*
X107370230Y-97957242D01*
X107374981Y-97961187D01*
X107414616Y-98020090D01*
X107416113Y-98091071D01*
X107378997Y-98151593D01*
X107338725Y-98176112D01*
X107298638Y-98191140D01*
X107223295Y-98219385D01*
X107106739Y-98306739D01*
X107019385Y-98423295D01*
X106968255Y-98559684D01*
X106961500Y-98621866D01*
X106961500Y-100418134D01*
X106968255Y-100480316D01*
X107019385Y-100616705D01*
X107106739Y-100733261D01*
X107223295Y-100820615D01*
X107359684Y-100871745D01*
X107421866Y-100878500D01*
X109218134Y-100878500D01*
X109280316Y-100871745D01*
X109416705Y-100820615D01*
X109533261Y-100733261D01*
X109620615Y-100616705D01*
X109642799Y-100557529D01*
X109664598Y-100499382D01*
X109707240Y-100442618D01*
X109773802Y-100417918D01*
X109843150Y-100433126D01*
X109877817Y-100461114D01*
X109906250Y-100493938D01*
X110078126Y-100636632D01*
X110271000Y-100749338D01*
X110479692Y-100829030D01*
X110484760Y-100830061D01*
X110484763Y-100830062D01*
X110579862Y-100849410D01*
X110698597Y-100873567D01*
X110703772Y-100873757D01*
X110703774Y-100873757D01*
X110916673Y-100881564D01*
X110916677Y-100881564D01*
X110921837Y-100881753D01*
X110926957Y-100881097D01*
X110926959Y-100881097D01*
X111138288Y-100854025D01*
X111138289Y-100854025D01*
X111143416Y-100853368D01*
X111148366Y-100851883D01*
X111352429Y-100790661D01*
X111352434Y-100790659D01*
X111357384Y-100789174D01*
X111557994Y-100690896D01*
X111739860Y-100561173D01*
X111898096Y-100403489D01*
X112028453Y-100222077D01*
X112029640Y-100222930D01*
X112076960Y-100179362D01*
X112146897Y-100167145D01*
X112212338Y-100194678D01*
X112240166Y-100226511D01*
X112297694Y-100320388D01*
X112303777Y-100328699D01*
X112443213Y-100489667D01*
X112450580Y-100496883D01*
X112614434Y-100632916D01*
X112622881Y-100638831D01*
X112806756Y-100746279D01*
X112816042Y-100750729D01*
X113015001Y-100826703D01*
X113024899Y-100829579D01*
X113128250Y-100850606D01*
X113142299Y-100849410D01*
X113146000Y-100839065D01*
X113146000Y-100838517D01*
X113654000Y-100838517D01*
X113658064Y-100852359D01*
X113671478Y-100854393D01*
X113678184Y-100853534D01*
X113688262Y-100851392D01*
X113892255Y-100790191D01*
X113901842Y-100786433D01*
X114093095Y-100692739D01*
X114101945Y-100687464D01*
X114275328Y-100563792D01*
X114283200Y-100557139D01*
X114434052Y-100406812D01*
X114440730Y-100398965D01*
X114568022Y-100221819D01*
X114569279Y-100222722D01*
X114616373Y-100179362D01*
X114686311Y-100167145D01*
X114751751Y-100194678D01*
X114779579Y-100226511D01*
X114839987Y-100325088D01*
X114986250Y-100493938D01*
X115158126Y-100636632D01*
X115351000Y-100749338D01*
X115559692Y-100829030D01*
X115564760Y-100830061D01*
X115564763Y-100830062D01*
X115659862Y-100849410D01*
X115778597Y-100873567D01*
X115783772Y-100873757D01*
X115783774Y-100873757D01*
X115996673Y-100881564D01*
X115996677Y-100881564D01*
X116001837Y-100881753D01*
X116006957Y-100881097D01*
X116006959Y-100881097D01*
X116218288Y-100854025D01*
X116218289Y-100854025D01*
X116223416Y-100853368D01*
X116228366Y-100851883D01*
X116432429Y-100790661D01*
X116432434Y-100790659D01*
X116437384Y-100789174D01*
X116637994Y-100690896D01*
X116819860Y-100561173D01*
X116978096Y-100403489D01*
X117108453Y-100222077D01*
X117109776Y-100223028D01*
X117156645Y-100179857D01*
X117226580Y-100167625D01*
X117292026Y-100195144D01*
X117319875Y-100226994D01*
X117379987Y-100325088D01*
X117526250Y-100493938D01*
X117698126Y-100636632D01*
X117891000Y-100749338D01*
X118099692Y-100829030D01*
X118104760Y-100830061D01*
X118104763Y-100830062D01*
X118199862Y-100849410D01*
X118318597Y-100873567D01*
X118323772Y-100873757D01*
X118323774Y-100873757D01*
X118536673Y-100881564D01*
X118536677Y-100881564D01*
X118541837Y-100881753D01*
X118546957Y-100881097D01*
X118546959Y-100881097D01*
X118758288Y-100854025D01*
X118758289Y-100854025D01*
X118763416Y-100853368D01*
X118768366Y-100851883D01*
X118972429Y-100790661D01*
X118972434Y-100790659D01*
X118977384Y-100789174D01*
X119177994Y-100690896D01*
X119359860Y-100561173D01*
X119518096Y-100403489D01*
X119648453Y-100222077D01*
X119649776Y-100223028D01*
X119696645Y-100179857D01*
X119766580Y-100167625D01*
X119832026Y-100195144D01*
X119859875Y-100226994D01*
X119919987Y-100325088D01*
X120066250Y-100493938D01*
X120238126Y-100636632D01*
X120431000Y-100749338D01*
X120639692Y-100829030D01*
X120644760Y-100830061D01*
X120644763Y-100830062D01*
X120739862Y-100849410D01*
X120858597Y-100873567D01*
X120863772Y-100873757D01*
X120863774Y-100873757D01*
X121076673Y-100881564D01*
X121076677Y-100881564D01*
X121081837Y-100881753D01*
X121086957Y-100881097D01*
X121086959Y-100881097D01*
X121298288Y-100854025D01*
X121298289Y-100854025D01*
X121303416Y-100853368D01*
X121308366Y-100851883D01*
X121512429Y-100790661D01*
X121512434Y-100790659D01*
X121517384Y-100789174D01*
X121717994Y-100690896D01*
X121899860Y-100561173D01*
X122058096Y-100403489D01*
X122188453Y-100222077D01*
X122201995Y-100194678D01*
X122285136Y-100026453D01*
X122285137Y-100026451D01*
X122287430Y-100021811D01*
X122325397Y-99896848D01*
X122350865Y-99813023D01*
X122350865Y-99813021D01*
X122352370Y-99808069D01*
X122381529Y-99586590D01*
X122382705Y-99538464D01*
X122383074Y-99523365D01*
X122383074Y-99523361D01*
X122383156Y-99520000D01*
X122364852Y-99297361D01*
X122310431Y-99080702D01*
X122221354Y-98875840D01*
X122100014Y-98688277D01*
X121949670Y-98523051D01*
X121945619Y-98519852D01*
X121945615Y-98519848D01*
X121778414Y-98387800D01*
X121778410Y-98387798D01*
X121774359Y-98384598D01*
X121733053Y-98361796D01*
X121683084Y-98311364D01*
X121668312Y-98241921D01*
X121693428Y-98175516D01*
X121720780Y-98148909D01*
X121764603Y-98117650D01*
X121899860Y-98021173D01*
X122058096Y-97863489D01*
X122117594Y-97780689D01*
X122185435Y-97686277D01*
X122188453Y-97682077D01*
X122201995Y-97654678D01*
X122285136Y-97486453D01*
X122285137Y-97486451D01*
X122287430Y-97481811D01*
X122352370Y-97268069D01*
X122353907Y-97256395D01*
X123363307Y-97256395D01*
X123363319Y-97257656D01*
X123363319Y-97257665D01*
X123365335Y-97467680D01*
X123365645Y-97500000D01*
X123372270Y-98190125D01*
X123372334Y-98191403D01*
X123372334Y-98191416D01*
X123391059Y-98567540D01*
X123418698Y-99122743D01*
X123418813Y-99124017D01*
X123418814Y-99124034D01*
X123467156Y-99660402D01*
X123502517Y-100052746D01*
X123502682Y-100054007D01*
X123502683Y-100054017D01*
X123622052Y-100966865D01*
X123623591Y-100978636D01*
X123623810Y-100979910D01*
X123748390Y-101704920D01*
X123781725Y-101898921D01*
X123861587Y-102273038D01*
X123960685Y-102737263D01*
X123976664Y-102812119D01*
X123976964Y-102813292D01*
X123976969Y-102813313D01*
X124171426Y-103573423D01*
X124208095Y-103716758D01*
X124208451Y-103717948D01*
X124208452Y-103717952D01*
X124305386Y-104042077D01*
X124475643Y-104611380D01*
X124476043Y-104612546D01*
X124476052Y-104612573D01*
X124684180Y-105218735D01*
X124778880Y-105494545D01*
X125117314Y-106364828D01*
X125490402Y-107220829D01*
X125490949Y-107221959D01*
X125490955Y-107221971D01*
X125896989Y-108060024D01*
X125897543Y-108061167D01*
X126338080Y-108884489D01*
X126338716Y-108885571D01*
X126338720Y-108885578D01*
X126710018Y-109517176D01*
X126811303Y-109689468D01*
X127316450Y-110474807D01*
X127852707Y-111239241D01*
X128419211Y-111981539D01*
X129015047Y-112700503D01*
X129639258Y-113394977D01*
X130290835Y-114063840D01*
X130968731Y-114706015D01*
X131671852Y-115320468D01*
X132399065Y-115906209D01*
X133149200Y-116462293D01*
X133921047Y-116987825D01*
X133922117Y-116988492D01*
X133922138Y-116988506D01*
X134371950Y-117269033D01*
X134713363Y-117481957D01*
X135524871Y-117943895D01*
X136354263Y-118372894D01*
X136355393Y-118373422D01*
X136355411Y-118373431D01*
X137199016Y-118767706D01*
X137199026Y-118767710D01*
X137200204Y-118768261D01*
X137201406Y-118768765D01*
X138015229Y-119110030D01*
X138061330Y-119129362D01*
X138936254Y-119455612D01*
X138937447Y-119456003D01*
X139640989Y-119686636D01*
X139823566Y-119746488D01*
X140721837Y-120001520D01*
X140723055Y-120001814D01*
X140723072Y-120001818D01*
X141628407Y-120220005D01*
X141629619Y-120220297D01*
X141630839Y-120220540D01*
X141630845Y-120220541D01*
X142544205Y-120402220D01*
X142544226Y-120402224D01*
X142545449Y-120402467D01*
X143467853Y-120547736D01*
X143469136Y-120547886D01*
X143469139Y-120547886D01*
X144394090Y-120655725D01*
X144394094Y-120655725D01*
X144395343Y-120655871D01*
X144719819Y-120680553D01*
X145325160Y-120726601D01*
X145325175Y-120726602D01*
X145326426Y-120726697D01*
X145327688Y-120726742D01*
X145327703Y-120726743D01*
X146258338Y-120760054D01*
X146258348Y-120760054D01*
X146259601Y-120760099D01*
X146260829Y-120760094D01*
X146260851Y-120760094D01*
X146719861Y-120758091D01*
X147193365Y-120756025D01*
X147194616Y-120755969D01*
X147194628Y-120755969D01*
X148124941Y-120714537D01*
X148124958Y-120714536D01*
X148126213Y-120714480D01*
X149056642Y-120635532D01*
X149983154Y-120519308D01*
X150724946Y-120395840D01*
X150903018Y-120366201D01*
X150903023Y-120366200D01*
X150904255Y-120365995D01*
X151818461Y-120175839D01*
X151819678Y-120175534D01*
X151819693Y-120175531D01*
X152513837Y-120001818D01*
X152724299Y-119949149D01*
X152965556Y-119878372D01*
X153619125Y-119686636D01*
X153619141Y-119686631D01*
X153620310Y-119686288D01*
X153621476Y-119685895D01*
X153621487Y-119685891D01*
X154503853Y-119388084D01*
X154505050Y-119387680D01*
X155241860Y-119105583D01*
X155375931Y-119054252D01*
X155375936Y-119054250D01*
X155377093Y-119053807D01*
X155378220Y-119053323D01*
X156233899Y-118685695D01*
X156233920Y-118685686D01*
X156235036Y-118685206D01*
X156887220Y-118373431D01*
X157076346Y-118283020D01*
X157076354Y-118283016D01*
X157077494Y-118282471D01*
X157455673Y-118082658D01*
X157901987Y-117846845D01*
X157901992Y-117846842D01*
X157903111Y-117846251D01*
X158283742Y-117625163D01*
X158709442Y-117377897D01*
X158709455Y-117377889D01*
X158710557Y-117377249D01*
X158711637Y-117376562D01*
X158711649Y-117376555D01*
X159234269Y-117044250D01*
X159338659Y-116977874D01*
X164637190Y-116977874D01*
X164653735Y-117264820D01*
X164654560Y-117269025D01*
X164654561Y-117269033D01*
X164675920Y-117377897D01*
X164709070Y-117546865D01*
X164710457Y-117550916D01*
X164786206Y-117772161D01*
X164802171Y-117818792D01*
X164931316Y-118075567D01*
X164933742Y-118079096D01*
X164933745Y-118079102D01*
X164972587Y-118135617D01*
X165094114Y-118312439D01*
X165287553Y-118525026D01*
X165290841Y-118527775D01*
X165504761Y-118706641D01*
X165504766Y-118706645D01*
X165508053Y-118709393D01*
X165601012Y-118767706D01*
X165747895Y-118859846D01*
X165747899Y-118859848D01*
X165751535Y-118862129D01*
X166013493Y-118980407D01*
X166289079Y-119062040D01*
X166293313Y-119062688D01*
X166293318Y-119062689D01*
X166544095Y-119101063D01*
X166573195Y-119105516D01*
X166719580Y-119107815D01*
X166856291Y-119109963D01*
X166856297Y-119109963D01*
X166860582Y-119110030D01*
X167145923Y-119075500D01*
X167423937Y-119002565D01*
X167427897Y-119000925D01*
X167427902Y-119000923D01*
X167570911Y-118941686D01*
X167689481Y-118892573D01*
X167902216Y-118768261D01*
X167933943Y-118749721D01*
X167933944Y-118749721D01*
X167937641Y-118747560D01*
X168163823Y-118570210D01*
X168363844Y-118363804D01*
X168366377Y-118360356D01*
X168366381Y-118360351D01*
X168531464Y-118135617D01*
X168534002Y-118132162D01*
X168671149Y-117879571D01*
X168721947Y-117745137D01*
X168771227Y-117614721D01*
X168771228Y-117614718D01*
X168772745Y-117610703D01*
X168810889Y-117444156D01*
X168835954Y-117334718D01*
X168835955Y-117334714D01*
X168836912Y-117330534D01*
X168843661Y-117254922D01*
X168862243Y-117046715D01*
X168862463Y-117044250D01*
X168862926Y-117000000D01*
X168862757Y-116997519D01*
X168843669Y-116717520D01*
X168843668Y-116717514D01*
X168843377Y-116713243D01*
X168838841Y-116691337D01*
X168785962Y-116435998D01*
X168785091Y-116431792D01*
X168777556Y-116410512D01*
X168690579Y-116164897D01*
X168689148Y-116160856D01*
X168557321Y-115905447D01*
X168392052Y-115670293D01*
X168196397Y-115459743D01*
X167973978Y-115277695D01*
X167728910Y-115127517D01*
X167724993Y-115125798D01*
X167724990Y-115125796D01*
X167608678Y-115074739D01*
X167465728Y-115011989D01*
X167461600Y-115010813D01*
X167461597Y-115010812D01*
X167375693Y-114986342D01*
X167189302Y-114933247D01*
X167185060Y-114932643D01*
X167185054Y-114932642D01*
X166908998Y-114893353D01*
X166904747Y-114892748D01*
X166753246Y-114891955D01*
X166621614Y-114891265D01*
X166621608Y-114891265D01*
X166617328Y-114891243D01*
X166613083Y-114891802D01*
X166613081Y-114891802D01*
X166547784Y-114900399D01*
X166332365Y-114928760D01*
X166055129Y-115004603D01*
X165790752Y-115117369D01*
X165787071Y-115119572D01*
X165547806Y-115262768D01*
X165547802Y-115262771D01*
X165544124Y-115264972D01*
X165540781Y-115267650D01*
X165540777Y-115267653D01*
X165528243Y-115277695D01*
X165319811Y-115444681D01*
X165121963Y-115653170D01*
X164954240Y-115886581D01*
X164952231Y-115890376D01*
X164952230Y-115890377D01*
X164943458Y-115906945D01*
X164819746Y-116140596D01*
X164818271Y-116144627D01*
X164745592Y-116343233D01*
X164720971Y-116410512D01*
X164659741Y-116691337D01*
X164637698Y-116971415D01*
X164637190Y-116977874D01*
X159338659Y-116977874D01*
X159498530Y-116876221D01*
X160169848Y-116410512D01*
X160264756Y-116344672D01*
X160264760Y-116344669D01*
X160265762Y-116343974D01*
X161011015Y-115781365D01*
X161733090Y-115189300D01*
X162430822Y-114568735D01*
X163103088Y-113920668D01*
X163114966Y-113908261D01*
X163747941Y-113247047D01*
X163747953Y-113247034D01*
X163748804Y-113246145D01*
X164366930Y-112546251D01*
X164826678Y-111981539D01*
X164955670Y-111823097D01*
X164955677Y-111823088D01*
X164956470Y-111822114D01*
X165516474Y-111074901D01*
X165517180Y-111073876D01*
X165517192Y-111073859D01*
X166045336Y-110306838D01*
X166046040Y-110305816D01*
X166171483Y-110107002D01*
X166543636Y-109517176D01*
X166543648Y-109517157D01*
X166544315Y-109516099D01*
X167010495Y-108707021D01*
X167443830Y-107879886D01*
X167541500Y-107673729D01*
X167843074Y-107037185D01*
X167843085Y-107037160D01*
X167843622Y-107036027D01*
X168051860Y-106546636D01*
X168208731Y-106177967D01*
X168208736Y-106177955D01*
X168209226Y-106176803D01*
X168467260Y-105495733D01*
X168539609Y-105304772D01*
X168539615Y-105304754D01*
X168540053Y-105303599D01*
X168835571Y-104417822D01*
X168841636Y-104396880D01*
X169094958Y-103522091D01*
X169094960Y-103522083D01*
X169095303Y-103520899D01*
X169098862Y-103506466D01*
X169291470Y-102725245D01*
X169318830Y-102614275D01*
X169334548Y-102537366D01*
X169505540Y-101700650D01*
X169505542Y-101700640D01*
X169505793Y-101699411D01*
X169631339Y-100928528D01*
X173422288Y-100928528D01*
X173422585Y-100933680D01*
X173422585Y-100933684D01*
X173428143Y-101030071D01*
X173435791Y-101162711D01*
X173436928Y-101167757D01*
X173436929Y-101167763D01*
X173460180Y-101270932D01*
X173487361Y-101391544D01*
X173575612Y-101608881D01*
X173698176Y-101808886D01*
X173790396Y-101915348D01*
X173819878Y-101979931D01*
X173809763Y-102050203D01*
X173763262Y-102103852D01*
X173739387Y-102115825D01*
X173696955Y-102131732D01*
X173696954Y-102131733D01*
X173688545Y-102134885D01*
X173571989Y-102222239D01*
X173484635Y-102338795D01*
X173433505Y-102475184D01*
X173426750Y-102537366D01*
X173426750Y-104469634D01*
X173433505Y-104531816D01*
X173484635Y-104668205D01*
X173571989Y-104784761D01*
X173688545Y-104872115D01*
X173824934Y-104923245D01*
X173887116Y-104930000D01*
X175819384Y-104930000D01*
X175881566Y-104923245D01*
X176017955Y-104872115D01*
X176134511Y-104784761D01*
X176221865Y-104668205D01*
X176240615Y-104618190D01*
X176283257Y-104561426D01*
X176349819Y-104536726D01*
X176419167Y-104551934D01*
X176439082Y-104565476D01*
X176559790Y-104665690D01*
X176572239Y-104676025D01*
X176576691Y-104678627D01*
X176576696Y-104678630D01*
X176769530Y-104791313D01*
X176774767Y-104794373D01*
X176993905Y-104878054D01*
X176998971Y-104879085D01*
X176998972Y-104879085D01*
X177053976Y-104890275D01*
X177223768Y-104924820D01*
X177354980Y-104929631D01*
X177453018Y-104933226D01*
X177453022Y-104933226D01*
X177458182Y-104933415D01*
X177463302Y-104932759D01*
X177463304Y-104932759D01*
X177685726Y-104904267D01*
X177685729Y-104904266D01*
X177690853Y-104903610D01*
X177783792Y-104875727D01*
X177910578Y-104837689D01*
X177915531Y-104836203D01*
X177920170Y-104833930D01*
X177920176Y-104833928D01*
X178121545Y-104735278D01*
X178126183Y-104733006D01*
X178170263Y-104701564D01*
X178312939Y-104599794D01*
X178312943Y-104599790D01*
X178317151Y-104596789D01*
X178483308Y-104431212D01*
X178559018Y-104325850D01*
X178615012Y-104282203D01*
X178685715Y-104275757D01*
X178748679Y-104308560D01*
X178768772Y-104333541D01*
X178775475Y-104344480D01*
X178775481Y-104344488D01*
X178778176Y-104348886D01*
X178931760Y-104526188D01*
X178935735Y-104529488D01*
X178935739Y-104529492D01*
X178955721Y-104546081D01*
X179112239Y-104676025D01*
X179116691Y-104678627D01*
X179116696Y-104678630D01*
X179309530Y-104791313D01*
X179314767Y-104794373D01*
X179533905Y-104878054D01*
X179538971Y-104879085D01*
X179538972Y-104879085D01*
X179593976Y-104890275D01*
X179763768Y-104924820D01*
X179894980Y-104929631D01*
X179993018Y-104933226D01*
X179993022Y-104933226D01*
X179998182Y-104933415D01*
X180003302Y-104932759D01*
X180003304Y-104932759D01*
X180225726Y-104904267D01*
X180225729Y-104904266D01*
X180230853Y-104903610D01*
X180323792Y-104875727D01*
X180450578Y-104837689D01*
X180455531Y-104836203D01*
X180460170Y-104833930D01*
X180460176Y-104833928D01*
X180661545Y-104735278D01*
X180666183Y-104733006D01*
X180710263Y-104701564D01*
X180743207Y-104678065D01*
X181663514Y-104678065D01*
X181668795Y-104685120D01*
X181850523Y-104791313D01*
X181859810Y-104795763D01*
X182069214Y-104875727D01*
X182079112Y-104878603D01*
X182298765Y-104923291D01*
X182308994Y-104924510D01*
X182532995Y-104932725D01*
X182543281Y-104932258D01*
X182765617Y-104903776D01*
X182775702Y-104901633D01*
X182990397Y-104837221D01*
X182999992Y-104833460D01*
X183201274Y-104734854D01*
X183210140Y-104729569D01*
X183271251Y-104685978D01*
X183279652Y-104675278D01*
X183272665Y-104662126D01*
X182486061Y-103875521D01*
X182472118Y-103867908D01*
X182470284Y-103868039D01*
X182463670Y-103872290D01*
X181670271Y-104665690D01*
X181663514Y-104678065D01*
X180743207Y-104678065D01*
X180852939Y-104599794D01*
X180852943Y-104599790D01*
X180857151Y-104596789D01*
X181023308Y-104431212D01*
X181095829Y-104330288D01*
X181102300Y-104321283D01*
X181158295Y-104277635D01*
X181228998Y-104271189D01*
X181289155Y-104301373D01*
X181300714Y-104311831D01*
X181309492Y-104308047D01*
X182101229Y-103516311D01*
X182108842Y-103502368D01*
X182108711Y-103500534D01*
X182104460Y-103493920D01*
X181314158Y-102703619D01*
X181302627Y-102697322D01*
X181283891Y-102712001D01*
X181217932Y-102738268D01*
X181148243Y-102724705D01*
X181100391Y-102681257D01*
X181070133Y-102634485D01*
X181070131Y-102634482D01*
X181067325Y-102630145D01*
X180909455Y-102456648D01*
X180750298Y-102330954D01*
X180709236Y-102273038D01*
X180706004Y-102202115D01*
X180741629Y-102140704D01*
X180755222Y-102129495D01*
X180852938Y-102059794D01*
X180857151Y-102056789D01*
X181023308Y-101891212D01*
X181099018Y-101785850D01*
X181155012Y-101742203D01*
X181225715Y-101735757D01*
X181288679Y-101768560D01*
X181308772Y-101793541D01*
X181315475Y-101804480D01*
X181315481Y-101804488D01*
X181318176Y-101808886D01*
X181471760Y-101986188D01*
X181475735Y-101989488D01*
X181475739Y-101989492D01*
X181532039Y-102036233D01*
X181651623Y-102135513D01*
X181651624Y-102135515D01*
X181652239Y-102136025D01*
X181652134Y-102136152D01*
X181695156Y-102189982D01*
X181702461Y-102260602D01*
X181679530Y-102313096D01*
X181665902Y-102331355D01*
X181672646Y-102343685D01*
X182460439Y-103131479D01*
X182474382Y-103139092D01*
X182476216Y-103138961D01*
X182482830Y-103134710D01*
X183275059Y-102342480D01*
X183282077Y-102329628D01*
X183265570Y-102306973D01*
X183241621Y-102240138D01*
X183257609Y-102170965D01*
X183294237Y-102130197D01*
X183295222Y-102129495D01*
X183356554Y-102085747D01*
X183392939Y-102059794D01*
X183392943Y-102059790D01*
X183397151Y-102056789D01*
X183563308Y-101891212D01*
X183639018Y-101785850D01*
X183695012Y-101742203D01*
X183765715Y-101735757D01*
X183828679Y-101768560D01*
X183848772Y-101793541D01*
X183855475Y-101804480D01*
X183855481Y-101804488D01*
X183858176Y-101808886D01*
X184011760Y-101986188D01*
X184015735Y-101989488D01*
X184015739Y-101989492D01*
X184192239Y-102136025D01*
X184191520Y-102136892D01*
X184232423Y-102188059D01*
X184239735Y-102258678D01*
X184207707Y-102322040D01*
X184191479Y-102336580D01*
X184069502Y-102428163D01*
X184062913Y-102433110D01*
X183900852Y-102602698D01*
X183857207Y-102666680D01*
X183845331Y-102684089D01*
X183790420Y-102729092D01*
X183719895Y-102737263D01*
X183659019Y-102708558D01*
X183644806Y-102696317D01*
X183635240Y-102700721D01*
X182845271Y-103490689D01*
X182837658Y-103504632D01*
X182837789Y-103506466D01*
X182842040Y-103513080D01*
X183632455Y-104303494D01*
X183644461Y-104310050D01*
X183662856Y-104295997D01*
X183729131Y-104270538D01*
X183798649Y-104284951D01*
X183846778Y-104330288D01*
X183855472Y-104344475D01*
X183855476Y-104344480D01*
X183858176Y-104348886D01*
X184011760Y-104526188D01*
X184015735Y-104529488D01*
X184015739Y-104529492D01*
X184035721Y-104546081D01*
X184192239Y-104676025D01*
X184196691Y-104678627D01*
X184196696Y-104678630D01*
X184389530Y-104791313D01*
X184394767Y-104794373D01*
X184613905Y-104878054D01*
X184618971Y-104879085D01*
X184618972Y-104879085D01*
X184673976Y-104890275D01*
X184843768Y-104924820D01*
X184974980Y-104929631D01*
X185073018Y-104933226D01*
X185073022Y-104933226D01*
X185078182Y-104933415D01*
X185083302Y-104932759D01*
X185083304Y-104932759D01*
X185305726Y-104904267D01*
X185305729Y-104904266D01*
X185310853Y-104903610D01*
X185403792Y-104875727D01*
X185530578Y-104837689D01*
X185535531Y-104836203D01*
X185540170Y-104833930D01*
X185540176Y-104833928D01*
X185741545Y-104735278D01*
X185746183Y-104733006D01*
X185790263Y-104701564D01*
X185932939Y-104599794D01*
X185932943Y-104599790D01*
X185937151Y-104596789D01*
X186103308Y-104431212D01*
X186190372Y-104310050D01*
X186237172Y-104244920D01*
X186240190Y-104240720D01*
X186281130Y-104157885D01*
X186341828Y-104035071D01*
X186341829Y-104035069D01*
X186344122Y-104030429D01*
X186412312Y-103805988D01*
X186423902Y-103717952D01*
X186442493Y-103576745D01*
X186442494Y-103576738D01*
X186442930Y-103573423D01*
X186444639Y-103503500D01*
X186425419Y-103269717D01*
X186368273Y-103042212D01*
X186274738Y-102827096D01*
X186173998Y-102671375D01*
X186150133Y-102634485D01*
X186150131Y-102634482D01*
X186147325Y-102630145D01*
X185989455Y-102456648D01*
X185830298Y-102330954D01*
X185789236Y-102273038D01*
X185786004Y-102202115D01*
X185821629Y-102140704D01*
X185835222Y-102129495D01*
X185932938Y-102059794D01*
X185937151Y-102056789D01*
X186103308Y-101891212D01*
X186159661Y-101812789D01*
X186237172Y-101704920D01*
X186240190Y-101700720D01*
X186281130Y-101617885D01*
X186341828Y-101495071D01*
X186341829Y-101495069D01*
X186344122Y-101490429D01*
X186412312Y-101265988D01*
X186425909Y-101162711D01*
X186442493Y-101036745D01*
X186442494Y-101036738D01*
X186442930Y-101033423D01*
X186444639Y-100963500D01*
X186425419Y-100729717D01*
X186368273Y-100502212D01*
X186292954Y-100328990D01*
X186276798Y-100291833D01*
X186276796Y-100291830D01*
X186274738Y-100287096D01*
X186147325Y-100090145D01*
X185989455Y-99916648D01*
X185805369Y-99771266D01*
X185600009Y-99657901D01*
X185468464Y-99611319D01*
X185383764Y-99581325D01*
X185383761Y-99581324D01*
X185378892Y-99579600D01*
X185373803Y-99578693D01*
X185373801Y-99578693D01*
X185153045Y-99539370D01*
X185153039Y-99539369D01*
X185147956Y-99538464D01*
X185057258Y-99537356D01*
X184918570Y-99535661D01*
X184918568Y-99535661D01*
X184913401Y-99535598D01*
X184681529Y-99571079D01*
X184458564Y-99643955D01*
X184250497Y-99752268D01*
X184246364Y-99755371D01*
X184246361Y-99755373D01*
X184067048Y-99890005D01*
X184062913Y-99893110D01*
X183900852Y-100062698D01*
X183897938Y-100066970D01*
X183897937Y-100066971D01*
X183847955Y-100140242D01*
X183793044Y-100185245D01*
X183722519Y-100193416D01*
X183658772Y-100162162D01*
X183638077Y-100137681D01*
X183607325Y-100090145D01*
X183449455Y-99916648D01*
X183265369Y-99771266D01*
X183060009Y-99657901D01*
X182928464Y-99611319D01*
X182843764Y-99581325D01*
X182843761Y-99581324D01*
X182838892Y-99579600D01*
X182833803Y-99578693D01*
X182833801Y-99578693D01*
X182613045Y-99539370D01*
X182613039Y-99539369D01*
X182607956Y-99538464D01*
X182517258Y-99537356D01*
X182378570Y-99535661D01*
X182378568Y-99535661D01*
X182373401Y-99535598D01*
X182141529Y-99571079D01*
X181918564Y-99643955D01*
X181710497Y-99752268D01*
X181706364Y-99755371D01*
X181706361Y-99755373D01*
X181527048Y-99890005D01*
X181522913Y-99893110D01*
X181360852Y-100062698D01*
X181357938Y-100066970D01*
X181357937Y-100066971D01*
X181307955Y-100140242D01*
X181253044Y-100185245D01*
X181182519Y-100193416D01*
X181118772Y-100162162D01*
X181098077Y-100137681D01*
X181067325Y-100090145D01*
X180909455Y-99916648D01*
X180725369Y-99771266D01*
X180520009Y-99657901D01*
X180388464Y-99611319D01*
X180303764Y-99581325D01*
X180303761Y-99581324D01*
X180298892Y-99579600D01*
X180293803Y-99578693D01*
X180293801Y-99578693D01*
X180073045Y-99539370D01*
X180073039Y-99539369D01*
X180067956Y-99538464D01*
X179977258Y-99537356D01*
X179838570Y-99535661D01*
X179838568Y-99535661D01*
X179833401Y-99535598D01*
X179601529Y-99571079D01*
X179378564Y-99643955D01*
X179170497Y-99752268D01*
X179166364Y-99755371D01*
X179166361Y-99755373D01*
X178987048Y-99890005D01*
X178982913Y-99893110D01*
X178820852Y-100062698D01*
X178817938Y-100066970D01*
X178817937Y-100066971D01*
X178767955Y-100140242D01*
X178713044Y-100185245D01*
X178642519Y-100193416D01*
X178578772Y-100162162D01*
X178558077Y-100137681D01*
X178527325Y-100090145D01*
X178369455Y-99916648D01*
X178185369Y-99771266D01*
X177980009Y-99657901D01*
X177848464Y-99611319D01*
X177763764Y-99581325D01*
X177763761Y-99581324D01*
X177758892Y-99579600D01*
X177753803Y-99578693D01*
X177753801Y-99578693D01*
X177533045Y-99539370D01*
X177533039Y-99539369D01*
X177527956Y-99538464D01*
X177437258Y-99537356D01*
X177298570Y-99535661D01*
X177298568Y-99535661D01*
X177293401Y-99535598D01*
X177061529Y-99571079D01*
X176838564Y-99643955D01*
X176630497Y-99752268D01*
X176626364Y-99755371D01*
X176626361Y-99755373D01*
X176447048Y-99890005D01*
X176442913Y-99893110D01*
X176280852Y-100062698D01*
X176277938Y-100066970D01*
X176277937Y-100066971D01*
X176227955Y-100140242D01*
X176173044Y-100185245D01*
X176102519Y-100193416D01*
X176038772Y-100162162D01*
X176018077Y-100137681D01*
X175987325Y-100090145D01*
X175829455Y-99916648D01*
X175645369Y-99771266D01*
X175440009Y-99657901D01*
X175308464Y-99611319D01*
X175223764Y-99581325D01*
X175223761Y-99581324D01*
X175218892Y-99579600D01*
X175213803Y-99578693D01*
X175213801Y-99578693D01*
X174993045Y-99539370D01*
X174993039Y-99539369D01*
X174987956Y-99538464D01*
X174897258Y-99537356D01*
X174758570Y-99535661D01*
X174758568Y-99535661D01*
X174753401Y-99535598D01*
X174521529Y-99571079D01*
X174298564Y-99643955D01*
X174090497Y-99752268D01*
X174086364Y-99755371D01*
X174086361Y-99755373D01*
X173907048Y-99890005D01*
X173902913Y-99893110D01*
X173740852Y-100062698D01*
X173608665Y-100256477D01*
X173606485Y-100261174D01*
X173512078Y-100464553D01*
X173512076Y-100464558D01*
X173509901Y-100469244D01*
X173447215Y-100695284D01*
X173422288Y-100928528D01*
X169631339Y-100928528D01*
X169655890Y-100777781D01*
X169659133Y-100751181D01*
X169763730Y-99893110D01*
X169768879Y-99850870D01*
X169844579Y-98920170D01*
X169846204Y-98880590D01*
X169876120Y-98151593D01*
X169882867Y-97987183D01*
X169884128Y-97866812D01*
X169887959Y-97500985D01*
X169887959Y-97500964D01*
X169887969Y-97500000D01*
X169887698Y-97486453D01*
X169869253Y-96567639D01*
X169869252Y-96567618D01*
X169869228Y-96566415D01*
X169819127Y-95735369D01*
X169813110Y-95635561D01*
X169813110Y-95635557D01*
X169813036Y-95634335D01*
X169719483Y-94705260D01*
X169588720Y-93780689D01*
X169420958Y-92862110D01*
X169216467Y-91951004D01*
X168975576Y-91048838D01*
X168742331Y-90297668D01*
X168699046Y-90158267D01*
X168699045Y-90158263D01*
X168698673Y-90157066D01*
X168524297Y-89666007D01*
X168386623Y-89278302D01*
X168386616Y-89278285D01*
X168386205Y-89277126D01*
X168038676Y-88410434D01*
X167656644Y-87558387D01*
X167240726Y-86722359D01*
X167240139Y-86721289D01*
X167240128Y-86721268D01*
X166792189Y-85904782D01*
X166792175Y-85904758D01*
X166791592Y-85903695D01*
X166309965Y-85103716D01*
X165796622Y-84323709D01*
X165252389Y-83564933D01*
X165251631Y-83563961D01*
X165251616Y-83563941D01*
X164678924Y-82829608D01*
X164678921Y-82829604D01*
X164678144Y-82828608D01*
X164074811Y-82115923D01*
X163908741Y-81935006D01*
X163444214Y-81428952D01*
X163444210Y-81428948D01*
X163443362Y-81428024D01*
X163442470Y-81427127D01*
X162785724Y-80766933D01*
X162785705Y-80766915D01*
X162784816Y-80766021D01*
X162100233Y-80130979D01*
X161390716Y-79523923D01*
X160657409Y-78945830D01*
X159901492Y-78397631D01*
X159270901Y-77977874D01*
X164012190Y-77977874D01*
X164028735Y-78264820D01*
X164029560Y-78269025D01*
X164029561Y-78269033D01*
X164054652Y-78396921D01*
X164084070Y-78546865D01*
X164085457Y-78550916D01*
X164170971Y-78800682D01*
X164177171Y-78818792D01*
X164306316Y-79075567D01*
X164308742Y-79079096D01*
X164308745Y-79079102D01*
X164347587Y-79135617D01*
X164469114Y-79312439D01*
X164662553Y-79525026D01*
X164665841Y-79527775D01*
X164879761Y-79706641D01*
X164879766Y-79706645D01*
X164883053Y-79709393D01*
X165001320Y-79783582D01*
X165122895Y-79859846D01*
X165122899Y-79859848D01*
X165126535Y-79862129D01*
X165388493Y-79980407D01*
X165664079Y-80062040D01*
X165668313Y-80062688D01*
X165668318Y-80062689D01*
X165919095Y-80101063D01*
X165948195Y-80105516D01*
X166094580Y-80107815D01*
X166231291Y-80109963D01*
X166231297Y-80109963D01*
X166235582Y-80110030D01*
X166520923Y-80075500D01*
X166798937Y-80002565D01*
X166802897Y-80000925D01*
X166802902Y-80000923D01*
X166945911Y-79941686D01*
X167064481Y-79892573D01*
X167312641Y-79747560D01*
X167538823Y-79570210D01*
X167738844Y-79363804D01*
X167741377Y-79360356D01*
X167741381Y-79360351D01*
X167906464Y-79135617D01*
X167909002Y-79132162D01*
X168046149Y-78879571D01*
X168106272Y-78720458D01*
X168146227Y-78614721D01*
X168146228Y-78614718D01*
X168147745Y-78610703D01*
X168196545Y-78397631D01*
X168210954Y-78334718D01*
X168210955Y-78334714D01*
X168211912Y-78330534D01*
X168218175Y-78260368D01*
X168237243Y-78046715D01*
X168237463Y-78044250D01*
X168237926Y-78000000D01*
X168237757Y-77997519D01*
X168218669Y-77717520D01*
X168218668Y-77717514D01*
X168218377Y-77713243D01*
X168213841Y-77691337D01*
X168160962Y-77435998D01*
X168160091Y-77431792D01*
X168152556Y-77410512D01*
X168065579Y-77164897D01*
X168064148Y-77160856D01*
X167932321Y-76905447D01*
X167767052Y-76670293D01*
X167628040Y-76520698D01*
X167574318Y-76462886D01*
X167574315Y-76462883D01*
X167571397Y-76459743D01*
X167348978Y-76277695D01*
X167103910Y-76127517D01*
X167099993Y-76125798D01*
X167099990Y-76125796D01*
X166983678Y-76074739D01*
X166840728Y-76011989D01*
X166836600Y-76010813D01*
X166836597Y-76010812D01*
X166750693Y-75986342D01*
X166564302Y-75933247D01*
X166560060Y-75932643D01*
X166560054Y-75932642D01*
X166283998Y-75893353D01*
X166279747Y-75892748D01*
X166128246Y-75891955D01*
X165996614Y-75891265D01*
X165996608Y-75891265D01*
X165992328Y-75891243D01*
X165988083Y-75891802D01*
X165988081Y-75891802D01*
X165922784Y-75900399D01*
X165707365Y-75928760D01*
X165430129Y-76004603D01*
X165165752Y-76117369D01*
X165162071Y-76119572D01*
X164922806Y-76262768D01*
X164922802Y-76262771D01*
X164919124Y-76264972D01*
X164915781Y-76267650D01*
X164915777Y-76267653D01*
X164903243Y-76277695D01*
X164694811Y-76444681D01*
X164496963Y-76653170D01*
X164329240Y-76886581D01*
X164194746Y-77140596D01*
X164095971Y-77410512D01*
X164034741Y-77691337D01*
X164012698Y-77971415D01*
X164012190Y-77977874D01*
X159270901Y-77977874D01*
X159124184Y-77880211D01*
X158326737Y-77394402D01*
X157510437Y-76940988D01*
X156676597Y-76520698D01*
X156120055Y-76267653D01*
X155827692Y-76134723D01*
X155827678Y-76134717D01*
X155826563Y-76134210D01*
X155825431Y-76133749D01*
X155825405Y-76133738D01*
X154962888Y-75782629D01*
X154962872Y-75782623D01*
X154961703Y-75782147D01*
X154083410Y-75465077D01*
X153193101Y-75183509D01*
X152292208Y-74937897D01*
X151382185Y-74728638D01*
X151380956Y-74728407D01*
X151380947Y-74728405D01*
X150465736Y-74556302D01*
X150464497Y-74556069D01*
X150463256Y-74555887D01*
X150463233Y-74555883D01*
X149541878Y-74420650D01*
X149541868Y-74420649D01*
X149540623Y-74420466D01*
X148612051Y-74322050D01*
X148610809Y-74321969D01*
X148610802Y-74321968D01*
X147890222Y-74274739D01*
X147680278Y-74260979D01*
X147362888Y-74252945D01*
X146748040Y-74237381D01*
X146748026Y-74237381D01*
X146746804Y-74237350D01*
X145859500Y-74250514D01*
X145814413Y-74251183D01*
X145814412Y-74251183D01*
X145813134Y-74251202D01*
X145346953Y-74276857D01*
X144882037Y-74302443D01*
X144882018Y-74302444D01*
X144880772Y-74302513D01*
X144879502Y-74302634D01*
X144879491Y-74302635D01*
X143952508Y-74391077D01*
X143952498Y-74391078D01*
X143951221Y-74391200D01*
X143949960Y-74391372D01*
X143949948Y-74391373D01*
X143446465Y-74459894D01*
X143025977Y-74517120D01*
X143024758Y-74517336D01*
X143024739Y-74517339D01*
X142374363Y-74632604D01*
X142106532Y-74680071D01*
X142105297Y-74680341D01*
X142105294Y-74680342D01*
X141207303Y-74876957D01*
X141194368Y-74879789D01*
X140290953Y-75115953D01*
X139397744Y-75388182D01*
X139176322Y-75465506D01*
X138517398Y-75695612D01*
X138517385Y-75695617D01*
X138516179Y-75696038D01*
X138514985Y-75696510D01*
X138514973Y-75696514D01*
X138299228Y-75781716D01*
X137647680Y-76039025D01*
X136793644Y-76416590D01*
X136792495Y-76417154D01*
X136792491Y-76417156D01*
X136711284Y-76457027D01*
X135955450Y-76828125D01*
X135134446Y-77272966D01*
X134867484Y-77431792D01*
X134333030Y-77749758D01*
X134333014Y-77749768D01*
X134331955Y-77750398D01*
X134330935Y-77751062D01*
X134330920Y-77751071D01*
X133550309Y-78258975D01*
X133549272Y-78259650D01*
X133548278Y-78260355D01*
X133548259Y-78260368D01*
X133048714Y-78614721D01*
X132787656Y-78799903D01*
X132048335Y-79370285D01*
X132047373Y-79371090D01*
X132047364Y-79371098D01*
X131459030Y-79863895D01*
X131332500Y-79969878D01*
X131331555Y-79970736D01*
X131331552Y-79970739D01*
X131232379Y-80060822D01*
X130641305Y-80597716D01*
X129975862Y-81252787D01*
X129337245Y-81934035D01*
X128726482Y-82640364D01*
X128144557Y-83370635D01*
X127592408Y-84123671D01*
X127591690Y-84124737D01*
X127591684Y-84124746D01*
X127457735Y-84323709D01*
X127070925Y-84898259D01*
X126580948Y-85693151D01*
X126580336Y-85694239D01*
X126580325Y-85694258D01*
X126123875Y-86505981D01*
X126123265Y-86507066D01*
X125698615Y-87338694D01*
X125307682Y-88186693D01*
X124951096Y-89049698D01*
X124950661Y-89050883D01*
X124950660Y-89050886D01*
X124632197Y-89918781D01*
X124629431Y-89926318D01*
X124343205Y-90815141D01*
X124092880Y-91714735D01*
X123878859Y-92623650D01*
X123878626Y-92624855D01*
X123878622Y-92624873D01*
X123701727Y-93539181D01*
X123701487Y-93540422D01*
X123701299Y-93541655D01*
X123701297Y-93541669D01*
X123664935Y-93780689D01*
X123561049Y-94463573D01*
X123457772Y-95391617D01*
X123391823Y-96323058D01*
X123363307Y-97256395D01*
X122353907Y-97256395D01*
X122381529Y-97046590D01*
X122383156Y-96980000D01*
X122364852Y-96757361D01*
X122310431Y-96540702D01*
X122221354Y-96335840D01*
X122100014Y-96148277D01*
X121949670Y-95983051D01*
X121945619Y-95979852D01*
X121945615Y-95979848D01*
X121778414Y-95847800D01*
X121778410Y-95847798D01*
X121774359Y-95844598D01*
X121738028Y-95824542D01*
X121722136Y-95815769D01*
X121578789Y-95736638D01*
X121573920Y-95734914D01*
X121573916Y-95734912D01*
X121373087Y-95663795D01*
X121373083Y-95663794D01*
X121368212Y-95662069D01*
X121363119Y-95661162D01*
X121363116Y-95661161D01*
X121153373Y-95623800D01*
X121153367Y-95623799D01*
X121148284Y-95622894D01*
X121074452Y-95621992D01*
X120930081Y-95620228D01*
X120930079Y-95620228D01*
X120924911Y-95620165D01*
X120704091Y-95653955D01*
X120491756Y-95723357D01*
X120293607Y-95826507D01*
X120289474Y-95829610D01*
X120289471Y-95829612D01*
X120265247Y-95847800D01*
X120114965Y-95960635D01*
X119960629Y-96122138D01*
X119853201Y-96279621D01*
X119798293Y-96324621D01*
X119727768Y-96332792D01*
X119664021Y-96301538D01*
X119643324Y-96277054D01*
X119562822Y-96152617D01*
X119562820Y-96152614D01*
X119560014Y-96148277D01*
X119409670Y-95983051D01*
X119405619Y-95979852D01*
X119405615Y-95979848D01*
X119238414Y-95847800D01*
X119238410Y-95847798D01*
X119234359Y-95844598D01*
X119198028Y-95824542D01*
X119182136Y-95815769D01*
X119038789Y-95736638D01*
X119033920Y-95734914D01*
X119033916Y-95734912D01*
X118833087Y-95663795D01*
X118833083Y-95663794D01*
X118828212Y-95662069D01*
X118823119Y-95661162D01*
X118823116Y-95661161D01*
X118613373Y-95623800D01*
X118613367Y-95623799D01*
X118608284Y-95622894D01*
X118534452Y-95621992D01*
X118390081Y-95620228D01*
X118390079Y-95620228D01*
X118384911Y-95620165D01*
X118164091Y-95653955D01*
X117951756Y-95723357D01*
X117753607Y-95826507D01*
X117749474Y-95829610D01*
X117749471Y-95829612D01*
X117725247Y-95847800D01*
X117574965Y-95960635D01*
X117420629Y-96122138D01*
X117313201Y-96279621D01*
X117258293Y-96324621D01*
X117187768Y-96332792D01*
X117124021Y-96301538D01*
X117103324Y-96277054D01*
X117022822Y-96152617D01*
X117022820Y-96152614D01*
X117020014Y-96148277D01*
X116869670Y-95983051D01*
X116865619Y-95979852D01*
X116865615Y-95979848D01*
X116698414Y-95847800D01*
X116698410Y-95847798D01*
X116694359Y-95844598D01*
X116658028Y-95824542D01*
X116642136Y-95815769D01*
X116498789Y-95736638D01*
X116493920Y-95734914D01*
X116493916Y-95734912D01*
X116293087Y-95663795D01*
X116293083Y-95663794D01*
X116288212Y-95662069D01*
X116283119Y-95661162D01*
X116283116Y-95661161D01*
X116073373Y-95623800D01*
X116073367Y-95623799D01*
X116068284Y-95622894D01*
X115994452Y-95621992D01*
X115850081Y-95620228D01*
X115850079Y-95620228D01*
X115844911Y-95620165D01*
X115624091Y-95653955D01*
X115411756Y-95723357D01*
X115213607Y-95826507D01*
X115209474Y-95829610D01*
X115209471Y-95829612D01*
X115185247Y-95847800D01*
X115034965Y-95960635D01*
X114880629Y-96122138D01*
X114773204Y-96279618D01*
X114772898Y-96280066D01*
X114717987Y-96325069D01*
X114647462Y-96333240D01*
X114583715Y-96301986D01*
X114563018Y-96277502D01*
X114482426Y-96152926D01*
X114476136Y-96144757D01*
X114332806Y-95987240D01*
X114325273Y-95980215D01*
X114158139Y-95848222D01*
X114149552Y-95842517D01*
X113963117Y-95739599D01*
X113953705Y-95735369D01*
X113752959Y-95664280D01*
X113742988Y-95661646D01*
X113671837Y-95648972D01*
X113658540Y-95650432D01*
X113654000Y-95664989D01*
X113654000Y-100838517D01*
X113146000Y-100838517D01*
X113146000Y-95663102D01*
X113142082Y-95649758D01*
X113127806Y-95647771D01*
X113089324Y-95653660D01*
X113079288Y-95656051D01*
X112876868Y-95722212D01*
X112867359Y-95726209D01*
X112678463Y-95824542D01*
X112669738Y-95830036D01*
X112499433Y-95957905D01*
X112491726Y-95964748D01*
X112344590Y-96118717D01*
X112338109Y-96126722D01*
X112233498Y-96280074D01*
X112178587Y-96325076D01*
X112108062Y-96333247D01*
X112044315Y-96301993D01*
X112023618Y-96277509D01*
X111942822Y-96152617D01*
X111942820Y-96152614D01*
X111940014Y-96148277D01*
X111789670Y-95983051D01*
X111785619Y-95979852D01*
X111785615Y-95979848D01*
X111618414Y-95847800D01*
X111618410Y-95847798D01*
X111614359Y-95844598D01*
X111578028Y-95824542D01*
X111562136Y-95815769D01*
X111418789Y-95736638D01*
X111413920Y-95734914D01*
X111413916Y-95734912D01*
X111213087Y-95663795D01*
X111213083Y-95663794D01*
X111208212Y-95662069D01*
X111203119Y-95661162D01*
X111203116Y-95661161D01*
X110993373Y-95623800D01*
X110993367Y-95623799D01*
X110988284Y-95622894D01*
X110914452Y-95621992D01*
X110770081Y-95620228D01*
X110770079Y-95620228D01*
X110764911Y-95620165D01*
X110544091Y-95653955D01*
X110331756Y-95723357D01*
X110133607Y-95826507D01*
X110129474Y-95829610D01*
X110129471Y-95829612D01*
X110105247Y-95847800D01*
X109954965Y-95960635D01*
X109800629Y-96122138D01*
X109693201Y-96279621D01*
X109638293Y-96324621D01*
X109567768Y-96332792D01*
X109504021Y-96301538D01*
X109483324Y-96277054D01*
X109402822Y-96152617D01*
X109402820Y-96152614D01*
X109400014Y-96148277D01*
X109249670Y-95983051D01*
X109245619Y-95979852D01*
X109245615Y-95979848D01*
X109078414Y-95847800D01*
X109078410Y-95847798D01*
X109074359Y-95844598D01*
X109038028Y-95824542D01*
X109022136Y-95815769D01*
X108878789Y-95736638D01*
X108873920Y-95734914D01*
X108873916Y-95734912D01*
X108673087Y-95663795D01*
X108673083Y-95663794D01*
X108668212Y-95662069D01*
X108663119Y-95661162D01*
X108663116Y-95661161D01*
X108453373Y-95623800D01*
X108453367Y-95623799D01*
X108448284Y-95622894D01*
X108374452Y-95621992D01*
X108230081Y-95620228D01*
X108230079Y-95620228D01*
X108224911Y-95620165D01*
X108004091Y-95653955D01*
X107791756Y-95723357D01*
X107593607Y-95826507D01*
X107589474Y-95829610D01*
X107589471Y-95829612D01*
X107565247Y-95847800D01*
X107414965Y-95960635D01*
X107260629Y-96122138D01*
X107134743Y-96306680D01*
X107040688Y-96509305D01*
X106980989Y-96724570D01*
X106957251Y-96946695D01*
X103508000Y-96946695D01*
X103508000Y-90297668D01*
X103528002Y-90229547D01*
X103553517Y-90200722D01*
X103606103Y-90157066D01*
X118276494Y-77977874D01*
X125137190Y-77977874D01*
X125153735Y-78264820D01*
X125154560Y-78269025D01*
X125154561Y-78269033D01*
X125179652Y-78396921D01*
X125209070Y-78546865D01*
X125210457Y-78550916D01*
X125295971Y-78800682D01*
X125302171Y-78818792D01*
X125431316Y-79075567D01*
X125433742Y-79079096D01*
X125433745Y-79079102D01*
X125472587Y-79135617D01*
X125594114Y-79312439D01*
X125787553Y-79525026D01*
X125790841Y-79527775D01*
X126004761Y-79706641D01*
X126004766Y-79706645D01*
X126008053Y-79709393D01*
X126126320Y-79783582D01*
X126247895Y-79859846D01*
X126247899Y-79859848D01*
X126251535Y-79862129D01*
X126513493Y-79980407D01*
X126789079Y-80062040D01*
X126793313Y-80062688D01*
X126793318Y-80062689D01*
X127044095Y-80101063D01*
X127073195Y-80105516D01*
X127219580Y-80107815D01*
X127356291Y-80109963D01*
X127356297Y-80109963D01*
X127360582Y-80110030D01*
X127645923Y-80075500D01*
X127923937Y-80002565D01*
X127927897Y-80000925D01*
X127927902Y-80000923D01*
X128070911Y-79941686D01*
X128189481Y-79892573D01*
X128437641Y-79747560D01*
X128663823Y-79570210D01*
X128863844Y-79363804D01*
X128866377Y-79360356D01*
X128866381Y-79360351D01*
X129031464Y-79135617D01*
X129034002Y-79132162D01*
X129171149Y-78879571D01*
X129231272Y-78720458D01*
X129271227Y-78614721D01*
X129271228Y-78614718D01*
X129272745Y-78610703D01*
X129321545Y-78397631D01*
X129335954Y-78334718D01*
X129335955Y-78334714D01*
X129336912Y-78330534D01*
X129343175Y-78260368D01*
X129362243Y-78046715D01*
X129362463Y-78044250D01*
X129362926Y-78000000D01*
X129362757Y-77997519D01*
X129343669Y-77717520D01*
X129343668Y-77717514D01*
X129343377Y-77713243D01*
X129338841Y-77691337D01*
X129285962Y-77435998D01*
X129285091Y-77431792D01*
X129277556Y-77410512D01*
X129190579Y-77164897D01*
X129189148Y-77160856D01*
X129057321Y-76905447D01*
X128892052Y-76670293D01*
X128753040Y-76520698D01*
X128699318Y-76462886D01*
X128699315Y-76462883D01*
X128696397Y-76459743D01*
X128473978Y-76277695D01*
X128228910Y-76127517D01*
X128224993Y-76125798D01*
X128224990Y-76125796D01*
X128108678Y-76074739D01*
X127965728Y-76011989D01*
X127961600Y-76010813D01*
X127961597Y-76010812D01*
X127875693Y-75986342D01*
X127689302Y-75933247D01*
X127685060Y-75932643D01*
X127685054Y-75932642D01*
X127408998Y-75893353D01*
X127404747Y-75892748D01*
X127253246Y-75891955D01*
X127121614Y-75891265D01*
X127121608Y-75891265D01*
X127117328Y-75891243D01*
X127113083Y-75891802D01*
X127113081Y-75891802D01*
X127047784Y-75900399D01*
X126832365Y-75928760D01*
X126555129Y-76004603D01*
X126290752Y-76117369D01*
X126287071Y-76119572D01*
X126047806Y-76262768D01*
X126047802Y-76262771D01*
X126044124Y-76264972D01*
X126040781Y-76267650D01*
X126040777Y-76267653D01*
X126028243Y-76277695D01*
X125819811Y-76444681D01*
X125621963Y-76653170D01*
X125454240Y-76886581D01*
X125319746Y-77140596D01*
X125220971Y-77410512D01*
X125159741Y-77691337D01*
X125137698Y-77971415D01*
X125137190Y-77977874D01*
X118276494Y-77977874D01*
X125020589Y-72379003D01*
X125034671Y-72368866D01*
X125051922Y-72358170D01*
X125059551Y-72353440D01*
X125077496Y-72333440D01*
X125090823Y-72320619D01*
X125188665Y-72239441D01*
X125317925Y-72132195D01*
X125919926Y-71632721D01*
X125923248Y-71630058D01*
X126652850Y-71065213D01*
X143365936Y-71065213D01*
X143368326Y-71073862D01*
X143368327Y-71073866D01*
X143374545Y-71096362D01*
X143377825Y-71112065D01*
X143382405Y-71144045D01*
X143386118Y-71152212D01*
X143386120Y-71152218D01*
X143391865Y-71164853D01*
X143398610Y-71183435D01*
X143403403Y-71200777D01*
X143403408Y-71200791D01*
X143404701Y-71205469D01*
X143409861Y-71216898D01*
X143412519Y-71220968D01*
X143414863Y-71225245D01*
X143414810Y-71225274D01*
X143415689Y-71226769D01*
X143571487Y-71520344D01*
X143581740Y-71539664D01*
X143583538Y-71542344D01*
X143583545Y-71542355D01*
X143642399Y-71630058D01*
X143785487Y-71843287D01*
X143787556Y-71845773D01*
X143787560Y-71845778D01*
X144017329Y-72121823D01*
X144017337Y-72121831D01*
X144019409Y-72124321D01*
X144281021Y-72379780D01*
X144283562Y-72381795D01*
X144283567Y-72381799D01*
X144483011Y-72539927D01*
X144567543Y-72606948D01*
X144875929Y-72803412D01*
X145202903Y-72967083D01*
X145338183Y-73018152D01*
X145541947Y-73095075D01*
X145541954Y-73095077D01*
X145544989Y-73096223D01*
X145548128Y-73097051D01*
X145548135Y-73097053D01*
X145895412Y-73188630D01*
X145898552Y-73189458D01*
X146259836Y-73245799D01*
X146625000Y-73264646D01*
X146990164Y-73245799D01*
X147351448Y-73189458D01*
X147354588Y-73188630D01*
X147701865Y-73097053D01*
X147701872Y-73097051D01*
X147705011Y-73096223D01*
X147708046Y-73095077D01*
X147708053Y-73095075D01*
X147911817Y-73018152D01*
X148047097Y-72967083D01*
X148374071Y-72803412D01*
X148682457Y-72606948D01*
X148766989Y-72539927D01*
X148966433Y-72381799D01*
X148966438Y-72381795D01*
X148968979Y-72379780D01*
X149230591Y-72124321D01*
X149232663Y-72121831D01*
X149232671Y-72121823D01*
X149462440Y-71845778D01*
X149462444Y-71845773D01*
X149464513Y-71843287D01*
X149607601Y-71630058D01*
X149666455Y-71542355D01*
X149666462Y-71542344D01*
X149668260Y-71539664D01*
X149826292Y-71241880D01*
X149829580Y-71236461D01*
X149829499Y-71236414D01*
X149831941Y-71232205D01*
X149834701Y-71228197D01*
X149840139Y-71216898D01*
X149847896Y-71191286D01*
X149854428Y-71174271D01*
X149861983Y-71158179D01*
X149865799Y-71150052D01*
X149870172Y-71121966D01*
X149874081Y-71104832D01*
X149879717Y-71086224D01*
X149879718Y-71086220D01*
X149882319Y-71077631D01*
X149882653Y-71042931D01*
X149882720Y-71041377D01*
X149883000Y-71039577D01*
X149883000Y-71007285D01*
X149883006Y-71006075D01*
X149883660Y-70937946D01*
X149883716Y-70932123D01*
X149883137Y-70930069D01*
X149883000Y-70928011D01*
X149883000Y-67007418D01*
X149883014Y-67005549D01*
X149883931Y-66943764D01*
X149883931Y-66943763D01*
X149884064Y-66934787D01*
X149881674Y-66926138D01*
X149881673Y-66926134D01*
X149875455Y-66903638D01*
X149872175Y-66887935D01*
X149868867Y-66864840D01*
X149867595Y-66855955D01*
X149863882Y-66847788D01*
X149863880Y-66847782D01*
X149858135Y-66835147D01*
X149851390Y-66816565D01*
X149846597Y-66799223D01*
X149846592Y-66799209D01*
X149845299Y-66794531D01*
X149840139Y-66783102D01*
X149837481Y-66779032D01*
X149835137Y-66774755D01*
X149835190Y-66774726D01*
X149834311Y-66773231D01*
X149669781Y-66463202D01*
X149669781Y-66463201D01*
X149668260Y-66460336D01*
X149666462Y-66457656D01*
X149666455Y-66457645D01*
X149466318Y-66159403D01*
X149464513Y-66156713D01*
X149462440Y-66154222D01*
X149232671Y-65878177D01*
X149232663Y-65878169D01*
X149230591Y-65875679D01*
X148968979Y-65620220D01*
X148966438Y-65618205D01*
X148966433Y-65618201D01*
X148684997Y-65395066D01*
X148682457Y-65393052D01*
X148374071Y-65196588D01*
X148047097Y-65032917D01*
X147911817Y-64981848D01*
X147708053Y-64904925D01*
X147708046Y-64904923D01*
X147705011Y-64903777D01*
X147701872Y-64902949D01*
X147701865Y-64902947D01*
X147354588Y-64811370D01*
X147351448Y-64810542D01*
X146990164Y-64754201D01*
X146625000Y-64735354D01*
X146259836Y-64754201D01*
X145898552Y-64810542D01*
X145895412Y-64811370D01*
X145548135Y-64902947D01*
X145548128Y-64902949D01*
X145544989Y-64903777D01*
X145541954Y-64904923D01*
X145541947Y-64904925D01*
X145338183Y-64981848D01*
X145202903Y-65032917D01*
X144875929Y-65196588D01*
X144567543Y-65393052D01*
X144565003Y-65395066D01*
X144283567Y-65618201D01*
X144283562Y-65618205D01*
X144281021Y-65620220D01*
X144019409Y-65875679D01*
X144017337Y-65878169D01*
X144017329Y-65878177D01*
X143787560Y-66154222D01*
X143785487Y-66156713D01*
X143783682Y-66159403D01*
X143583545Y-66457645D01*
X143583538Y-66457656D01*
X143581740Y-66460336D01*
X143580219Y-66463201D01*
X143580219Y-66463202D01*
X143423708Y-66758120D01*
X143420420Y-66763539D01*
X143420501Y-66763586D01*
X143418059Y-66767795D01*
X143415299Y-66771803D01*
X143409861Y-66783102D01*
X143402104Y-66808714D01*
X143395573Y-66825727D01*
X143384201Y-66849948D01*
X143382820Y-66858818D01*
X143379828Y-66878034D01*
X143375919Y-66895168D01*
X143370283Y-66913776D01*
X143370282Y-66913780D01*
X143367681Y-66922369D01*
X143367476Y-66943764D01*
X143367348Y-66957057D01*
X143367280Y-66958623D01*
X143367000Y-66960423D01*
X143367000Y-66992715D01*
X143366994Y-66993925D01*
X143366284Y-67067877D01*
X143366863Y-67069931D01*
X143367000Y-67071989D01*
X143367000Y-70992582D01*
X143366986Y-70994451D01*
X143366814Y-71006075D01*
X143365936Y-71065213D01*
X126652850Y-71065213D01*
X126804158Y-70948073D01*
X126807567Y-70945525D01*
X126961028Y-70834802D01*
X127711001Y-70293690D01*
X127714495Y-70291258D01*
X128639407Y-69670329D01*
X128642980Y-69668016D01*
X129588397Y-69078646D01*
X129592047Y-69076456D01*
X130556808Y-68519370D01*
X130560488Y-68517328D01*
X131543543Y-67993134D01*
X131547288Y-67991217D01*
X132547479Y-67500533D01*
X132551330Y-67498724D01*
X133504518Y-67070416D01*
X133567487Y-67042121D01*
X133571392Y-67040445D01*
X133685042Y-66993925D01*
X133905615Y-66903638D01*
X134602414Y-66618418D01*
X134606381Y-66616872D01*
X135651050Y-66229919D01*
X135655066Y-66228508D01*
X136712228Y-65877056D01*
X136716289Y-65875782D01*
X137442690Y-65661252D01*
X137784695Y-65560247D01*
X137788776Y-65559116D01*
X138149082Y-65465815D01*
X138867275Y-65279839D01*
X138871413Y-65278842D01*
X139421592Y-65156042D01*
X139958711Y-65036158D01*
X139962840Y-65035309D01*
X141057728Y-64829488D01*
X141061886Y-64828778D01*
X142163124Y-64660055D01*
X142167334Y-64659483D01*
X143273596Y-64528058D01*
X143277784Y-64527632D01*
X143727309Y-64489574D01*
X144387896Y-64433647D01*
X144392142Y-64433360D01*
X145243437Y-64390182D01*
X145504740Y-64376929D01*
X145508979Y-64376785D01*
X146323281Y-64363028D01*
X146622872Y-64357967D01*
X146627128Y-64357967D01*
X146926719Y-64363028D01*
G37*
%TD.AperFunction*%
%TD*%
M02*
