%TF.GenerationSoftware,KiCad,Pcbnew,(6.0.0-0)*%
%TF.CreationDate,2022-03-24T13:46:47-04:00*%
%TF.ProjectId,Rotary,526f7461-7279-42e6-9b69-6361645f7063,rev?*%
%TF.SameCoordinates,Original*%
%TF.FileFunction,Copper,L2,Inr*%
%TF.FilePolarity,Positive*%
%FSLAX46Y46*%
G04 Gerber Fmt 4.6, Leading zero omitted, Abs format (unit mm)*
G04 Created by KiCad (PCBNEW (6.0.0-0)) date 2022-03-24 13:46:47*
%MOMM*%
%LPD*%
G01*
G04 APERTURE LIST*
%TA.AperFunction,ComponentPad*%
%ADD10R,1.700000X1.700000*%
%TD*%
%TA.AperFunction,ComponentPad*%
%ADD11O,1.700000X1.700000*%
%TD*%
%TA.AperFunction,ComponentPad*%
%ADD12R,1.836000X1.836000*%
%TD*%
%TA.AperFunction,ComponentPad*%
%ADD13C,1.836000*%
%TD*%
%TA.AperFunction,Conductor*%
%ADD14C,0.500000*%
%TD*%
G04 APERTURE END LIST*
D10*
%TO.N,GND*%
%TO.C,J3*%
X120410000Y-103340000D03*
D11*
%TO.N,RTR_LIMIT*%
X117870000Y-103340000D03*
%TD*%
D12*
%TO.N,RTR_ENB*%
%TO.C,J2*%
X174853250Y-103503500D03*
D13*
%TO.N,LKIT_C*%
X174853250Y-100963500D03*
%TO.N,RTR_ENA*%
X177393250Y-103503500D03*
%TO.N,LKIT_B*%
X177393250Y-100963500D03*
%TO.N,RTR_LIMIT*%
X179933250Y-103503500D03*
%TO.N,LKIT_A*%
X179933250Y-100963500D03*
%TO.N,5V*%
X182473250Y-103503500D03*
%TO.N,GND*%
X182473250Y-100963500D03*
%TO.N,RMOT2*%
X185013250Y-103503500D03*
%TO.N,RMOT1*%
X185013250Y-100963500D03*
%TD*%
D10*
%TO.N,RTR_ENB*%
%TO.C,J1*%
X108320000Y-99520000D03*
D11*
%TO.N,GND*%
X108320000Y-96980000D03*
%TO.N,RTR_ENA*%
X110860000Y-99520000D03*
%TO.N,GND*%
X110860000Y-96980000D03*
%TO.N,5V*%
X113400000Y-99520000D03*
X113400000Y-96980000D03*
%TO.N,GND*%
X115940000Y-99520000D03*
%TO.N,LKIT_A*%
X115940000Y-96980000D03*
%TO.N,RMOT1*%
X118480000Y-99520000D03*
%TO.N,LKIT_B*%
X118480000Y-96980000D03*
%TO.N,RMOT2*%
X121020000Y-99520000D03*
%TO.N,LKIT_C*%
X121020000Y-96980000D03*
%TD*%
D14*
%TO.N,RMOT1*%
X174280000Y-113770000D02*
X162010000Y-126040000D01*
X178070000Y-113770000D02*
X174280000Y-113770000D01*
X121940000Y-117040000D02*
X121940000Y-114540000D01*
X133190000Y-126040000D02*
X129510000Y-122360000D01*
X185013250Y-100963500D02*
X186600000Y-102550250D01*
X127260000Y-122360000D02*
X121940000Y-117040000D01*
X129510000Y-122360000D02*
X127260000Y-122360000D01*
X186600000Y-102550250D02*
X186600000Y-105240000D01*
X186600000Y-105240000D02*
X178070000Y-113770000D01*
X121940000Y-114540000D02*
X114430000Y-107030000D01*
X114430000Y-103570000D02*
X118480000Y-99520000D01*
X114430000Y-107030000D02*
X114430000Y-103570000D01*
X162010000Y-126040000D02*
X133190000Y-126040000D01*
%TO.N,RMOT2*%
X185013250Y-103503500D02*
X176786750Y-111730000D01*
X157310000Y-121850000D02*
X133500000Y-121850000D01*
X133500000Y-121850000D02*
X130170000Y-118520000D01*
X130170000Y-115460000D02*
X123320000Y-108610000D01*
X167430000Y-111730000D02*
X157310000Y-121850000D01*
X123320000Y-101820000D02*
X121020000Y-99520000D01*
X176786750Y-111730000D02*
X167430000Y-111730000D01*
X123320000Y-108610000D02*
X123320000Y-101820000D01*
X130170000Y-118520000D02*
X130170000Y-115460000D01*
%TD*%
M02*
