M48
; DRILL file {KiCad (6.0.0-0)} date Thursday, March 24, 2022 at 01:46:51 PM
; FORMAT={-:-/ absolute / inch / decimal}
; #@! TF.CreationDate,2022-03-24T13:46:51-04:00
; #@! TF.GenerationSoftware,Kicad,Pcbnew,(6.0.0-0)
; #@! TF.FileFunction,Plated,1,4,PTH
FMAT,2
INCH
; #@! TA.AperFunction,Plated,PTH,ComponentDrill
T1C0.0350
; #@! TA.AperFunction,Plated,PTH,ComponentDrill
T2C0.0394
%
G90
G05
T1
X6.884Y-3.9749
X6.884Y-4.0749
X6.984Y-3.9749
X6.984Y-4.0749
X7.084Y-3.9749
X7.084Y-4.0749
X7.184Y-3.9749
X7.184Y-4.0749
X7.284Y-3.9749
X7.284Y-4.0749
T2
X4.2646Y-3.8181
X4.2646Y-3.9181
X4.3646Y-3.8181
X4.3646Y-3.9181
X4.4646Y-3.8181
X4.4646Y-3.9181
X4.5646Y-3.8181
X4.5646Y-3.9181
X4.6406Y-4.0685
X4.6646Y-3.8181
X4.6646Y-3.9181
X4.7406Y-4.0685
X4.7646Y-3.8181
X4.7646Y-3.9181
T0
M30
