M48
; DRILL file {KiCad (6.0.0-0)} date Friday, March 11, 2022 at 04:39:37 PM
; FORMAT={-:-/ absolute / inch / decimal}
; #@! TF.CreationDate,2022-03-11T16:39:37-05:00
; #@! TF.GenerationSoftware,Kicad,Pcbnew,(6.0.0-0)
; #@! TF.FileFunction,Plated,1,4,PTH
FMAT,2
INCH
; #@! TA.AperFunction,Plated,PTH,ComponentDrill
T1C0.0350
; #@! TA.AperFunction,Plated,PTH,ComponentDrill
T2C0.0394
; #@! TA.AperFunction,Plated,PTH,ComponentDrill
T3C0.0402
; #@! TA.AperFunction,Plated,PTH,ComponentDrill
T4C0.0512
; #@! TA.AperFunction,Plated,PTH,ComponentDrill
T5C0.0598
; #@! TA.AperFunction,Plated,PTH,ComponentDrill
T6C0.0945
%
G90
G05
T1
X5.1312Y-2.0088
X5.1312Y-2.1088
X5.2312Y-2.0088
X5.2312Y-2.1088
X5.3312Y-2.0088
X5.3312Y-2.1088
X5.4312Y-2.0088
X5.4312Y-2.1088
X5.5312Y-2.0088
X5.5312Y-2.1088
T2
X3.903Y-1.7335
X4.003Y-1.7335
X4.4573Y-1.7335
X4.5573Y-1.7335
X5.9067Y-1.7337
X5.9067Y-1.8337
X5.9067Y-2.0362
X6.0067Y-1.7337
X6.0067Y-1.8337
X6.0067Y-2.0362
X6.0646Y-2.3016
X6.0646Y-2.4016
X6.0646Y-2.5016
X6.0646Y-2.6016
X6.0646Y-2.7016
X6.0646Y-2.8016
X6.1067Y-1.7337
X6.1067Y-1.8337
X6.1067Y-2.0362
X6.2067Y-1.7337
X6.2067Y-1.8337
X6.2067Y-2.0362
T3
X4.6783Y-2.4042
X4.6783Y-2.5042
X4.6783Y-2.8042
X4.6783Y-2.9042
X4.6783Y-3.0042
X4.6783Y-3.3042
X4.6783Y-3.4042
X4.7783Y-1.9042
X4.7783Y-2.0042
X4.7783Y-2.1042
X4.7783Y-2.2042
X4.7783Y-2.3042
X4.7783Y-2.4042
X4.7783Y-2.5042
X4.7783Y-2.6042
X4.7783Y-2.7042
X4.7783Y-2.8042
X4.7783Y-2.9042
X4.7783Y-3.0042
X4.7783Y-3.1042
X4.7783Y-3.2042
X4.7783Y-3.3042
X4.7783Y-3.4042
X4.7783Y-3.5042
X4.7783Y-3.6042
X4.9886Y-3.0067
X4.9886Y-3.1067
X4.9886Y-3.2067
X4.9886Y-3.3067
X4.9886Y-3.4067
X4.9886Y-3.5067
X4.9886Y-3.6067
X4.9909Y-2.4047
X4.9909Y-2.5047
X4.9909Y-2.6047
X4.9909Y-2.7047
X4.9909Y-2.8047
X5.0886Y-3.0067
X5.0886Y-3.6067
X5.1886Y-3.0067
X5.1886Y-3.2067
X5.1886Y-3.3067
X5.1886Y-3.4067
X5.1886Y-3.6067
X5.2886Y-3.0067
X5.2886Y-3.2067
X5.2886Y-3.3067
X5.2886Y-3.4067
X5.2886Y-3.6067
X5.3886Y-3.0067
X5.3886Y-3.6067
X5.4886Y-3.0067
X5.4886Y-3.6067
X5.5886Y-3.0067
X5.5886Y-3.6067
X5.6886Y-3.0067
X5.6886Y-3.6067
X5.7886Y-3.0067
X5.7886Y-3.5067
X5.7886Y-3.6067
X5.8886Y-3.0067
X5.8886Y-3.5067
X5.8886Y-3.6067
X5.9886Y-3.0067
X5.9886Y-3.5067
X5.9886Y-3.6067
X6.0886Y-3.0067
X6.0886Y-3.5067
X6.0886Y-3.6067
X6.1886Y-3.0567
X6.1886Y-3.1567
X6.1886Y-3.2567
X6.1886Y-3.3567
X6.1886Y-3.4567
X6.1886Y-3.5567
T4
X3.4646Y-1.878
X3.4646Y-2.078
X3.4646Y-2.3878
X3.4646Y-2.5878
X3.4646Y-2.8528
X3.4646Y-3.0528
X3.4646Y-3.3177
X3.4646Y-3.5177
T5
X3.8713Y-2.3912
X3.8713Y-2.5292
X3.8713Y-2.6642
X3.8713Y-2.8022
X3.8713Y-2.9412
X3.8713Y-3.0792
T6
X5.0236Y-2.2657
X5.6535Y-2.7972
T0
M30
