%TF.GenerationSoftware,KiCad,Pcbnew,(6.0.0-0)*%
%TF.CreationDate,2022-03-11T16:39:32-05:00*%
%TF.ProjectId,Lifter-Board-Redone,4c696674-6572-42d4-926f-6172642d5265,rev?*%
%TF.SameCoordinates,Original*%
%TF.FileFunction,Copper,L3,Inr*%
%TF.FilePolarity,Positive*%
%FSLAX46Y46*%
G04 Gerber Fmt 4.6, Leading zero omitted, Abs format (unit mm)*
G04 Created by KiCad (PCBNEW (6.0.0-0)) date 2022-03-11 16:39:32*
%MOMM*%
%LPD*%
G01*
G04 APERTURE LIST*
%TA.AperFunction,ComponentPad*%
%ADD10R,2.500000X2.500000*%
%TD*%
%TA.AperFunction,ComponentPad*%
%ADD11C,2.500000*%
%TD*%
%TA.AperFunction,ComponentPad*%
%ADD12C,1.836000*%
%TD*%
%TA.AperFunction,ComponentPad*%
%ADD13C,2.600000*%
%TD*%
%TA.AperFunction,ComponentPad*%
%ADD14R,1.700000X1.700000*%
%TD*%
%TA.AperFunction,ComponentPad*%
%ADD15O,1.700000X1.700000*%
%TD*%
%TA.AperFunction,ComponentPad*%
%ADD16R,1.836000X1.836000*%
%TD*%
%TA.AperFunction,ComponentPad*%
%ADD17C,2.736000*%
%TD*%
%TA.AperFunction,ComponentPad*%
%ADD18R,2.736000X2.736000*%
%TD*%
%TA.AperFunction,Conductor*%
%ADD19C,0.250000*%
%TD*%
%TA.AperFunction,Conductor*%
%ADD20C,0.500000*%
%TD*%
G04 APERTURE END LIST*
D10*
%TO.N,GND*%
%TO.C,J2*%
X88000000Y-60650000D03*
D11*
%TO.N,5V*%
X88000000Y-65730000D03*
%TD*%
D10*
%TO.N,GND*%
%TO.C,J1*%
X88000000Y-47700000D03*
D11*
%TO.N,12V*%
X88000000Y-52780000D03*
%TD*%
D12*
%TO.N,unconnected-(U1-PadEN)*%
%TO.C,U1*%
X126770000Y-61080000D03*
%TO.N,GND*%
X126770000Y-66160000D03*
X126770000Y-68700000D03*
D11*
%TO.N,N/C*%
X127600000Y-57550000D03*
D13*
X143600000Y-71050000D03*
D12*
%TO.N,12V*%
X126770000Y-63620000D03*
%TO.N,5V*%
X126770000Y-71240000D03*
%TD*%
D14*
%TO.N,LFT_BOT*%
%TO.C,J7*%
X113215000Y-44030000D03*
D15*
%TO.N,GND*%
X115755000Y-44030000D03*
%TD*%
D12*
%TO.N,LFT_ENA*%
%TO.C,J$1*%
X144490000Y-76370000D03*
%TO.N,RTR_ENA*%
X141950000Y-76370000D03*
%TO.N,LFT_ENB*%
X139410000Y-76370000D03*
%TO.N,RTR_ENB*%
X136870000Y-76370000D03*
%TO.N,RTR_LIMIT*%
X134330000Y-76370000D03*
%TO.N,M1PWM2*%
X131790000Y-76370000D03*
%TO.N,M1IN1*%
X129250000Y-76370000D03*
%TO.N,M1IN2*%
X126710000Y-76370000D03*
%TO.N,M2PWM2*%
X126710000Y-78910000D03*
%TO.N,M2IN1*%
X126710000Y-81450000D03*
%TO.N,M2IN2*%
X126710000Y-83990000D03*
%TO.N,MOTOR_EN*%
X126710000Y-91610000D03*
%TO.N,M1FB*%
X129250000Y-91610000D03*
%TO.N,LKIT_A*%
X131790000Y-91610000D03*
%TO.N,LKIT_B*%
X134330000Y-91610000D03*
%TO.N,LKIT_C*%
X136870000Y-91610000D03*
%TO.N,SDA*%
X139410000Y-91610000D03*
%TO.N,SCL*%
X141950000Y-91610000D03*
%TO.N,M2FB*%
X144490000Y-91610000D03*
%TO.N,M1SF*%
X147030000Y-91610000D03*
%TO.N,LFT_BOT*%
X126710000Y-86530000D03*
%TO.N,LFT_TOP*%
X126710000Y-89070000D03*
%TO.N,unconnected-(J$1-PadAREF)*%
X147030000Y-89070000D03*
%TO.N,12V*%
X154650000Y-91610000D03*
%TO.N,unconnected-(J$1-PadDTR)*%
X157190000Y-90340000D03*
D16*
%TO.N,GND*%
X154650000Y-76370000D03*
%TO.N,unconnected-(J$1-PadGND1)*%
X157190000Y-80180000D03*
%TO.N,unconnected-(J$1-PadGND2)*%
X157190000Y-77640000D03*
%TO.N,unconnected-(J$1-PadGND3)*%
X152110000Y-89070000D03*
%TO.N,GND*%
X152110000Y-91610000D03*
%TO.N,unconnected-(J$1-PadGND5)*%
X134330000Y-86530000D03*
D12*
%TO.N,unconnected-(J$1-PadMISO)*%
X131790000Y-81450000D03*
%TO.N,unconnected-(J$1-PadMOSI)*%
X134330000Y-83990000D03*
%TO.N,unconnected-(J$1-PadRESET1)*%
X152110000Y-76370000D03*
%TO.N,unconnected-(J$1-PadRESET2)*%
X131790000Y-86530000D03*
%TO.N,RX*%
X149570000Y-76370000D03*
%TO.N,unconnected-(J$1-PadRXD0_1)*%
X157190000Y-85260000D03*
%TO.N,unconnected-(J$1-PadSCK)*%
X131790000Y-83990000D03*
%TO.N,TX*%
X147030000Y-76370000D03*
%TO.N,unconnected-(J$1-PadTXD0_1)*%
X157190000Y-87800000D03*
%TO.N,unconnected-(J$1-PadVCC1)*%
X149570000Y-89070000D03*
%TO.N,unconnected-(J$1-PadVCC2)*%
X149570000Y-91610000D03*
%TO.N,unconnected-(J$1-PadVCC3)*%
X134330000Y-81450000D03*
%TO.N,unconnected-(J$1-PadVCCIN)*%
X157190000Y-82720000D03*
%TO.N,unconnected-(J$1-PadVIN)*%
X154650000Y-89070000D03*
%TD*%
D14*
%TO.N,LFT_TOP*%
%TO.C,J8*%
X101675000Y-44030000D03*
D15*
%TO.N,GND*%
X99135000Y-44030000D03*
%TD*%
D14*
%TO.N,GND*%
%TO.C,J9*%
X150030000Y-51720000D03*
D15*
%TO.N,5V*%
X152570000Y-51720000D03*
%TO.N,TX*%
X155110000Y-51720000D03*
%TO.N,RX*%
X157650000Y-51720000D03*
%TD*%
D10*
%TO.N,GND*%
%TO.C,J4*%
X88000000Y-84270000D03*
D11*
%TO.N,5V*%
X88000000Y-89350000D03*
%TD*%
D14*
%TO.N,LFT_ENB*%
%TO.C,Lifter1*%
X154040000Y-58460000D03*
D15*
%TO.N,LFT_ENA*%
X154040000Y-61000000D03*
%TO.N,5V*%
X154040000Y-63540000D03*
%TO.N,GND*%
X154040000Y-66080000D03*
%TO.N,LMOT1*%
X154040000Y-68620000D03*
%TO.N,LMOT2*%
X154040000Y-71160000D03*
%TD*%
D14*
%TO.N,GND*%
%TO.C,J6*%
X150030000Y-46575000D03*
D15*
X150030000Y-44035000D03*
%TO.N,5V*%
X152570000Y-46575000D03*
X152570000Y-44035000D03*
%TO.N,SCL*%
X155110000Y-46575000D03*
X155110000Y-44035000D03*
%TO.N,SDA*%
X157650000Y-46575000D03*
X157650000Y-44035000D03*
%TD*%
D10*
%TO.N,GND*%
%TO.C,J3*%
X88000000Y-72460000D03*
D11*
%TO.N,5V*%
X88000000Y-77540000D03*
%TD*%
D16*
%TO.N,RMOT1*%
%TO.C,J5*%
X130333250Y-53563500D03*
D12*
%TO.N,RMOT2*%
X130333250Y-51023500D03*
%TO.N,GND*%
X132873250Y-53563500D03*
%TO.N,5V*%
X132873250Y-51023500D03*
%TO.N,LKIT_A*%
X135413250Y-53563500D03*
%TO.N,RTR_LIMIT*%
X135413250Y-51023500D03*
%TO.N,LKIT_B*%
X137953250Y-53563500D03*
%TO.N,RTR_ENA*%
X137953250Y-51023500D03*
%TO.N,LKIT_C*%
X140493250Y-53563500D03*
%TO.N,RTR_ENB*%
X140493250Y-51023500D03*
%TD*%
%TO.N,MOTOR_EN*%
%TO.C,U$1*%
X121370000Y-71226500D03*
D16*
%TO.N,GND*%
X121370000Y-50906500D03*
X118830000Y-86466500D03*
X118830000Y-63606500D03*
D12*
%TO.N,unconnected-(U$1-PadINV)*%
X121370000Y-76306500D03*
%TO.N,M1FB*%
X121370000Y-68686500D03*
%TO.N,M1IN1*%
X121370000Y-58526500D03*
%TO.N,M1IN2*%
X121370000Y-55986500D03*
D17*
%TO.N,LMOT1*%
X98332200Y-60736300D03*
%TO.N,LMOT2*%
X98332200Y-64241500D03*
D12*
%TO.N,GND*%
X121370000Y-63606500D03*
%TO.N,M1PWM2*%
X121370000Y-61066500D03*
%TO.N,M1SF*%
X121370000Y-66146500D03*
%TO.N,M2FB*%
X121370000Y-91546500D03*
%TO.N,M2IN1*%
X121370000Y-81386500D03*
%TO.N,M2IN2*%
X121370000Y-78846500D03*
D17*
%TO.N,RMOT1*%
X98332200Y-74706300D03*
%TO.N,RMOT2*%
X98332200Y-78211500D03*
D12*
%TO.N,GND*%
X121370000Y-86466500D03*
%TO.N,M2PWM2*%
X121370000Y-83926500D03*
%TO.N,unconnected-(U$1-PadM2SF)*%
X121370000Y-89006500D03*
D18*
%TO.N,GND*%
X98332200Y-67670500D03*
D17*
%TO.N,12V*%
X98332200Y-71175700D03*
D12*
%TO.N,unconnected-(U$1-PadSLEW)*%
X121370000Y-73766500D03*
%TO.N,5V*%
X121370000Y-53446500D03*
X118830000Y-83926500D03*
X118830000Y-76306500D03*
X118830000Y-73766500D03*
X118830000Y-71226500D03*
X118830000Y-61066500D03*
%TO.N,12V*%
X121370000Y-48366500D03*
%TD*%
D19*
%TO.N,LFT_ENA*%
X154040000Y-61000000D02*
X151155994Y-63884006D01*
X151155994Y-69273028D02*
X144490000Y-75939022D01*
X151155994Y-63884006D02*
X151155994Y-69273028D01*
X144490000Y-75939022D02*
X144490000Y-76370000D01*
%TO.N,RTR_ENA*%
X137953250Y-51023500D02*
X136680000Y-52296750D01*
X136680000Y-71100000D02*
X141950000Y-76370000D01*
X136680000Y-52296750D02*
X136680000Y-71100000D01*
%TO.N,RTR_LIMIT*%
X134140000Y-76180000D02*
X134330000Y-76370000D01*
X135413250Y-51023500D02*
X134140000Y-52296750D01*
X134140000Y-52296750D02*
X134140000Y-76180000D01*
%TO.N,MOTOR_EN*%
X124740000Y-74596500D02*
X124740000Y-89640000D01*
X124740000Y-89640000D02*
X126710000Y-91610000D01*
X121370000Y-71226500D02*
X124740000Y-74596500D01*
%TO.N,M1FB*%
X129250000Y-79100000D02*
X129250000Y-91610000D01*
X121370000Y-68686500D02*
X125240000Y-72556500D01*
X125240000Y-76850000D02*
X126002511Y-77612511D01*
X125240000Y-72556500D02*
X125240000Y-76850000D01*
X127762511Y-77612511D02*
X129250000Y-79100000D01*
X126002511Y-77612511D02*
X127762511Y-77612511D01*
%TO.N,SDA*%
X157650000Y-44035000D02*
X157650000Y-46575000D01*
%TO.N,SCL*%
X155110000Y-44035000D02*
X155110000Y-46575000D01*
%TO.N,M2FB*%
X123353500Y-93530000D02*
X142570000Y-93530000D01*
X121370000Y-91546500D02*
X123353500Y-93530000D01*
X142570000Y-93530000D02*
X144490000Y-91610000D01*
%TO.N,M1SF*%
X128712823Y-74940000D02*
X129950000Y-74940000D01*
X130510000Y-76890000D02*
X133550000Y-79930000D01*
X122612511Y-67389011D02*
X122612511Y-68839688D01*
X133550000Y-79930000D02*
X135350000Y-79930000D01*
X129950000Y-74940000D02*
X130510000Y-75500000D01*
X135350000Y-79930000D02*
X147030000Y-91610000D01*
X130510000Y-75500000D02*
X130510000Y-76890000D01*
X121370000Y-66146500D02*
X122612511Y-67389011D01*
X122612511Y-68839688D02*
X128712823Y-74940000D01*
D20*
%TO.N,12V*%
X109980000Y-59756500D02*
X121370000Y-48366500D01*
X103084300Y-71175700D02*
X109980000Y-64280000D01*
X98332200Y-71175700D02*
X103084300Y-71175700D01*
X109980000Y-64280000D02*
X109980000Y-59756500D01*
%TD*%
M02*
