%TF.GenerationSoftware,KiCad,Pcbnew,(6.0.0-0)*%
%TF.CreationDate,2022-03-11T16:39:33-05:00*%
%TF.ProjectId,Lifter-Board-Redone,4c696674-6572-42d4-926f-6172642d5265,rev?*%
%TF.SameCoordinates,Original*%
%TF.FileFunction,Legend,Top*%
%TF.FilePolarity,Positive*%
%FSLAX46Y46*%
G04 Gerber Fmt 4.6, Leading zero omitted, Abs format (unit mm)*
G04 Created by KiCad (PCBNEW (6.0.0-0)) date 2022-03-11 16:39:33*
%MOMM*%
%LPD*%
G01*
G04 APERTURE LIST*
%ADD10C,0.150000*%
%ADD11C,0.200000*%
%ADD12C,0.075000*%
%ADD13C,0.096520*%
%ADD14C,0.120000*%
%ADD15C,0.010000*%
%ADD16C,0.127000*%
%ADD17C,0.254000*%
G04 APERTURE END LIST*
D10*
X94350000Y-40570000D02*
X80220000Y-40570000D01*
X80220000Y-40570000D02*
X80220000Y-56710000D01*
X80220000Y-56710000D02*
X94350000Y-56710000D01*
X94350000Y-56710000D02*
X94350000Y-40570000D01*
X80410000Y-57060000D02*
X94320000Y-57060000D01*
X94320000Y-57060000D02*
X94320000Y-94790000D01*
X94320000Y-94790000D02*
X80410000Y-94790000D01*
X80410000Y-94790000D02*
X80410000Y-57060000D01*
D11*
X80979047Y-89101428D02*
X81740952Y-89101428D01*
X81360000Y-89482380D02*
X81360000Y-88720476D01*
X80859047Y-84057619D02*
X81620952Y-84057619D01*
D12*
X151296666Y-63116666D02*
X150963333Y-63116666D01*
X150930000Y-63450000D01*
X150963333Y-63416666D01*
X151030000Y-63383333D01*
X151196666Y-63383333D01*
X151263333Y-63416666D01*
X151296666Y-63450000D01*
X151330000Y-63516666D01*
X151330000Y-63683333D01*
X151296666Y-63750000D01*
X151263333Y-63783333D01*
X151196666Y-63816666D01*
X151030000Y-63816666D01*
X150963333Y-63783333D01*
X150930000Y-63750000D01*
X151530000Y-63116666D02*
X151763333Y-63816666D01*
X151996666Y-63116666D01*
D11*
X80909047Y-72707619D02*
X81670952Y-72707619D01*
D12*
X128970000Y-68510000D02*
X128903333Y-68476666D01*
X128803333Y-68476666D01*
X128703333Y-68510000D01*
X128636667Y-68576666D01*
X128603333Y-68643333D01*
X128570000Y-68776666D01*
X128570000Y-68876666D01*
X128603333Y-69010000D01*
X128636667Y-69076666D01*
X128703333Y-69143333D01*
X128803333Y-69176666D01*
X128870000Y-69176666D01*
X128970000Y-69143333D01*
X129003333Y-69110000D01*
X129003333Y-68876666D01*
X128870000Y-68876666D01*
X109854285Y-41678571D02*
X109997142Y-41726190D01*
X110044761Y-41773809D01*
X110092380Y-41869047D01*
X110092380Y-42011904D01*
X110044761Y-42107142D01*
X109997142Y-42154761D01*
X109901904Y-42202380D01*
X109520952Y-42202380D01*
X109520952Y-41202380D01*
X109854285Y-41202380D01*
X109949523Y-41250000D01*
X109997142Y-41297619D01*
X110044761Y-41392857D01*
X110044761Y-41488095D01*
X109997142Y-41583333D01*
X109949523Y-41630952D01*
X109854285Y-41678571D01*
X109520952Y-41678571D01*
X110663809Y-42202380D02*
X110568571Y-42154761D01*
X110520952Y-42107142D01*
X110473333Y-42011904D01*
X110473333Y-41726190D01*
X110520952Y-41630952D01*
X110568571Y-41583333D01*
X110663809Y-41535714D01*
X110806666Y-41535714D01*
X110901904Y-41583333D01*
X110949523Y-41630952D01*
X110997142Y-41726190D01*
X110997142Y-42011904D01*
X110949523Y-42107142D01*
X110901904Y-42154761D01*
X110806666Y-42202380D01*
X110663809Y-42202380D01*
X111282857Y-41535714D02*
X111663809Y-41535714D01*
X111425714Y-41202380D02*
X111425714Y-42059523D01*
X111473333Y-42154761D01*
X111568571Y-42202380D01*
X111663809Y-42202380D01*
X111854285Y-41535714D02*
X112235238Y-41535714D01*
X111997142Y-41202380D02*
X111997142Y-42059523D01*
X112044761Y-42154761D01*
X112140000Y-42202380D01*
X112235238Y-42202380D01*
X112711428Y-42202380D02*
X112616190Y-42154761D01*
X112568571Y-42107142D01*
X112520952Y-42011904D01*
X112520952Y-41726190D01*
X112568571Y-41630952D01*
X112616190Y-41583333D01*
X112711428Y-41535714D01*
X112854285Y-41535714D01*
X112949523Y-41583333D01*
X112997142Y-41630952D01*
X113044761Y-41726190D01*
X113044761Y-42011904D01*
X112997142Y-42107142D01*
X112949523Y-42154761D01*
X112854285Y-42202380D01*
X112711428Y-42202380D01*
X113473333Y-42202380D02*
X113473333Y-41535714D01*
X113473333Y-41630952D02*
X113520952Y-41583333D01*
X113616190Y-41535714D01*
X113759047Y-41535714D01*
X113854285Y-41583333D01*
X113901904Y-41678571D01*
X113901904Y-42202380D01*
X113901904Y-41678571D02*
X113949523Y-41583333D01*
X114044761Y-41535714D01*
X114187619Y-41535714D01*
X114282857Y-41583333D01*
X114330476Y-41678571D01*
X114330476Y-42202380D01*
X116044761Y-42202380D02*
X115568571Y-42202380D01*
X115568571Y-41202380D01*
X116378095Y-42202380D02*
X116378095Y-41535714D01*
X116378095Y-41202380D02*
X116330476Y-41250000D01*
X116378095Y-41297619D01*
X116425714Y-41250000D01*
X116378095Y-41202380D01*
X116378095Y-41297619D01*
X116854285Y-42202380D02*
X116854285Y-41535714D01*
X116854285Y-41630952D02*
X116901904Y-41583333D01*
X116997142Y-41535714D01*
X117140000Y-41535714D01*
X117235238Y-41583333D01*
X117282857Y-41678571D01*
X117282857Y-42202380D01*
X117282857Y-41678571D02*
X117330476Y-41583333D01*
X117425714Y-41535714D01*
X117568571Y-41535714D01*
X117663809Y-41583333D01*
X117711428Y-41678571D01*
X117711428Y-42202380D01*
X118187619Y-42202380D02*
X118187619Y-41535714D01*
X118187619Y-41202380D02*
X118140000Y-41250000D01*
X118187619Y-41297619D01*
X118235238Y-41250000D01*
X118187619Y-41202380D01*
X118187619Y-41297619D01*
X118520952Y-41535714D02*
X118901904Y-41535714D01*
X118663809Y-41202380D02*
X118663809Y-42059523D01*
X118711428Y-42154761D01*
X118806666Y-42202380D01*
X118901904Y-42202380D01*
X157556666Y-40650000D02*
X157523333Y-40750000D01*
X157523333Y-40916666D01*
X157556666Y-40983333D01*
X157590000Y-41016666D01*
X157656666Y-41050000D01*
X157723333Y-41050000D01*
X157790000Y-41016666D01*
X157823333Y-40983333D01*
X157856666Y-40916666D01*
X157890000Y-40783333D01*
X157923333Y-40716666D01*
X157956666Y-40683333D01*
X158023333Y-40650000D01*
X158090000Y-40650000D01*
X158156666Y-40683333D01*
X158190000Y-40716666D01*
X158223333Y-40783333D01*
X158223333Y-40950000D01*
X158190000Y-41050000D01*
X157523333Y-41350000D02*
X158223333Y-41350000D01*
X158223333Y-41516666D01*
X158190000Y-41616666D01*
X158123333Y-41683333D01*
X158056666Y-41716666D01*
X157923333Y-41750000D01*
X157823333Y-41750000D01*
X157690000Y-41716666D01*
X157623333Y-41683333D01*
X157556666Y-41616666D01*
X157523333Y-41516666D01*
X157523333Y-41350000D01*
X157723333Y-42016666D02*
X157723333Y-42350000D01*
X157523333Y-41950000D02*
X158223333Y-42183333D01*
X157523333Y-42416666D01*
X152953333Y-53736666D02*
X152953333Y-53403333D01*
X152620000Y-53370000D01*
X152653333Y-53403333D01*
X152686666Y-53470000D01*
X152686666Y-53636666D01*
X152653333Y-53703333D01*
X152620000Y-53736666D01*
X152553333Y-53770000D01*
X152386666Y-53770000D01*
X152320000Y-53736666D01*
X152286666Y-53703333D01*
X152253333Y-53636666D01*
X152253333Y-53470000D01*
X152286666Y-53403333D01*
X152320000Y-53370000D01*
X152953333Y-53970000D02*
X152253333Y-54203333D01*
X152953333Y-54436666D01*
X155583333Y-53303333D02*
X155583333Y-53703333D01*
X154883333Y-53503333D02*
X155583333Y-53503333D01*
X154883333Y-53870000D02*
X155350000Y-54236667D01*
X155350000Y-53870000D02*
X154883333Y-54236667D01*
X150843333Y-68796666D02*
X150843333Y-68096666D01*
X151076666Y-68596666D01*
X151310000Y-68096666D01*
X151310000Y-68796666D01*
X152010000Y-68796666D02*
X151610000Y-68796666D01*
X151810000Y-68796666D02*
X151810000Y-68096666D01*
X151743333Y-68196666D01*
X151676666Y-68263333D01*
X151610000Y-68296666D01*
X128503333Y-63256666D02*
X128736666Y-63956666D01*
X128970000Y-63256666D01*
X129203333Y-63956666D02*
X129203333Y-63256666D01*
X129536666Y-63956666D02*
X129536666Y-63256666D01*
X129936666Y-63956666D01*
X129936666Y-63256666D01*
D11*
X81029047Y-77751428D02*
X81790952Y-77751428D01*
X81410000Y-78132380D02*
X81410000Y-77370476D01*
D12*
X150453333Y-58150000D02*
X150686666Y-58150000D01*
X150786666Y-58516666D02*
X150453333Y-58516666D01*
X150453333Y-57816666D01*
X150786666Y-57816666D01*
X151086666Y-58516666D02*
X151086666Y-57816666D01*
X151486666Y-58516666D01*
X151486666Y-57816666D01*
X152053333Y-58150000D02*
X152153333Y-58183333D01*
X152186666Y-58216666D01*
X152220000Y-58283333D01*
X152220000Y-58383333D01*
X152186666Y-58450000D01*
X152153333Y-58483333D01*
X152086666Y-58516666D01*
X151820000Y-58516666D01*
X151820000Y-57816666D01*
X152053333Y-57816666D01*
X152120000Y-57850000D01*
X152153333Y-57883333D01*
X152186666Y-57950000D01*
X152186666Y-58016666D01*
X152153333Y-58083333D01*
X152120000Y-58116666D01*
X152053333Y-58150000D01*
X151820000Y-58150000D01*
X128603333Y-60910000D02*
X128836666Y-60910000D01*
X128936666Y-61276666D02*
X128603333Y-61276666D01*
X128603333Y-60576666D01*
X128936666Y-60576666D01*
X129236666Y-60810000D02*
X129236666Y-61276666D01*
X129236666Y-60876666D02*
X129270000Y-60843333D01*
X129336666Y-60810000D01*
X129436666Y-60810000D01*
X129503333Y-60843333D01*
X129536666Y-60910000D01*
X129536666Y-61276666D01*
D11*
X86626666Y-92902380D02*
X86150476Y-92902380D01*
X86102857Y-93378571D01*
X86150476Y-93330952D01*
X86245714Y-93283333D01*
X86483809Y-93283333D01*
X86579047Y-93330952D01*
X86626666Y-93378571D01*
X86674285Y-93473809D01*
X86674285Y-93711904D01*
X86626666Y-93807142D01*
X86579047Y-93854761D01*
X86483809Y-93902380D01*
X86245714Y-93902380D01*
X86150476Y-93854761D01*
X86102857Y-93807142D01*
X86960000Y-92902380D02*
X87293333Y-93902380D01*
X87626666Y-92902380D01*
X88912380Y-92902380D02*
X89102857Y-92902380D01*
X89198095Y-92950000D01*
X89293333Y-93045238D01*
X89340952Y-93235714D01*
X89340952Y-93569047D01*
X89293333Y-93759523D01*
X89198095Y-93854761D01*
X89102857Y-93902380D01*
X88912380Y-93902380D01*
X88817142Y-93854761D01*
X88721904Y-93759523D01*
X88674285Y-93569047D01*
X88674285Y-93235714D01*
X88721904Y-93045238D01*
X88817142Y-92950000D01*
X88912380Y-92902380D01*
X90198095Y-93235714D02*
X90198095Y-93902380D01*
X89769523Y-93235714D02*
X89769523Y-93759523D01*
X89817142Y-93854761D01*
X89912380Y-93902380D01*
X90055238Y-93902380D01*
X90150476Y-93854761D01*
X90198095Y-93807142D01*
X90531428Y-93235714D02*
X90912380Y-93235714D01*
X90674285Y-92902380D02*
X90674285Y-93759523D01*
X90721904Y-93854761D01*
X90817142Y-93902380D01*
X90912380Y-93902380D01*
D12*
X154876666Y-40683333D02*
X154843333Y-40783333D01*
X154843333Y-40950000D01*
X154876666Y-41016667D01*
X154910000Y-41050000D01*
X154976666Y-41083333D01*
X155043333Y-41083333D01*
X155110000Y-41050000D01*
X155143333Y-41016667D01*
X155176666Y-40950000D01*
X155210000Y-40816667D01*
X155243333Y-40750000D01*
X155276666Y-40716667D01*
X155343333Y-40683333D01*
X155410000Y-40683333D01*
X155476666Y-40716667D01*
X155510000Y-40750000D01*
X155543333Y-40816667D01*
X155543333Y-40983333D01*
X155510000Y-41083333D01*
X154910000Y-41783333D02*
X154876666Y-41750000D01*
X154843333Y-41650000D01*
X154843333Y-41583333D01*
X154876666Y-41483333D01*
X154943333Y-41416667D01*
X155010000Y-41383333D01*
X155143333Y-41350000D01*
X155243333Y-41350000D01*
X155376666Y-41383333D01*
X155443333Y-41416667D01*
X155510000Y-41483333D01*
X155543333Y-41583333D01*
X155543333Y-41650000D01*
X155510000Y-41750000D01*
X155476666Y-41783333D01*
X154843333Y-42416667D02*
X154843333Y-42083333D01*
X155543333Y-42083333D01*
X151543333Y-65720000D02*
X151476666Y-65686666D01*
X151376666Y-65686666D01*
X151276666Y-65720000D01*
X151210000Y-65786666D01*
X151176666Y-65853333D01*
X151143333Y-65986666D01*
X151143333Y-66086666D01*
X151176666Y-66220000D01*
X151210000Y-66286666D01*
X151276666Y-66353333D01*
X151376666Y-66386666D01*
X151443333Y-66386666D01*
X151543333Y-66353333D01*
X151576666Y-66320000D01*
X151576666Y-66086666D01*
X151443333Y-66086666D01*
X128963333Y-65930000D02*
X128896666Y-65896666D01*
X128796666Y-65896666D01*
X128696666Y-65930000D01*
X128630000Y-65996666D01*
X128596666Y-66063333D01*
X128563333Y-66196666D01*
X128563333Y-66296666D01*
X128596666Y-66430000D01*
X128630000Y-66496666D01*
X128696666Y-66563333D01*
X128796666Y-66596666D01*
X128863333Y-66596666D01*
X128963333Y-66563333D01*
X128996666Y-66530000D01*
X128996666Y-66296666D01*
X128863333Y-66296666D01*
X157563333Y-53803333D02*
X157896666Y-53570000D01*
X157563333Y-53403333D02*
X158263333Y-53403333D01*
X158263333Y-53670000D01*
X158230000Y-53736666D01*
X158196666Y-53770000D01*
X158130000Y-53803333D01*
X158030000Y-53803333D01*
X157963333Y-53770000D01*
X157930000Y-53736666D01*
X157896666Y-53670000D01*
X157896666Y-53403333D01*
X157563333Y-54036666D02*
X158030000Y-54403333D01*
X158030000Y-54036666D02*
X157563333Y-54403333D01*
X128936666Y-70866666D02*
X128603333Y-70866666D01*
X128570000Y-71200000D01*
X128603333Y-71166666D01*
X128670000Y-71133333D01*
X128836666Y-71133333D01*
X128903333Y-71166666D01*
X128936666Y-71200000D01*
X128970000Y-71266666D01*
X128970000Y-71433333D01*
X128936666Y-71500000D01*
X128903333Y-71533333D01*
X128836666Y-71566666D01*
X128670000Y-71566666D01*
X128603333Y-71533333D01*
X128570000Y-71500000D01*
X129170000Y-70866666D02*
X129403333Y-71566666D01*
X129636666Y-70866666D01*
X130536666Y-70866666D02*
X130670000Y-70866666D01*
X130736666Y-70900000D01*
X130803333Y-70966666D01*
X130836666Y-71100000D01*
X130836666Y-71333333D01*
X130803333Y-71466666D01*
X130736666Y-71533333D01*
X130670000Y-71566666D01*
X130536666Y-71566666D01*
X130470000Y-71533333D01*
X130403333Y-71466666D01*
X130370000Y-71333333D01*
X130370000Y-71100000D01*
X130403333Y-70966666D01*
X130470000Y-70900000D01*
X130536666Y-70866666D01*
X131436666Y-71100000D02*
X131436666Y-71566666D01*
X131136666Y-71100000D02*
X131136666Y-71466666D01*
X131170000Y-71533333D01*
X131236666Y-71566666D01*
X131336666Y-71566666D01*
X131403333Y-71533333D01*
X131436666Y-71500000D01*
X131670000Y-71100000D02*
X131936666Y-71100000D01*
X131770000Y-70866666D02*
X131770000Y-71466666D01*
X131803333Y-71533333D01*
X131870000Y-71566666D01*
X131936666Y-71566666D01*
X85798095Y-43872380D02*
X85226666Y-43872380D01*
X85512380Y-43872380D02*
X85512380Y-42872380D01*
X85417142Y-43015238D01*
X85321904Y-43110476D01*
X85226666Y-43158095D01*
X86179047Y-42967619D02*
X86226666Y-42920000D01*
X86321904Y-42872380D01*
X86560000Y-42872380D01*
X86655238Y-42920000D01*
X86702857Y-42967619D01*
X86750476Y-43062857D01*
X86750476Y-43158095D01*
X86702857Y-43300952D01*
X86131428Y-43872380D01*
X86750476Y-43872380D01*
X87036190Y-42872380D02*
X87369523Y-43872380D01*
X87702857Y-42872380D01*
X88798095Y-43872380D02*
X88798095Y-42872380D01*
X89274285Y-43872380D02*
X89274285Y-42872380D01*
X89845714Y-43872380D01*
X89845714Y-42872380D01*
X155006666Y-55252380D02*
X155244761Y-56252380D01*
X155435238Y-55538095D01*
X155625714Y-56252380D01*
X155863809Y-55252380D01*
X156244761Y-56252380D02*
X156244761Y-55252380D01*
X156673333Y-56252380D02*
X156673333Y-55728571D01*
X156625714Y-55633333D01*
X156530476Y-55585714D01*
X156387619Y-55585714D01*
X156292380Y-55633333D01*
X156244761Y-55680952D01*
X157149523Y-56252380D02*
X157149523Y-55585714D01*
X157149523Y-55252380D02*
X157101904Y-55300000D01*
X157149523Y-55347619D01*
X157197142Y-55300000D01*
X157149523Y-55252380D01*
X157149523Y-55347619D01*
X157482857Y-55585714D02*
X157863809Y-55585714D01*
X157625714Y-55252380D02*
X157625714Y-56109523D01*
X157673333Y-56204761D01*
X157768571Y-56252380D01*
X157863809Y-56252380D01*
X158578095Y-56204761D02*
X158482857Y-56252380D01*
X158292380Y-56252380D01*
X158197142Y-56204761D01*
X158149523Y-56109523D01*
X158149523Y-55728571D01*
X158197142Y-55633333D01*
X158292380Y-55585714D01*
X158482857Y-55585714D01*
X158578095Y-55633333D01*
X158625714Y-55728571D01*
X158625714Y-55823809D01*
X158149523Y-55919047D01*
D11*
X81069047Y-65821428D02*
X81830952Y-65821428D01*
X81450000Y-66202380D02*
X81450000Y-65440476D01*
D12*
X150330000Y-53770000D02*
X150363333Y-53703333D01*
X150363333Y-53603333D01*
X150330000Y-53503333D01*
X150263333Y-53436667D01*
X150196666Y-53403333D01*
X150063333Y-53370000D01*
X149963333Y-53370000D01*
X149830000Y-53403333D01*
X149763333Y-53436667D01*
X149696666Y-53503333D01*
X149663333Y-53603333D01*
X149663333Y-53670000D01*
X149696666Y-53770000D01*
X149730000Y-53803333D01*
X149963333Y-53803333D01*
X149963333Y-53670000D01*
X156268571Y-73822380D02*
X155935238Y-73346190D01*
X155697142Y-73822380D02*
X155697142Y-72822380D01*
X156078095Y-72822380D01*
X156173333Y-72870000D01*
X156220952Y-72917619D01*
X156268571Y-73012857D01*
X156268571Y-73155714D01*
X156220952Y-73250952D01*
X156173333Y-73298571D01*
X156078095Y-73346190D01*
X155697142Y-73346190D01*
X157078095Y-73774761D02*
X156982857Y-73822380D01*
X156792380Y-73822380D01*
X156697142Y-73774761D01*
X156649523Y-73679523D01*
X156649523Y-73298571D01*
X156697142Y-73203333D01*
X156792380Y-73155714D01*
X156982857Y-73155714D01*
X157078095Y-73203333D01*
X157125714Y-73298571D01*
X157125714Y-73393809D01*
X156649523Y-73489047D01*
X157982857Y-73822380D02*
X157982857Y-72822380D01*
X157982857Y-73774761D02*
X157887619Y-73822380D01*
X157697142Y-73822380D01*
X157601904Y-73774761D01*
X157554285Y-73727142D01*
X157506666Y-73631904D01*
X157506666Y-73346190D01*
X157554285Y-73250952D01*
X157601904Y-73203333D01*
X157697142Y-73155714D01*
X157887619Y-73155714D01*
X157982857Y-73203333D01*
D11*
X81169047Y-52681428D02*
X81930952Y-52681428D01*
X81550000Y-53062380D02*
X81550000Y-52300476D01*
X81049047Y-47637619D02*
X81810952Y-47637619D01*
X83318571Y-41972380D02*
X83318571Y-40972380D01*
X83651904Y-41686666D01*
X83985238Y-40972380D01*
X83985238Y-41972380D01*
X84890000Y-41972380D02*
X84890000Y-41448571D01*
X84842380Y-41353333D01*
X84747142Y-41305714D01*
X84556666Y-41305714D01*
X84461428Y-41353333D01*
X84890000Y-41924761D02*
X84794761Y-41972380D01*
X84556666Y-41972380D01*
X84461428Y-41924761D01*
X84413809Y-41829523D01*
X84413809Y-41734285D01*
X84461428Y-41639047D01*
X84556666Y-41591428D01*
X84794761Y-41591428D01*
X84890000Y-41543809D01*
X85366190Y-41972380D02*
X85366190Y-41305714D01*
X85366190Y-40972380D02*
X85318571Y-41020000D01*
X85366190Y-41067619D01*
X85413809Y-41020000D01*
X85366190Y-40972380D01*
X85366190Y-41067619D01*
X85842380Y-41305714D02*
X85842380Y-41972380D01*
X85842380Y-41400952D02*
X85890000Y-41353333D01*
X85985238Y-41305714D01*
X86128095Y-41305714D01*
X86223333Y-41353333D01*
X86270952Y-41448571D01*
X86270952Y-41972380D01*
X87509047Y-41972380D02*
X87509047Y-40972380D01*
X87890000Y-40972380D01*
X87985238Y-41020000D01*
X88032857Y-41067619D01*
X88080476Y-41162857D01*
X88080476Y-41305714D01*
X88032857Y-41400952D01*
X87985238Y-41448571D01*
X87890000Y-41496190D01*
X87509047Y-41496190D01*
X88651904Y-41972380D02*
X88556666Y-41924761D01*
X88509047Y-41877142D01*
X88461428Y-41781904D01*
X88461428Y-41496190D01*
X88509047Y-41400952D01*
X88556666Y-41353333D01*
X88651904Y-41305714D01*
X88794761Y-41305714D01*
X88890000Y-41353333D01*
X88937619Y-41400952D01*
X88985238Y-41496190D01*
X88985238Y-41781904D01*
X88937619Y-41877142D01*
X88890000Y-41924761D01*
X88794761Y-41972380D01*
X88651904Y-41972380D01*
X89318571Y-41305714D02*
X89509047Y-41972380D01*
X89699523Y-41496190D01*
X89890000Y-41972380D01*
X90080476Y-41305714D01*
X90842380Y-41924761D02*
X90747142Y-41972380D01*
X90556666Y-41972380D01*
X90461428Y-41924761D01*
X90413809Y-41829523D01*
X90413809Y-41448571D01*
X90461428Y-41353333D01*
X90556666Y-41305714D01*
X90747142Y-41305714D01*
X90842380Y-41353333D01*
X90890000Y-41448571D01*
X90890000Y-41543809D01*
X90413809Y-41639047D01*
X91318571Y-41972380D02*
X91318571Y-41305714D01*
X91318571Y-41496190D02*
X91366190Y-41400952D01*
X91413809Y-41353333D01*
X91509047Y-41305714D01*
X91604285Y-41305714D01*
X80949047Y-60777619D02*
X81710952Y-60777619D01*
D12*
X150903333Y-71206666D02*
X150903333Y-70506666D01*
X151136666Y-71006666D01*
X151370000Y-70506666D01*
X151370000Y-71206666D01*
X151670000Y-70573333D02*
X151703333Y-70540000D01*
X151770000Y-70506666D01*
X151936666Y-70506666D01*
X152003333Y-70540000D01*
X152036666Y-70573333D01*
X152070000Y-70640000D01*
X152070000Y-70706666D01*
X152036666Y-70806666D01*
X151636666Y-71206666D01*
X152070000Y-71206666D01*
X150483333Y-60820000D02*
X150716666Y-60820000D01*
X150816666Y-61186666D02*
X150483333Y-61186666D01*
X150483333Y-60486666D01*
X150816666Y-60486666D01*
X151116666Y-61186666D02*
X151116666Y-60486666D01*
X151516666Y-61186666D01*
X151516666Y-60486666D01*
X151816666Y-60986666D02*
X152150000Y-60986666D01*
X151750000Y-61186666D02*
X151983333Y-60486666D01*
X152216666Y-61186666D01*
X96385238Y-41202380D02*
X96956666Y-41202380D01*
X96670952Y-42202380D02*
X96670952Y-41202380D01*
X97432857Y-42202380D02*
X97337619Y-42154761D01*
X97290000Y-42107142D01*
X97242380Y-42011904D01*
X97242380Y-41726190D01*
X97290000Y-41630952D01*
X97337619Y-41583333D01*
X97432857Y-41535714D01*
X97575714Y-41535714D01*
X97670952Y-41583333D01*
X97718571Y-41630952D01*
X97766190Y-41726190D01*
X97766190Y-42011904D01*
X97718571Y-42107142D01*
X97670952Y-42154761D01*
X97575714Y-42202380D01*
X97432857Y-42202380D01*
X98194761Y-41535714D02*
X98194761Y-42535714D01*
X98194761Y-41583333D02*
X98290000Y-41535714D01*
X98480476Y-41535714D01*
X98575714Y-41583333D01*
X98623333Y-41630952D01*
X98670952Y-41726190D01*
X98670952Y-42011904D01*
X98623333Y-42107142D01*
X98575714Y-42154761D01*
X98480476Y-42202380D01*
X98290000Y-42202380D01*
X98194761Y-42154761D01*
X100337619Y-42202380D02*
X99861428Y-42202380D01*
X99861428Y-41202380D01*
X100670952Y-42202380D02*
X100670952Y-41535714D01*
X100670952Y-41202380D02*
X100623333Y-41250000D01*
X100670952Y-41297619D01*
X100718571Y-41250000D01*
X100670952Y-41202380D01*
X100670952Y-41297619D01*
X101147142Y-42202380D02*
X101147142Y-41535714D01*
X101147142Y-41630952D02*
X101194761Y-41583333D01*
X101290000Y-41535714D01*
X101432857Y-41535714D01*
X101528095Y-41583333D01*
X101575714Y-41678571D01*
X101575714Y-42202380D01*
X101575714Y-41678571D02*
X101623333Y-41583333D01*
X101718571Y-41535714D01*
X101861428Y-41535714D01*
X101956666Y-41583333D01*
X102004285Y-41678571D01*
X102004285Y-42202380D01*
X102480476Y-42202380D02*
X102480476Y-41535714D01*
X102480476Y-41202380D02*
X102432857Y-41250000D01*
X102480476Y-41297619D01*
X102528095Y-41250000D01*
X102480476Y-41202380D01*
X102480476Y-41297619D01*
X102813809Y-41535714D02*
X103194761Y-41535714D01*
X102956666Y-41202380D02*
X102956666Y-42059523D01*
X103004285Y-42154761D01*
X103099523Y-42202380D01*
X103194761Y-42202380D01*
X150290000Y-42316667D02*
X150323333Y-42250000D01*
X150323333Y-42150000D01*
X150290000Y-42050000D01*
X150223333Y-41983334D01*
X150156666Y-41950000D01*
X150023333Y-41916667D01*
X149923333Y-41916667D01*
X149790000Y-41950000D01*
X149723333Y-41983334D01*
X149656666Y-42050000D01*
X149623333Y-42150000D01*
X149623333Y-42216667D01*
X149656666Y-42316667D01*
X149690000Y-42350000D01*
X149923333Y-42350000D01*
X149923333Y-42216667D01*
X152913333Y-41716666D02*
X152913333Y-41383333D01*
X152580000Y-41350000D01*
X152613333Y-41383333D01*
X152646666Y-41450000D01*
X152646666Y-41616666D01*
X152613333Y-41683333D01*
X152580000Y-41716666D01*
X152513333Y-41750000D01*
X152346666Y-41750000D01*
X152280000Y-41716666D01*
X152246666Y-41683333D01*
X152213333Y-41616666D01*
X152213333Y-41450000D01*
X152246666Y-41383333D01*
X152280000Y-41350000D01*
X152913333Y-41950000D02*
X152213333Y-42183333D01*
X152913333Y-42416666D01*
D10*
%TO.C,J9*%
X160384761Y-53696190D02*
X160432380Y-53553333D01*
X160432380Y-53315238D01*
X160384761Y-53220000D01*
X160337142Y-53172380D01*
X160241904Y-53124761D01*
X160146666Y-53124761D01*
X160051428Y-53172380D01*
X160003809Y-53220000D01*
X159956190Y-53315238D01*
X159908571Y-53505714D01*
X159860952Y-53600952D01*
X159813333Y-53648571D01*
X159718095Y-53696190D01*
X159622857Y-53696190D01*
X159527619Y-53648571D01*
X159480000Y-53600952D01*
X159432380Y-53505714D01*
X159432380Y-53267619D01*
X159480000Y-53124761D01*
X160384761Y-52315238D02*
X160432380Y-52410476D01*
X160432380Y-52600952D01*
X160384761Y-52696190D01*
X160289523Y-52743809D01*
X159908571Y-52743809D01*
X159813333Y-52696190D01*
X159765714Y-52600952D01*
X159765714Y-52410476D01*
X159813333Y-52315238D01*
X159908571Y-52267619D01*
X160003809Y-52267619D01*
X160099047Y-52743809D01*
X160432380Y-51839047D02*
X159765714Y-51839047D01*
X159956190Y-51839047D02*
X159860952Y-51791428D01*
X159813333Y-51743809D01*
X159765714Y-51648571D01*
X159765714Y-51553333D01*
X160432380Y-51220000D02*
X159765714Y-51220000D01*
X159432380Y-51220000D02*
X159480000Y-51267619D01*
X159527619Y-51220000D01*
X159480000Y-51172380D01*
X159432380Y-51220000D01*
X159527619Y-51220000D01*
X160432380Y-50315238D02*
X159908571Y-50315238D01*
X159813333Y-50362857D01*
X159765714Y-50458095D01*
X159765714Y-50648571D01*
X159813333Y-50743809D01*
X160384761Y-50315238D02*
X160432380Y-50410476D01*
X160432380Y-50648571D01*
X160384761Y-50743809D01*
X160289523Y-50791428D01*
X160194285Y-50791428D01*
X160099047Y-50743809D01*
X160051428Y-50648571D01*
X160051428Y-50410476D01*
X160003809Y-50315238D01*
X160432380Y-49696190D02*
X160384761Y-49791428D01*
X160289523Y-49839047D01*
X159432380Y-49839047D01*
%TO.C,J6*%
X160432380Y-46209761D02*
X159765714Y-46209761D01*
X159432380Y-46209761D02*
X159480000Y-46257380D01*
X159527619Y-46209761D01*
X159480000Y-46162142D01*
X159432380Y-46209761D01*
X159527619Y-46209761D01*
X159527619Y-45781190D02*
X159480000Y-45733571D01*
X159432380Y-45638333D01*
X159432380Y-45400238D01*
X159480000Y-45305000D01*
X159527619Y-45257380D01*
X159622857Y-45209761D01*
X159718095Y-45209761D01*
X159860952Y-45257380D01*
X160432380Y-45828809D01*
X160432380Y-45209761D01*
X160384761Y-44352619D02*
X160432380Y-44447857D01*
X160432380Y-44638333D01*
X160384761Y-44733571D01*
X160337142Y-44781190D01*
X160241904Y-44828809D01*
X159956190Y-44828809D01*
X159860952Y-44781190D01*
X159813333Y-44733571D01*
X159765714Y-44638333D01*
X159765714Y-44447857D01*
X159813333Y-44352619D01*
D13*
%TO.C,J5*%
X124947964Y-25449547D02*
X124947964Y-26311333D01*
X124890511Y-26483690D01*
X124775607Y-26598595D01*
X124603249Y-26656047D01*
X124488345Y-26656047D01*
X126097011Y-25449547D02*
X125522488Y-25449547D01*
X125465035Y-26024071D01*
X125522488Y-25966619D01*
X125637392Y-25909166D01*
X125924654Y-25909166D01*
X126039559Y-25966619D01*
X126097011Y-26024071D01*
X126154464Y-26138976D01*
X126154464Y-26426238D01*
X126097011Y-26541142D01*
X126039559Y-26598595D01*
X125924654Y-26656047D01*
X125637392Y-26656047D01*
X125522488Y-26598595D01*
X125465035Y-26541142D01*
D14*
%TO.C,J2*%
X89275000Y-66800000D02*
X89216000Y-66741000D01*
X87024000Y-64550000D02*
X86931000Y-64456000D01*
X92550000Y-59400000D02*
X92550000Y-61900000D01*
X89069000Y-67005000D02*
X88976000Y-66911000D01*
X83240000Y-57810000D02*
X82400000Y-57810000D01*
X85500000Y-58050000D02*
X85500000Y-68330000D01*
X92550000Y-64480000D02*
X92550000Y-66980000D01*
X93050000Y-59400000D02*
X93050000Y-61900000D01*
X86784000Y-64720000D02*
X86726000Y-64661000D01*
X83300000Y-58050000D02*
X83300000Y-68330000D01*
X93360000Y-68330000D02*
X82640000Y-68330000D01*
X82400000Y-57810000D02*
X82400000Y-58410000D01*
X93360000Y-58050000D02*
X93360000Y-68330000D01*
X93050000Y-66980000D02*
X92550000Y-66980000D01*
X93050000Y-61900000D02*
X92550000Y-61900000D01*
X93360000Y-58050000D02*
X82640000Y-58050000D01*
X93050000Y-64480000D02*
X92550000Y-64480000D01*
X91300000Y-58050000D02*
X91300000Y-68330000D01*
X93050000Y-59400000D02*
X92550000Y-59400000D01*
X82640000Y-58050000D02*
X82640000Y-68330000D01*
X93050000Y-64480000D02*
X93050000Y-66980000D01*
X89484000Y-61439000D02*
G75*
G03*
X89483953Y-59860911I-1483995J789000D01*
G01*
X86516000Y-59861000D02*
G75*
G03*
X86319550Y-60679383I1483995J-788998D01*
G01*
X88789000Y-59166000D02*
G75*
G03*
X87210911Y-59166047I-789000J-1483995D01*
G01*
X87211000Y-62134000D02*
G75*
G03*
X88789089Y-62133953I789000J1483995D01*
G01*
X86320000Y-60650000D02*
G75*
G03*
X86516648Y-61438712I1679991J-2D01*
G01*
X89680000Y-65730000D02*
G75*
G03*
X89680000Y-65730000I-1680000J0D01*
G01*
D15*
%TO.C,G\u002A\u002A\u002A*%
X140119628Y-93050636D02*
X140315224Y-93094139D01*
X140315224Y-93094139D02*
X140504005Y-93160580D01*
X140504005Y-93160580D02*
X140683713Y-93248692D01*
X140683713Y-93248692D02*
X140852093Y-93357209D01*
X140852093Y-93357209D02*
X141006887Y-93484864D01*
X141006887Y-93484864D02*
X141145840Y-93630391D01*
X141145840Y-93630391D02*
X141266694Y-93792524D01*
X141266694Y-93792524D02*
X141362921Y-93961250D01*
X141362921Y-93961250D02*
X141418251Y-94082920D01*
X141418251Y-94082920D02*
X141461546Y-94200964D01*
X141461546Y-94200964D02*
X141494217Y-94321508D01*
X141494217Y-94321508D02*
X141517674Y-94450675D01*
X141517674Y-94450675D02*
X141533329Y-94594592D01*
X141533329Y-94594592D02*
X141541738Y-94737475D01*
X141541738Y-94737475D02*
X141550475Y-94949401D01*
X141550475Y-94949401D02*
X138173577Y-94949401D01*
X138173577Y-94949401D02*
X138181078Y-94718796D01*
X138181078Y-94718796D02*
X138185178Y-94628412D01*
X138185178Y-94628412D02*
X138191238Y-94541346D01*
X138191238Y-94541346D02*
X138198653Y-94464517D01*
X138198653Y-94464517D02*
X138201907Y-94440729D01*
X138201907Y-94440729D02*
X140586807Y-94440729D01*
X140586807Y-94440729D02*
X140588091Y-94507777D01*
X140588091Y-94507777D02*
X140607944Y-94572198D01*
X140607944Y-94572198D02*
X140646756Y-94629286D01*
X140646756Y-94629286D02*
X140704920Y-94674338D01*
X140704920Y-94674338D02*
X140722585Y-94683194D01*
X140722585Y-94683194D02*
X140796534Y-94705423D01*
X140796534Y-94705423D02*
X140867926Y-94702085D01*
X140867926Y-94702085D02*
X140927315Y-94680749D01*
X140927315Y-94680749D02*
X140983191Y-94640095D01*
X140983191Y-94640095D02*
X141024101Y-94583205D01*
X141024101Y-94583205D02*
X141048226Y-94516548D01*
X141048226Y-94516548D02*
X141053745Y-94446595D01*
X141053745Y-94446595D02*
X141038838Y-94379816D01*
X141038838Y-94379816D02*
X141021266Y-94346775D01*
X141021266Y-94346775D02*
X140967074Y-94287226D01*
X140967074Y-94287226D02*
X140901194Y-94248621D01*
X140901194Y-94248621D02*
X140828421Y-94232910D01*
X140828421Y-94232910D02*
X140759501Y-94240351D01*
X140759501Y-94240351D02*
X140690437Y-94270865D01*
X140690437Y-94270865D02*
X140638372Y-94317569D01*
X140638372Y-94317569D02*
X140603698Y-94375759D01*
X140603698Y-94375759D02*
X140586807Y-94440729D01*
X140586807Y-94440729D02*
X138201907Y-94440729D01*
X138201907Y-94440729D02*
X138206816Y-94404845D01*
X138206816Y-94404845D02*
X138210027Y-94387927D01*
X138210027Y-94387927D02*
X138265931Y-94181655D01*
X138265931Y-94181655D02*
X138342459Y-93991484D01*
X138342459Y-93991484D02*
X138412334Y-93866235D01*
X138412334Y-93866235D02*
X139387315Y-93866235D01*
X139387315Y-93866235D02*
X139388549Y-93927282D01*
X139388549Y-93927282D02*
X139393789Y-93972499D01*
X139393789Y-93972499D02*
X139405306Y-94012739D01*
X139405306Y-94012739D02*
X139425369Y-94058852D01*
X139425369Y-94058852D02*
X139429323Y-94067085D01*
X139429323Y-94067085D02*
X139490937Y-94167945D01*
X139490937Y-94167945D02*
X139567037Y-94246606D01*
X139567037Y-94246606D02*
X139656689Y-94302500D01*
X139656689Y-94302500D02*
X139758958Y-94335061D01*
X139758958Y-94335061D02*
X139872911Y-94343724D01*
X139872911Y-94343724D02*
X139884865Y-94343256D01*
X139884865Y-94343256D02*
X139954645Y-94336035D01*
X139954645Y-94336035D02*
X140014729Y-94319386D01*
X140014729Y-94319386D02*
X140067809Y-94295973D01*
X140067809Y-94295973D02*
X140164229Y-94234737D01*
X140164229Y-94234737D02*
X140240154Y-94156879D01*
X140240154Y-94156879D02*
X140294485Y-94064184D01*
X140294485Y-94064184D02*
X140326121Y-93958434D01*
X140326121Y-93958434D02*
X140334356Y-93863899D01*
X140334356Y-93863899D02*
X140333079Y-93808279D01*
X140333079Y-93808279D02*
X140327230Y-93765374D01*
X140327230Y-93765374D02*
X140314079Y-93723959D01*
X140314079Y-93723959D02*
X140290893Y-93672807D01*
X140290893Y-93672807D02*
X140284865Y-93660529D01*
X140284865Y-93660529D02*
X140237102Y-93579684D01*
X140237102Y-93579684D02*
X140179730Y-93515677D01*
X140179730Y-93515677D02*
X140105847Y-93461575D01*
X140105847Y-93461575D02*
X140062400Y-93437039D01*
X140062400Y-93437039D02*
X140030943Y-93422284D01*
X140030943Y-93422284D02*
X139999372Y-93412902D01*
X139999372Y-93412902D02*
X139960360Y-93407736D01*
X139960360Y-93407736D02*
X139906577Y-93405628D01*
X139906577Y-93405628D02*
X139861873Y-93405348D01*
X139861873Y-93405348D02*
X139791971Y-93406390D01*
X139791971Y-93406390D02*
X139741360Y-93410207D01*
X139741360Y-93410207D02*
X139702650Y-93417841D01*
X139702650Y-93417841D02*
X139668452Y-93430332D01*
X139668452Y-93430332D02*
X139661347Y-93433578D01*
X139661347Y-93433578D02*
X139571385Y-93489838D01*
X139571385Y-93489838D02*
X139493684Y-93566520D01*
X139493684Y-93566520D02*
X139433691Y-93658190D01*
X139433691Y-93658190D02*
X139431254Y-93663071D01*
X139431254Y-93663071D02*
X139408881Y-93711559D01*
X139408881Y-93711559D02*
X139395673Y-93751571D01*
X139395673Y-93751571D02*
X139389285Y-93793952D01*
X139389285Y-93793952D02*
X139387370Y-93849550D01*
X139387370Y-93849550D02*
X139387315Y-93866235D01*
X139387315Y-93866235D02*
X138412334Y-93866235D01*
X138412334Y-93866235D02*
X138440883Y-93815063D01*
X138440883Y-93815063D02*
X138562473Y-93650046D01*
X138562473Y-93650046D02*
X138677524Y-93524420D01*
X138677524Y-93524420D02*
X138835212Y-93382927D01*
X138835212Y-93382927D02*
X139001010Y-93266355D01*
X139001010Y-93266355D02*
X139176731Y-93173856D01*
X139176731Y-93173856D02*
X139364187Y-93104580D01*
X139364187Y-93104580D02*
X139565190Y-93057680D01*
X139565190Y-93057680D02*
X139717014Y-93037508D01*
X139717014Y-93037508D02*
X139919472Y-93031337D01*
X139919472Y-93031337D02*
X140119628Y-93050636D01*
X140119628Y-93050636D02*
X140119628Y-93050636D01*
G36*
X138210027Y-94387927D02*
G01*
X138265931Y-94181655D01*
X138342459Y-93991484D01*
X138412334Y-93866235D01*
X139387315Y-93866235D01*
X139388549Y-93927282D01*
X139393789Y-93972499D01*
X139405306Y-94012739D01*
X139425369Y-94058852D01*
X139429323Y-94067085D01*
X139490937Y-94167945D01*
X139567037Y-94246606D01*
X139656689Y-94302500D01*
X139758958Y-94335061D01*
X139872911Y-94343724D01*
X139884865Y-94343256D01*
X139954645Y-94336035D01*
X140014729Y-94319386D01*
X140067809Y-94295973D01*
X140164229Y-94234737D01*
X140240154Y-94156879D01*
X140294485Y-94064184D01*
X140326121Y-93958434D01*
X140334356Y-93863899D01*
X140333079Y-93808279D01*
X140327230Y-93765374D01*
X140314079Y-93723959D01*
X140290893Y-93672807D01*
X140284865Y-93660529D01*
X140237102Y-93579684D01*
X140179730Y-93515677D01*
X140105847Y-93461575D01*
X140062400Y-93437039D01*
X140030943Y-93422284D01*
X139999372Y-93412902D01*
X139960360Y-93407736D01*
X139906577Y-93405628D01*
X139861873Y-93405348D01*
X139791971Y-93406390D01*
X139741360Y-93410207D01*
X139702650Y-93417841D01*
X139668452Y-93430332D01*
X139661347Y-93433578D01*
X139571385Y-93489838D01*
X139493684Y-93566520D01*
X139433691Y-93658190D01*
X139431254Y-93663071D01*
X139408881Y-93711559D01*
X139395673Y-93751571D01*
X139389285Y-93793952D01*
X139387370Y-93849550D01*
X139387315Y-93866235D01*
X138412334Y-93866235D01*
X138440883Y-93815063D01*
X138562473Y-93650046D01*
X138677524Y-93524420D01*
X138835212Y-93382927D01*
X139001010Y-93266355D01*
X139176731Y-93173856D01*
X139364187Y-93104580D01*
X139565190Y-93057680D01*
X139717014Y-93037508D01*
X139919472Y-93031337D01*
X140119628Y-93050636D01*
X140315224Y-93094139D01*
X140504005Y-93160580D01*
X140683713Y-93248692D01*
X140852093Y-93357209D01*
X141006887Y-93484864D01*
X141145840Y-93630391D01*
X141266694Y-93792524D01*
X141362921Y-93961250D01*
X141418251Y-94082920D01*
X141461546Y-94200964D01*
X141494217Y-94321508D01*
X141517674Y-94450675D01*
X141533329Y-94594592D01*
X141541738Y-94737475D01*
X141550475Y-94949401D01*
X138173577Y-94949401D01*
X138181078Y-94718796D01*
X138185178Y-94628412D01*
X138191238Y-94541346D01*
X138198653Y-94464517D01*
X138201907Y-94440729D01*
X140586807Y-94440729D01*
X140588091Y-94507777D01*
X140607944Y-94572198D01*
X140646756Y-94629286D01*
X140704920Y-94674338D01*
X140722585Y-94683194D01*
X140796534Y-94705423D01*
X140867926Y-94702085D01*
X140927315Y-94680749D01*
X140983191Y-94640095D01*
X141024101Y-94583205D01*
X141048226Y-94516548D01*
X141053745Y-94446595D01*
X141038838Y-94379816D01*
X141021266Y-94346775D01*
X140967074Y-94287226D01*
X140901194Y-94248621D01*
X140828421Y-94232910D01*
X140759501Y-94240351D01*
X140690437Y-94270865D01*
X140638372Y-94317569D01*
X140603698Y-94375759D01*
X140586807Y-94440729D01*
X138201907Y-94440729D01*
X138206816Y-94404845D01*
X138210027Y-94387927D01*
G37*
X138210027Y-94387927D02*
X138265931Y-94181655D01*
X138342459Y-93991484D01*
X138412334Y-93866235D01*
X139387315Y-93866235D01*
X139388549Y-93927282D01*
X139393789Y-93972499D01*
X139405306Y-94012739D01*
X139425369Y-94058852D01*
X139429323Y-94067085D01*
X139490937Y-94167945D01*
X139567037Y-94246606D01*
X139656689Y-94302500D01*
X139758958Y-94335061D01*
X139872911Y-94343724D01*
X139884865Y-94343256D01*
X139954645Y-94336035D01*
X140014729Y-94319386D01*
X140067809Y-94295973D01*
X140164229Y-94234737D01*
X140240154Y-94156879D01*
X140294485Y-94064184D01*
X140326121Y-93958434D01*
X140334356Y-93863899D01*
X140333079Y-93808279D01*
X140327230Y-93765374D01*
X140314079Y-93723959D01*
X140290893Y-93672807D01*
X140284865Y-93660529D01*
X140237102Y-93579684D01*
X140179730Y-93515677D01*
X140105847Y-93461575D01*
X140062400Y-93437039D01*
X140030943Y-93422284D01*
X139999372Y-93412902D01*
X139960360Y-93407736D01*
X139906577Y-93405628D01*
X139861873Y-93405348D01*
X139791971Y-93406390D01*
X139741360Y-93410207D01*
X139702650Y-93417841D01*
X139668452Y-93430332D01*
X139661347Y-93433578D01*
X139571385Y-93489838D01*
X139493684Y-93566520D01*
X139433691Y-93658190D01*
X139431254Y-93663071D01*
X139408881Y-93711559D01*
X139395673Y-93751571D01*
X139389285Y-93793952D01*
X139387370Y-93849550D01*
X139387315Y-93866235D01*
X138412334Y-93866235D01*
X138440883Y-93815063D01*
X138562473Y-93650046D01*
X138677524Y-93524420D01*
X138835212Y-93382927D01*
X139001010Y-93266355D01*
X139176731Y-93173856D01*
X139364187Y-93104580D01*
X139565190Y-93057680D01*
X139717014Y-93037508D01*
X139919472Y-93031337D01*
X140119628Y-93050636D01*
X140315224Y-93094139D01*
X140504005Y-93160580D01*
X140683713Y-93248692D01*
X140852093Y-93357209D01*
X141006887Y-93484864D01*
X141145840Y-93630391D01*
X141266694Y-93792524D01*
X141362921Y-93961250D01*
X141418251Y-94082920D01*
X141461546Y-94200964D01*
X141494217Y-94321508D01*
X141517674Y-94450675D01*
X141533329Y-94594592D01*
X141541738Y-94737475D01*
X141550475Y-94949401D01*
X138173577Y-94949401D01*
X138181078Y-94718796D01*
X138185178Y-94628412D01*
X138191238Y-94541346D01*
X138198653Y-94464517D01*
X138201907Y-94440729D01*
X140586807Y-94440729D01*
X140588091Y-94507777D01*
X140607944Y-94572198D01*
X140646756Y-94629286D01*
X140704920Y-94674338D01*
X140722585Y-94683194D01*
X140796534Y-94705423D01*
X140867926Y-94702085D01*
X140927315Y-94680749D01*
X140983191Y-94640095D01*
X141024101Y-94583205D01*
X141048226Y-94516548D01*
X141053745Y-94446595D01*
X141038838Y-94379816D01*
X141021266Y-94346775D01*
X140967074Y-94287226D01*
X140901194Y-94248621D01*
X140828421Y-94232910D01*
X140759501Y-94240351D01*
X140690437Y-94270865D01*
X140638372Y-94317569D01*
X140603698Y-94375759D01*
X140586807Y-94440729D01*
X138201907Y-94440729D01*
X138206816Y-94404845D01*
X138210027Y-94387927D01*
X142077689Y-95192471D02*
X142175791Y-95193938D01*
X142175791Y-95193938D02*
X142251236Y-95195532D01*
X142251236Y-95195532D02*
X142308104Y-95197680D01*
X142308104Y-95197680D02*
X142350472Y-95200811D01*
X142350472Y-95200811D02*
X142382421Y-95205354D01*
X142382421Y-95205354D02*
X142408028Y-95211738D01*
X142408028Y-95211738D02*
X142431372Y-95220389D01*
X142431372Y-95220389D02*
X142456532Y-95231737D01*
X142456532Y-95231737D02*
X142457974Y-95232413D01*
X142457974Y-95232413D02*
X142544673Y-95286251D01*
X142544673Y-95286251D02*
X142621633Y-95359286D01*
X142621633Y-95359286D02*
X142681416Y-95444078D01*
X142681416Y-95444078D02*
X142693704Y-95468143D01*
X142693704Y-95468143D02*
X142729400Y-95544296D01*
X142729400Y-95544296D02*
X142736084Y-97054927D01*
X142736084Y-97054927D02*
X142742768Y-98565559D01*
X142742768Y-98565559D02*
X142974880Y-99140401D01*
X142974880Y-99140401D02*
X143022294Y-99257833D01*
X143022294Y-99257833D02*
X143066735Y-99367913D01*
X143066735Y-99367913D02*
X143107179Y-99468109D01*
X143107179Y-99468109D02*
X143142605Y-99555888D01*
X143142605Y-99555888D02*
X143171991Y-99628718D01*
X143171991Y-99628718D02*
X143194316Y-99684066D01*
X143194316Y-99684066D02*
X143208557Y-99719401D01*
X143208557Y-99719401D02*
X143213600Y-99731954D01*
X143213600Y-99731954D02*
X143209993Y-99735260D01*
X143209993Y-99735260D02*
X143195357Y-99738127D01*
X143195357Y-99738127D02*
X143168164Y-99740584D01*
X143168164Y-99740584D02*
X143126883Y-99742657D01*
X143126883Y-99742657D02*
X143069984Y-99744372D01*
X143069984Y-99744372D02*
X142995938Y-99745756D01*
X142995938Y-99745756D02*
X142903216Y-99746837D01*
X142903216Y-99746837D02*
X142790288Y-99747640D01*
X142790288Y-99747640D02*
X142655623Y-99748194D01*
X142655623Y-99748194D02*
X142497693Y-99748524D01*
X142497693Y-99748524D02*
X142314968Y-99748658D01*
X142314968Y-99748658D02*
X142261376Y-99748664D01*
X142261376Y-99748664D02*
X142078063Y-99748637D01*
X142078063Y-99748637D02*
X141919688Y-99748526D01*
X141919688Y-99748526D02*
X141784451Y-99748286D01*
X141784451Y-99748286D02*
X141670551Y-99747875D01*
X141670551Y-99747875D02*
X141576191Y-99747246D01*
X141576191Y-99747246D02*
X141499570Y-99746357D01*
X141499570Y-99746357D02*
X141438888Y-99745163D01*
X141438888Y-99745163D02*
X141392347Y-99743620D01*
X141392347Y-99743620D02*
X141358146Y-99741683D01*
X141358146Y-99741683D02*
X141334487Y-99739309D01*
X141334487Y-99739309D02*
X141319569Y-99736453D01*
X141319569Y-99736453D02*
X141311593Y-99733071D01*
X141311593Y-99733071D02*
X141308760Y-99729119D01*
X141308760Y-99729119D02*
X141309054Y-99725269D01*
X141309054Y-99725269D02*
X141315235Y-99708378D01*
X141315235Y-99708378D02*
X141330362Y-99669260D01*
X141330362Y-99669260D02*
X141353413Y-99610496D01*
X141353413Y-99610496D02*
X141383366Y-99534668D01*
X141383366Y-99534668D02*
X141419198Y-99444358D01*
X141419198Y-99444358D02*
X141459888Y-99342148D01*
X141459888Y-99342148D02*
X141504414Y-99230621D01*
X141504414Y-99230621D02*
X141544560Y-99130307D01*
X141544560Y-99130307D02*
X141773558Y-98558739D01*
X141773558Y-98558739D02*
X141773558Y-95188225D01*
X141773558Y-95188225D02*
X142077689Y-95192471D01*
X142077689Y-95192471D02*
X142077689Y-95192471D01*
G36*
X142077689Y-95192471D02*
G01*
X142175791Y-95193938D01*
X142251236Y-95195532D01*
X142308104Y-95197680D01*
X142350472Y-95200811D01*
X142382421Y-95205354D01*
X142408028Y-95211738D01*
X142431372Y-95220389D01*
X142456532Y-95231737D01*
X142457974Y-95232413D01*
X142544673Y-95286251D01*
X142621633Y-95359286D01*
X142681416Y-95444078D01*
X142693704Y-95468143D01*
X142729400Y-95544296D01*
X142736084Y-97054927D01*
X142742768Y-98565559D01*
X142974880Y-99140401D01*
X143022294Y-99257833D01*
X143066735Y-99367913D01*
X143107179Y-99468109D01*
X143142605Y-99555888D01*
X143171991Y-99628718D01*
X143194316Y-99684066D01*
X143208557Y-99719401D01*
X143213600Y-99731954D01*
X143209993Y-99735260D01*
X143195357Y-99738127D01*
X143168164Y-99740584D01*
X143126883Y-99742657D01*
X143069984Y-99744372D01*
X142995938Y-99745756D01*
X142903216Y-99746837D01*
X142790288Y-99747640D01*
X142655623Y-99748194D01*
X142497693Y-99748524D01*
X142314968Y-99748658D01*
X142261376Y-99748664D01*
X142078063Y-99748637D01*
X141919688Y-99748526D01*
X141784451Y-99748286D01*
X141670551Y-99747875D01*
X141576191Y-99747246D01*
X141499570Y-99746357D01*
X141438888Y-99745163D01*
X141392347Y-99743620D01*
X141358146Y-99741683D01*
X141334487Y-99739309D01*
X141319569Y-99736453D01*
X141311593Y-99733071D01*
X141308760Y-99729119D01*
X141309054Y-99725269D01*
X141315235Y-99708378D01*
X141330362Y-99669260D01*
X141353413Y-99610496D01*
X141383366Y-99534668D01*
X141419198Y-99444358D01*
X141459888Y-99342148D01*
X141504414Y-99230621D01*
X141544560Y-99130307D01*
X141773558Y-98558739D01*
X141773558Y-95188225D01*
X142077689Y-95192471D01*
G37*
X142077689Y-95192471D02*
X142175791Y-95193938D01*
X142251236Y-95195532D01*
X142308104Y-95197680D01*
X142350472Y-95200811D01*
X142382421Y-95205354D01*
X142408028Y-95211738D01*
X142431372Y-95220389D01*
X142456532Y-95231737D01*
X142457974Y-95232413D01*
X142544673Y-95286251D01*
X142621633Y-95359286D01*
X142681416Y-95444078D01*
X142693704Y-95468143D01*
X142729400Y-95544296D01*
X142736084Y-97054927D01*
X142742768Y-98565559D01*
X142974880Y-99140401D01*
X143022294Y-99257833D01*
X143066735Y-99367913D01*
X143107179Y-99468109D01*
X143142605Y-99555888D01*
X143171991Y-99628718D01*
X143194316Y-99684066D01*
X143208557Y-99719401D01*
X143213600Y-99731954D01*
X143209993Y-99735260D01*
X143195357Y-99738127D01*
X143168164Y-99740584D01*
X143126883Y-99742657D01*
X143069984Y-99744372D01*
X142995938Y-99745756D01*
X142903216Y-99746837D01*
X142790288Y-99747640D01*
X142655623Y-99748194D01*
X142497693Y-99748524D01*
X142314968Y-99748658D01*
X142261376Y-99748664D01*
X142078063Y-99748637D01*
X141919688Y-99748526D01*
X141784451Y-99748286D01*
X141670551Y-99747875D01*
X141576191Y-99747246D01*
X141499570Y-99746357D01*
X141438888Y-99745163D01*
X141392347Y-99743620D01*
X141358146Y-99741683D01*
X141334487Y-99739309D01*
X141319569Y-99736453D01*
X141311593Y-99733071D01*
X141308760Y-99729119D01*
X141309054Y-99725269D01*
X141315235Y-99708378D01*
X141330362Y-99669260D01*
X141353413Y-99610496D01*
X141383366Y-99534668D01*
X141419198Y-99444358D01*
X141459888Y-99342148D01*
X141504414Y-99230621D01*
X141544560Y-99130307D01*
X141773558Y-98558739D01*
X141773558Y-95188225D01*
X142077689Y-95192471D01*
X137936821Y-98532009D02*
X138177452Y-99133717D01*
X138177452Y-99133717D02*
X138225320Y-99253543D01*
X138225320Y-99253543D02*
X138270018Y-99365694D01*
X138270018Y-99365694D02*
X138310591Y-99467748D01*
X138310591Y-99467748D02*
X138346081Y-99557286D01*
X138346081Y-99557286D02*
X138375529Y-99631886D01*
X138375529Y-99631886D02*
X138397978Y-99689128D01*
X138397978Y-99689128D02*
X138412472Y-99726591D01*
X138412472Y-99726591D02*
X138418051Y-99741853D01*
X138418051Y-99741853D02*
X138418084Y-99742044D01*
X138418084Y-99742044D02*
X138405068Y-99743133D01*
X138405068Y-99743133D02*
X138367432Y-99744166D01*
X138367432Y-99744166D02*
X138307293Y-99745128D01*
X138307293Y-99745128D02*
X138226767Y-99746006D01*
X138226767Y-99746006D02*
X138127970Y-99746783D01*
X138127970Y-99746783D02*
X138013020Y-99747446D01*
X138013020Y-99747446D02*
X137884033Y-99747980D01*
X137884033Y-99747980D02*
X137743125Y-99748371D01*
X137743125Y-99748371D02*
X137592414Y-99748603D01*
X137592414Y-99748603D02*
X137462242Y-99748664D01*
X137462242Y-99748664D02*
X137305038Y-99748570D01*
X137305038Y-99748570D02*
X137155892Y-99748296D01*
X137155892Y-99748296D02*
X137016920Y-99747860D01*
X137016920Y-99747860D02*
X136890241Y-99747275D01*
X136890241Y-99747275D02*
X136777969Y-99746558D01*
X136777969Y-99746558D02*
X136682222Y-99745724D01*
X136682222Y-99745724D02*
X136605116Y-99744787D01*
X136605116Y-99744787D02*
X136548768Y-99743764D01*
X136548768Y-99743764D02*
X136515294Y-99742670D01*
X136515294Y-99742670D02*
X136506400Y-99741725D01*
X136506400Y-99741725D02*
X136511194Y-99728283D01*
X136511194Y-99728283D02*
X136524933Y-99692466D01*
X136524933Y-99692466D02*
X136546650Y-99636729D01*
X136546650Y-99636729D02*
X136575379Y-99563529D01*
X136575379Y-99563529D02*
X136610154Y-99475323D01*
X136610154Y-99475323D02*
X136650008Y-99374566D01*
X136650008Y-99374566D02*
X136693974Y-99263716D01*
X136693974Y-99263716D02*
X136739958Y-99148061D01*
X136739958Y-99148061D02*
X136973517Y-98561336D01*
X136973517Y-98561336D02*
X136977248Y-97066184D01*
X136977248Y-97066184D02*
X136980979Y-95571033D01*
X136980979Y-95571033D02*
X137011776Y-95494811D01*
X137011776Y-95494811D02*
X137063517Y-95401129D01*
X137063517Y-95401129D02*
X137136462Y-95319405D01*
X137136462Y-95319405D02*
X137226045Y-95254464D01*
X137226045Y-95254464D02*
X137252211Y-95240573D01*
X137252211Y-95240573D02*
X137341228Y-95196717D01*
X137341228Y-95196717D02*
X137639024Y-95192456D01*
X137639024Y-95192456D02*
X137936821Y-95188195D01*
X137936821Y-95188195D02*
X137936821Y-98532009D01*
X137936821Y-98532009D02*
X137936821Y-98532009D01*
G36*
X137936821Y-98532009D02*
G01*
X138177452Y-99133717D01*
X138225320Y-99253543D01*
X138270018Y-99365694D01*
X138310591Y-99467748D01*
X138346081Y-99557286D01*
X138375529Y-99631886D01*
X138397978Y-99689128D01*
X138412472Y-99726591D01*
X138418051Y-99741853D01*
X138418084Y-99742044D01*
X138405068Y-99743133D01*
X138367432Y-99744166D01*
X138307293Y-99745128D01*
X138226767Y-99746006D01*
X138127970Y-99746783D01*
X138013020Y-99747446D01*
X137884033Y-99747980D01*
X137743125Y-99748371D01*
X137592414Y-99748603D01*
X137462242Y-99748664D01*
X137305038Y-99748570D01*
X137155892Y-99748296D01*
X137016920Y-99747860D01*
X136890241Y-99747275D01*
X136777969Y-99746558D01*
X136682222Y-99745724D01*
X136605116Y-99744787D01*
X136548768Y-99743764D01*
X136515294Y-99742670D01*
X136506400Y-99741725D01*
X136511194Y-99728283D01*
X136524933Y-99692466D01*
X136546650Y-99636729D01*
X136575379Y-99563529D01*
X136610154Y-99475323D01*
X136650008Y-99374566D01*
X136693974Y-99263716D01*
X136739958Y-99148061D01*
X136973517Y-98561336D01*
X136977248Y-97066184D01*
X136980979Y-95571033D01*
X137011776Y-95494811D01*
X137063517Y-95401129D01*
X137136462Y-95319405D01*
X137226045Y-95254464D01*
X137252211Y-95240573D01*
X137341228Y-95196717D01*
X137639024Y-95192456D01*
X137936821Y-95188195D01*
X137936821Y-98532009D01*
G37*
X137936821Y-98532009D02*
X138177452Y-99133717D01*
X138225320Y-99253543D01*
X138270018Y-99365694D01*
X138310591Y-99467748D01*
X138346081Y-99557286D01*
X138375529Y-99631886D01*
X138397978Y-99689128D01*
X138412472Y-99726591D01*
X138418051Y-99741853D01*
X138418084Y-99742044D01*
X138405068Y-99743133D01*
X138367432Y-99744166D01*
X138307293Y-99745128D01*
X138226767Y-99746006D01*
X138127970Y-99746783D01*
X138013020Y-99747446D01*
X137884033Y-99747980D01*
X137743125Y-99748371D01*
X137592414Y-99748603D01*
X137462242Y-99748664D01*
X137305038Y-99748570D01*
X137155892Y-99748296D01*
X137016920Y-99747860D01*
X136890241Y-99747275D01*
X136777969Y-99746558D01*
X136682222Y-99745724D01*
X136605116Y-99744787D01*
X136548768Y-99743764D01*
X136515294Y-99742670D01*
X136506400Y-99741725D01*
X136511194Y-99728283D01*
X136524933Y-99692466D01*
X136546650Y-99636729D01*
X136575379Y-99563529D01*
X136610154Y-99475323D01*
X136650008Y-99374566D01*
X136693974Y-99263716D01*
X136739958Y-99148061D01*
X136973517Y-98561336D01*
X136977248Y-97066184D01*
X136980979Y-95571033D01*
X137011776Y-95494811D01*
X137063517Y-95401129D01*
X137136462Y-95319405D01*
X137226045Y-95254464D01*
X137252211Y-95240573D01*
X137341228Y-95196717D01*
X137639024Y-95192456D01*
X137936821Y-95188195D01*
X137936821Y-98532009D01*
X141546294Y-98539093D02*
X141302189Y-98782931D01*
X141302189Y-98782931D02*
X141058083Y-99026769D01*
X141058083Y-99026769D02*
X138657963Y-99026769D01*
X138657963Y-99026769D02*
X138417708Y-98786128D01*
X138417708Y-98786128D02*
X138177452Y-98545486D01*
X138177452Y-98545486D02*
X138177452Y-96850420D01*
X138177452Y-96850420D02*
X138903186Y-96850420D01*
X138903186Y-96850420D02*
X138904627Y-96905091D01*
X138904627Y-96905091D02*
X138928795Y-96970669D01*
X138928795Y-96970669D02*
X138972615Y-97031585D01*
X138972615Y-97031585D02*
X139018616Y-97071320D01*
X139018616Y-97071320D02*
X139063722Y-97101717D01*
X139063722Y-97101717D02*
X139849612Y-97101717D01*
X139849612Y-97101717D02*
X140046188Y-97101463D01*
X140046188Y-97101463D02*
X140216044Y-97100701D01*
X140216044Y-97100701D02*
X140359195Y-97099431D01*
X140359195Y-97099431D02*
X140475652Y-97097653D01*
X140475652Y-97097653D02*
X140565428Y-97095366D01*
X140565428Y-97095366D02*
X140628537Y-97092571D01*
X140628537Y-97092571D02*
X140664990Y-97089266D01*
X140664990Y-97089266D02*
X140673135Y-97087458D01*
X140673135Y-97087458D02*
X140734805Y-97051275D01*
X140734805Y-97051275D02*
X140779329Y-96999221D01*
X140779329Y-96999221D02*
X140806122Y-96936411D01*
X140806122Y-96936411D02*
X140814601Y-96867961D01*
X140814601Y-96867961D02*
X140804184Y-96798986D01*
X140804184Y-96798986D02*
X140774287Y-96734602D01*
X140774287Y-96734602D02*
X140724328Y-96679924D01*
X140724328Y-96679924D02*
X140719963Y-96676515D01*
X140719963Y-96676515D02*
X140672762Y-96640506D01*
X140672762Y-96640506D02*
X139889660Y-96636465D01*
X139889660Y-96636465D02*
X139693513Y-96635705D01*
X139693513Y-96635705D02*
X139523922Y-96635588D01*
X139523922Y-96635588D02*
X139380713Y-96636116D01*
X139380713Y-96636116D02*
X139263713Y-96637292D01*
X139263713Y-96637292D02*
X139172747Y-96639117D01*
X139172747Y-96639117D02*
X139107643Y-96641594D01*
X139107643Y-96641594D02*
X139068228Y-96644724D01*
X139068228Y-96644724D02*
X139057666Y-96646657D01*
X139057666Y-96646657D02*
X139002144Y-96675665D01*
X139002144Y-96675665D02*
X138955103Y-96724002D01*
X138955103Y-96724002D02*
X138920723Y-96784608D01*
X138920723Y-96784608D02*
X138903186Y-96850420D01*
X138903186Y-96850420D02*
X138177452Y-96850420D01*
X138177452Y-96850420D02*
X138177452Y-95925199D01*
X138177452Y-95925199D02*
X138904697Y-95925199D01*
X138904697Y-95925199D02*
X138911332Y-95963235D01*
X138911332Y-95963235D02*
X138942036Y-96037485D01*
X138942036Y-96037485D02*
X138990938Y-96092844D01*
X138990938Y-96092844D02*
X139059857Y-96131168D01*
X139059857Y-96131168D02*
X139084401Y-96139529D01*
X139084401Y-96139529D02*
X139106489Y-96142150D01*
X139106489Y-96142150D02*
X139152288Y-96144440D01*
X139152288Y-96144440D02*
X139218774Y-96146402D01*
X139218774Y-96146402D02*
X139302922Y-96148036D01*
X139302922Y-96148036D02*
X139401708Y-96149346D01*
X139401708Y-96149346D02*
X139512108Y-96150332D01*
X139512108Y-96150332D02*
X139631099Y-96150997D01*
X139631099Y-96150997D02*
X139755655Y-96151342D01*
X139755655Y-96151342D02*
X139882753Y-96151369D01*
X139882753Y-96151369D02*
X140009369Y-96151080D01*
X140009369Y-96151080D02*
X140132479Y-96150476D01*
X140132479Y-96150476D02*
X140249058Y-96149560D01*
X140249058Y-96149560D02*
X140356083Y-96148334D01*
X140356083Y-96148334D02*
X140450529Y-96146798D01*
X140450529Y-96146798D02*
X140529372Y-96144955D01*
X140529372Y-96144955D02*
X140589588Y-96142807D01*
X140589588Y-96142807D02*
X140628153Y-96140355D01*
X140628153Y-96140355D02*
X140640169Y-96138602D01*
X140640169Y-96138602D02*
X140711700Y-96105905D01*
X140711700Y-96105905D02*
X140766306Y-96054248D01*
X140766306Y-96054248D02*
X140801072Y-95987446D01*
X140801072Y-95987446D02*
X140813076Y-95912459D01*
X140813076Y-95912459D02*
X140802083Y-95832605D01*
X140802083Y-95832605D02*
X140768518Y-95765674D01*
X140768518Y-95765674D02*
X140713487Y-95713868D01*
X140713487Y-95713868D02*
X140713008Y-95713550D01*
X140713008Y-95713550D02*
X140659269Y-95677980D01*
X140659269Y-95677980D02*
X139882913Y-95674216D01*
X139882913Y-95674216D02*
X139716934Y-95673477D01*
X139716934Y-95673477D02*
X139575551Y-95673029D01*
X139575551Y-95673029D02*
X139456624Y-95672916D01*
X139456624Y-95672916D02*
X139358015Y-95673183D01*
X139358015Y-95673183D02*
X139277583Y-95673876D01*
X139277583Y-95673876D02*
X139213189Y-95675040D01*
X139213189Y-95675040D02*
X139162694Y-95676721D01*
X139162694Y-95676721D02*
X139123957Y-95678965D01*
X139123957Y-95678965D02*
X139094840Y-95681815D01*
X139094840Y-95681815D02*
X139073203Y-95685319D01*
X139073203Y-95685319D02*
X139056907Y-95689521D01*
X139056907Y-95689521D02*
X139050122Y-95691887D01*
X139050122Y-95691887D02*
X138985726Y-95729657D01*
X138985726Y-95729657D02*
X138938176Y-95784743D01*
X138938176Y-95784743D02*
X138910243Y-95851729D01*
X138910243Y-95851729D02*
X138904697Y-95925199D01*
X138904697Y-95925199D02*
X138177452Y-95925199D01*
X138177452Y-95925199D02*
X138177452Y-95190033D01*
X138177452Y-95190033D02*
X141546294Y-95190033D01*
X141546294Y-95190033D02*
X141546294Y-98539093D01*
X141546294Y-98539093D02*
X141546294Y-98539093D01*
G36*
X141546294Y-95190033D02*
G01*
X141546294Y-98539093D01*
X141302189Y-98782931D01*
X141058083Y-99026769D01*
X138657963Y-99026769D01*
X138417708Y-98786128D01*
X138177452Y-98545486D01*
X138177452Y-96850420D01*
X138903186Y-96850420D01*
X138904627Y-96905091D01*
X138928795Y-96970669D01*
X138972615Y-97031585D01*
X139018616Y-97071320D01*
X139063722Y-97101717D01*
X139849612Y-97101717D01*
X140046188Y-97101463D01*
X140216044Y-97100701D01*
X140359195Y-97099431D01*
X140475652Y-97097653D01*
X140565428Y-97095366D01*
X140628537Y-97092571D01*
X140664990Y-97089266D01*
X140673135Y-97087458D01*
X140734805Y-97051275D01*
X140779329Y-96999221D01*
X140806122Y-96936411D01*
X140814601Y-96867961D01*
X140804184Y-96798986D01*
X140774287Y-96734602D01*
X140724328Y-96679924D01*
X140719963Y-96676515D01*
X140672762Y-96640506D01*
X139889660Y-96636465D01*
X139693513Y-96635705D01*
X139523922Y-96635588D01*
X139380713Y-96636116D01*
X139263713Y-96637292D01*
X139172747Y-96639117D01*
X139107643Y-96641594D01*
X139068228Y-96644724D01*
X139057666Y-96646657D01*
X139002144Y-96675665D01*
X138955103Y-96724002D01*
X138920723Y-96784608D01*
X138903186Y-96850420D01*
X138177452Y-96850420D01*
X138177452Y-95925199D01*
X138904697Y-95925199D01*
X138911332Y-95963235D01*
X138942036Y-96037485D01*
X138990938Y-96092844D01*
X139059857Y-96131168D01*
X139084401Y-96139529D01*
X139106489Y-96142150D01*
X139152288Y-96144440D01*
X139218774Y-96146402D01*
X139302922Y-96148036D01*
X139401708Y-96149346D01*
X139512108Y-96150332D01*
X139631099Y-96150997D01*
X139755655Y-96151342D01*
X139882753Y-96151369D01*
X140009369Y-96151080D01*
X140132479Y-96150476D01*
X140249058Y-96149560D01*
X140356083Y-96148334D01*
X140450529Y-96146798D01*
X140529372Y-96144955D01*
X140589588Y-96142807D01*
X140628153Y-96140355D01*
X140640169Y-96138602D01*
X140711700Y-96105905D01*
X140766306Y-96054248D01*
X140801072Y-95987446D01*
X140813076Y-95912459D01*
X140802083Y-95832605D01*
X140768518Y-95765674D01*
X140713487Y-95713868D01*
X140713008Y-95713550D01*
X140659269Y-95677980D01*
X139882913Y-95674216D01*
X139716934Y-95673477D01*
X139575551Y-95673029D01*
X139456624Y-95672916D01*
X139358015Y-95673183D01*
X139277583Y-95673876D01*
X139213189Y-95675040D01*
X139162694Y-95676721D01*
X139123957Y-95678965D01*
X139094840Y-95681815D01*
X139073203Y-95685319D01*
X139056907Y-95689521D01*
X139050122Y-95691887D01*
X138985726Y-95729657D01*
X138938176Y-95784743D01*
X138910243Y-95851729D01*
X138904697Y-95925199D01*
X138177452Y-95925199D01*
X138177452Y-95190033D01*
X141546294Y-95190033D01*
G37*
X141546294Y-95190033D02*
X141546294Y-98539093D01*
X141302189Y-98782931D01*
X141058083Y-99026769D01*
X138657963Y-99026769D01*
X138417708Y-98786128D01*
X138177452Y-98545486D01*
X138177452Y-96850420D01*
X138903186Y-96850420D01*
X138904627Y-96905091D01*
X138928795Y-96970669D01*
X138972615Y-97031585D01*
X139018616Y-97071320D01*
X139063722Y-97101717D01*
X139849612Y-97101717D01*
X140046188Y-97101463D01*
X140216044Y-97100701D01*
X140359195Y-97099431D01*
X140475652Y-97097653D01*
X140565428Y-97095366D01*
X140628537Y-97092571D01*
X140664990Y-97089266D01*
X140673135Y-97087458D01*
X140734805Y-97051275D01*
X140779329Y-96999221D01*
X140806122Y-96936411D01*
X140814601Y-96867961D01*
X140804184Y-96798986D01*
X140774287Y-96734602D01*
X140724328Y-96679924D01*
X140719963Y-96676515D01*
X140672762Y-96640506D01*
X139889660Y-96636465D01*
X139693513Y-96635705D01*
X139523922Y-96635588D01*
X139380713Y-96636116D01*
X139263713Y-96637292D01*
X139172747Y-96639117D01*
X139107643Y-96641594D01*
X139068228Y-96644724D01*
X139057666Y-96646657D01*
X139002144Y-96675665D01*
X138955103Y-96724002D01*
X138920723Y-96784608D01*
X138903186Y-96850420D01*
X138177452Y-96850420D01*
X138177452Y-95925199D01*
X138904697Y-95925199D01*
X138911332Y-95963235D01*
X138942036Y-96037485D01*
X138990938Y-96092844D01*
X139059857Y-96131168D01*
X139084401Y-96139529D01*
X139106489Y-96142150D01*
X139152288Y-96144440D01*
X139218774Y-96146402D01*
X139302922Y-96148036D01*
X139401708Y-96149346D01*
X139512108Y-96150332D01*
X139631099Y-96150997D01*
X139755655Y-96151342D01*
X139882753Y-96151369D01*
X140009369Y-96151080D01*
X140132479Y-96150476D01*
X140249058Y-96149560D01*
X140356083Y-96148334D01*
X140450529Y-96146798D01*
X140529372Y-96144955D01*
X140589588Y-96142807D01*
X140628153Y-96140355D01*
X140640169Y-96138602D01*
X140711700Y-96105905D01*
X140766306Y-96054248D01*
X140801072Y-95987446D01*
X140813076Y-95912459D01*
X140802083Y-95832605D01*
X140768518Y-95765674D01*
X140713487Y-95713868D01*
X140713008Y-95713550D01*
X140659269Y-95677980D01*
X139882913Y-95674216D01*
X139716934Y-95673477D01*
X139575551Y-95673029D01*
X139456624Y-95672916D01*
X139358015Y-95673183D01*
X139277583Y-95673876D01*
X139213189Y-95675040D01*
X139162694Y-95676721D01*
X139123957Y-95678965D01*
X139094840Y-95681815D01*
X139073203Y-95685319D01*
X139056907Y-95689521D01*
X139050122Y-95691887D01*
X138985726Y-95729657D01*
X138938176Y-95784743D01*
X138910243Y-95851729D01*
X138904697Y-95925199D01*
X138177452Y-95925199D01*
X138177452Y-95190033D01*
X141546294Y-95190033D01*
X107589079Y-95132544D02*
X107687181Y-95134011D01*
X107687181Y-95134011D02*
X107762626Y-95135605D01*
X107762626Y-95135605D02*
X107819494Y-95137753D01*
X107819494Y-95137753D02*
X107861862Y-95140884D01*
X107861862Y-95140884D02*
X107893811Y-95145427D01*
X107893811Y-95145427D02*
X107919418Y-95151811D01*
X107919418Y-95151811D02*
X107942762Y-95160462D01*
X107942762Y-95160462D02*
X107967922Y-95171810D01*
X107967922Y-95171810D02*
X107969364Y-95172486D01*
X107969364Y-95172486D02*
X108056063Y-95226324D01*
X108056063Y-95226324D02*
X108133023Y-95299359D01*
X108133023Y-95299359D02*
X108192806Y-95384151D01*
X108192806Y-95384151D02*
X108205094Y-95408216D01*
X108205094Y-95408216D02*
X108240790Y-95484369D01*
X108240790Y-95484369D02*
X108247474Y-96995000D01*
X108247474Y-96995000D02*
X108254158Y-98505632D01*
X108254158Y-98505632D02*
X108486270Y-99080474D01*
X108486270Y-99080474D02*
X108533684Y-99197906D01*
X108533684Y-99197906D02*
X108578125Y-99307986D01*
X108578125Y-99307986D02*
X108618569Y-99408182D01*
X108618569Y-99408182D02*
X108653995Y-99495961D01*
X108653995Y-99495961D02*
X108683381Y-99568791D01*
X108683381Y-99568791D02*
X108705706Y-99624139D01*
X108705706Y-99624139D02*
X108719947Y-99659474D01*
X108719947Y-99659474D02*
X108724990Y-99672027D01*
X108724990Y-99672027D02*
X108721383Y-99675333D01*
X108721383Y-99675333D02*
X108706747Y-99678200D01*
X108706747Y-99678200D02*
X108679554Y-99680657D01*
X108679554Y-99680657D02*
X108638273Y-99682730D01*
X108638273Y-99682730D02*
X108581374Y-99684445D01*
X108581374Y-99684445D02*
X108507328Y-99685829D01*
X108507328Y-99685829D02*
X108414606Y-99686910D01*
X108414606Y-99686910D02*
X108301678Y-99687713D01*
X108301678Y-99687713D02*
X108167013Y-99688267D01*
X108167013Y-99688267D02*
X108009083Y-99688597D01*
X108009083Y-99688597D02*
X107826358Y-99688731D01*
X107826358Y-99688731D02*
X107772766Y-99688737D01*
X107772766Y-99688737D02*
X107589453Y-99688710D01*
X107589453Y-99688710D02*
X107431078Y-99688599D01*
X107431078Y-99688599D02*
X107295841Y-99688359D01*
X107295841Y-99688359D02*
X107181941Y-99687948D01*
X107181941Y-99687948D02*
X107087581Y-99687319D01*
X107087581Y-99687319D02*
X107010960Y-99686430D01*
X107010960Y-99686430D02*
X106950278Y-99685236D01*
X106950278Y-99685236D02*
X106903737Y-99683693D01*
X106903737Y-99683693D02*
X106869536Y-99681756D01*
X106869536Y-99681756D02*
X106845877Y-99679382D01*
X106845877Y-99679382D02*
X106830959Y-99676526D01*
X106830959Y-99676526D02*
X106822983Y-99673144D01*
X106822983Y-99673144D02*
X106820150Y-99669192D01*
X106820150Y-99669192D02*
X106820444Y-99665342D01*
X106820444Y-99665342D02*
X106826625Y-99648451D01*
X106826625Y-99648451D02*
X106841752Y-99609333D01*
X106841752Y-99609333D02*
X106864803Y-99550569D01*
X106864803Y-99550569D02*
X106894756Y-99474741D01*
X106894756Y-99474741D02*
X106930588Y-99384431D01*
X106930588Y-99384431D02*
X106971278Y-99282221D01*
X106971278Y-99282221D02*
X107015804Y-99170694D01*
X107015804Y-99170694D02*
X107055950Y-99070380D01*
X107055950Y-99070380D02*
X107284948Y-98498812D01*
X107284948Y-98498812D02*
X107284948Y-95128298D01*
X107284948Y-95128298D02*
X107589079Y-95132544D01*
X107589079Y-95132544D02*
X107589079Y-95132544D01*
G36*
X107589079Y-95132544D02*
G01*
X107687181Y-95134011D01*
X107762626Y-95135605D01*
X107819494Y-95137753D01*
X107861862Y-95140884D01*
X107893811Y-95145427D01*
X107919418Y-95151811D01*
X107942762Y-95160462D01*
X107967922Y-95171810D01*
X107969364Y-95172486D01*
X108056063Y-95226324D01*
X108133023Y-95299359D01*
X108192806Y-95384151D01*
X108205094Y-95408216D01*
X108240790Y-95484369D01*
X108247474Y-96995000D01*
X108254158Y-98505632D01*
X108486270Y-99080474D01*
X108533684Y-99197906D01*
X108578125Y-99307986D01*
X108618569Y-99408182D01*
X108653995Y-99495961D01*
X108683381Y-99568791D01*
X108705706Y-99624139D01*
X108719947Y-99659474D01*
X108724990Y-99672027D01*
X108721383Y-99675333D01*
X108706747Y-99678200D01*
X108679554Y-99680657D01*
X108638273Y-99682730D01*
X108581374Y-99684445D01*
X108507328Y-99685829D01*
X108414606Y-99686910D01*
X108301678Y-99687713D01*
X108167013Y-99688267D01*
X108009083Y-99688597D01*
X107826358Y-99688731D01*
X107772766Y-99688737D01*
X107589453Y-99688710D01*
X107431078Y-99688599D01*
X107295841Y-99688359D01*
X107181941Y-99687948D01*
X107087581Y-99687319D01*
X107010960Y-99686430D01*
X106950278Y-99685236D01*
X106903737Y-99683693D01*
X106869536Y-99681756D01*
X106845877Y-99679382D01*
X106830959Y-99676526D01*
X106822983Y-99673144D01*
X106820150Y-99669192D01*
X106820444Y-99665342D01*
X106826625Y-99648451D01*
X106841752Y-99609333D01*
X106864803Y-99550569D01*
X106894756Y-99474741D01*
X106930588Y-99384431D01*
X106971278Y-99282221D01*
X107015804Y-99170694D01*
X107055950Y-99070380D01*
X107284948Y-98498812D01*
X107284948Y-95128298D01*
X107589079Y-95132544D01*
G37*
X107589079Y-95132544D02*
X107687181Y-95134011D01*
X107762626Y-95135605D01*
X107819494Y-95137753D01*
X107861862Y-95140884D01*
X107893811Y-95145427D01*
X107919418Y-95151811D01*
X107942762Y-95160462D01*
X107967922Y-95171810D01*
X107969364Y-95172486D01*
X108056063Y-95226324D01*
X108133023Y-95299359D01*
X108192806Y-95384151D01*
X108205094Y-95408216D01*
X108240790Y-95484369D01*
X108247474Y-96995000D01*
X108254158Y-98505632D01*
X108486270Y-99080474D01*
X108533684Y-99197906D01*
X108578125Y-99307986D01*
X108618569Y-99408182D01*
X108653995Y-99495961D01*
X108683381Y-99568791D01*
X108705706Y-99624139D01*
X108719947Y-99659474D01*
X108724990Y-99672027D01*
X108721383Y-99675333D01*
X108706747Y-99678200D01*
X108679554Y-99680657D01*
X108638273Y-99682730D01*
X108581374Y-99684445D01*
X108507328Y-99685829D01*
X108414606Y-99686910D01*
X108301678Y-99687713D01*
X108167013Y-99688267D01*
X108009083Y-99688597D01*
X107826358Y-99688731D01*
X107772766Y-99688737D01*
X107589453Y-99688710D01*
X107431078Y-99688599D01*
X107295841Y-99688359D01*
X107181941Y-99687948D01*
X107087581Y-99687319D01*
X107010960Y-99686430D01*
X106950278Y-99685236D01*
X106903737Y-99683693D01*
X106869536Y-99681756D01*
X106845877Y-99679382D01*
X106830959Y-99676526D01*
X106822983Y-99673144D01*
X106820150Y-99669192D01*
X106820444Y-99665342D01*
X106826625Y-99648451D01*
X106841752Y-99609333D01*
X106864803Y-99550569D01*
X106894756Y-99474741D01*
X106930588Y-99384431D01*
X106971278Y-99282221D01*
X107015804Y-99170694D01*
X107055950Y-99070380D01*
X107284948Y-98498812D01*
X107284948Y-95128298D01*
X107589079Y-95132544D01*
X107057684Y-98479166D02*
X106813579Y-98723004D01*
X106813579Y-98723004D02*
X106569473Y-98966842D01*
X106569473Y-98966842D02*
X104169353Y-98966842D01*
X104169353Y-98966842D02*
X103929098Y-98726201D01*
X103929098Y-98726201D02*
X103688842Y-98485559D01*
X103688842Y-98485559D02*
X103688842Y-96790493D01*
X103688842Y-96790493D02*
X104414576Y-96790493D01*
X104414576Y-96790493D02*
X104416017Y-96845164D01*
X104416017Y-96845164D02*
X104440185Y-96910742D01*
X104440185Y-96910742D02*
X104484005Y-96971658D01*
X104484005Y-96971658D02*
X104530006Y-97011393D01*
X104530006Y-97011393D02*
X104575112Y-97041790D01*
X104575112Y-97041790D02*
X105361002Y-97041790D01*
X105361002Y-97041790D02*
X105557578Y-97041536D01*
X105557578Y-97041536D02*
X105727434Y-97040774D01*
X105727434Y-97040774D02*
X105870585Y-97039504D01*
X105870585Y-97039504D02*
X105987042Y-97037726D01*
X105987042Y-97037726D02*
X106076818Y-97035439D01*
X106076818Y-97035439D02*
X106139927Y-97032644D01*
X106139927Y-97032644D02*
X106176380Y-97029339D01*
X106176380Y-97029339D02*
X106184525Y-97027531D01*
X106184525Y-97027531D02*
X106246195Y-96991348D01*
X106246195Y-96991348D02*
X106290719Y-96939294D01*
X106290719Y-96939294D02*
X106317512Y-96876484D01*
X106317512Y-96876484D02*
X106325991Y-96808034D01*
X106325991Y-96808034D02*
X106315574Y-96739059D01*
X106315574Y-96739059D02*
X106285677Y-96674675D01*
X106285677Y-96674675D02*
X106235718Y-96619997D01*
X106235718Y-96619997D02*
X106231353Y-96616588D01*
X106231353Y-96616588D02*
X106184152Y-96580579D01*
X106184152Y-96580579D02*
X105401050Y-96576538D01*
X105401050Y-96576538D02*
X105204903Y-96575778D01*
X105204903Y-96575778D02*
X105035312Y-96575661D01*
X105035312Y-96575661D02*
X104892103Y-96576189D01*
X104892103Y-96576189D02*
X104775103Y-96577365D01*
X104775103Y-96577365D02*
X104684137Y-96579190D01*
X104684137Y-96579190D02*
X104619033Y-96581667D01*
X104619033Y-96581667D02*
X104579618Y-96584797D01*
X104579618Y-96584797D02*
X104569056Y-96586730D01*
X104569056Y-96586730D02*
X104513534Y-96615738D01*
X104513534Y-96615738D02*
X104466493Y-96664075D01*
X104466493Y-96664075D02*
X104432113Y-96724681D01*
X104432113Y-96724681D02*
X104414576Y-96790493D01*
X104414576Y-96790493D02*
X103688842Y-96790493D01*
X103688842Y-96790493D02*
X103688842Y-95865272D01*
X103688842Y-95865272D02*
X104416087Y-95865272D01*
X104416087Y-95865272D02*
X104422722Y-95903308D01*
X104422722Y-95903308D02*
X104453426Y-95977558D01*
X104453426Y-95977558D02*
X104502328Y-96032917D01*
X104502328Y-96032917D02*
X104571247Y-96071241D01*
X104571247Y-96071241D02*
X104595791Y-96079602D01*
X104595791Y-96079602D02*
X104617879Y-96082223D01*
X104617879Y-96082223D02*
X104663678Y-96084513D01*
X104663678Y-96084513D02*
X104730164Y-96086475D01*
X104730164Y-96086475D02*
X104814312Y-96088109D01*
X104814312Y-96088109D02*
X104913098Y-96089419D01*
X104913098Y-96089419D02*
X105023498Y-96090405D01*
X105023498Y-96090405D02*
X105142489Y-96091070D01*
X105142489Y-96091070D02*
X105267045Y-96091415D01*
X105267045Y-96091415D02*
X105394143Y-96091442D01*
X105394143Y-96091442D02*
X105520759Y-96091153D01*
X105520759Y-96091153D02*
X105643869Y-96090549D01*
X105643869Y-96090549D02*
X105760448Y-96089633D01*
X105760448Y-96089633D02*
X105867473Y-96088407D01*
X105867473Y-96088407D02*
X105961919Y-96086871D01*
X105961919Y-96086871D02*
X106040762Y-96085028D01*
X106040762Y-96085028D02*
X106100978Y-96082880D01*
X106100978Y-96082880D02*
X106139543Y-96080428D01*
X106139543Y-96080428D02*
X106151559Y-96078675D01*
X106151559Y-96078675D02*
X106223090Y-96045978D01*
X106223090Y-96045978D02*
X106277696Y-95994321D01*
X106277696Y-95994321D02*
X106312462Y-95927519D01*
X106312462Y-95927519D02*
X106324466Y-95852532D01*
X106324466Y-95852532D02*
X106313473Y-95772678D01*
X106313473Y-95772678D02*
X106279908Y-95705747D01*
X106279908Y-95705747D02*
X106224877Y-95653941D01*
X106224877Y-95653941D02*
X106224398Y-95653623D01*
X106224398Y-95653623D02*
X106170659Y-95618053D01*
X106170659Y-95618053D02*
X105394303Y-95614289D01*
X105394303Y-95614289D02*
X105228324Y-95613550D01*
X105228324Y-95613550D02*
X105086941Y-95613102D01*
X105086941Y-95613102D02*
X104968014Y-95612989D01*
X104968014Y-95612989D02*
X104869405Y-95613256D01*
X104869405Y-95613256D02*
X104788973Y-95613949D01*
X104788973Y-95613949D02*
X104724579Y-95615113D01*
X104724579Y-95615113D02*
X104674084Y-95616794D01*
X104674084Y-95616794D02*
X104635347Y-95619038D01*
X104635347Y-95619038D02*
X104606230Y-95621888D01*
X104606230Y-95621888D02*
X104584593Y-95625392D01*
X104584593Y-95625392D02*
X104568297Y-95629594D01*
X104568297Y-95629594D02*
X104561512Y-95631960D01*
X104561512Y-95631960D02*
X104497116Y-95669730D01*
X104497116Y-95669730D02*
X104449566Y-95724816D01*
X104449566Y-95724816D02*
X104421633Y-95791802D01*
X104421633Y-95791802D02*
X104416087Y-95865272D01*
X104416087Y-95865272D02*
X103688842Y-95865272D01*
X103688842Y-95865272D02*
X103688842Y-95130106D01*
X103688842Y-95130106D02*
X107057684Y-95130106D01*
X107057684Y-95130106D02*
X107057684Y-98479166D01*
X107057684Y-98479166D02*
X107057684Y-98479166D01*
G36*
X107057684Y-95130106D02*
G01*
X107057684Y-98479166D01*
X106813579Y-98723004D01*
X106569473Y-98966842D01*
X104169353Y-98966842D01*
X103929098Y-98726201D01*
X103688842Y-98485559D01*
X103688842Y-96790493D01*
X104414576Y-96790493D01*
X104416017Y-96845164D01*
X104440185Y-96910742D01*
X104484005Y-96971658D01*
X104530006Y-97011393D01*
X104575112Y-97041790D01*
X105361002Y-97041790D01*
X105557578Y-97041536D01*
X105727434Y-97040774D01*
X105870585Y-97039504D01*
X105987042Y-97037726D01*
X106076818Y-97035439D01*
X106139927Y-97032644D01*
X106176380Y-97029339D01*
X106184525Y-97027531D01*
X106246195Y-96991348D01*
X106290719Y-96939294D01*
X106317512Y-96876484D01*
X106325991Y-96808034D01*
X106315574Y-96739059D01*
X106285677Y-96674675D01*
X106235718Y-96619997D01*
X106231353Y-96616588D01*
X106184152Y-96580579D01*
X105401050Y-96576538D01*
X105204903Y-96575778D01*
X105035312Y-96575661D01*
X104892103Y-96576189D01*
X104775103Y-96577365D01*
X104684137Y-96579190D01*
X104619033Y-96581667D01*
X104579618Y-96584797D01*
X104569056Y-96586730D01*
X104513534Y-96615738D01*
X104466493Y-96664075D01*
X104432113Y-96724681D01*
X104414576Y-96790493D01*
X103688842Y-96790493D01*
X103688842Y-95865272D01*
X104416087Y-95865272D01*
X104422722Y-95903308D01*
X104453426Y-95977558D01*
X104502328Y-96032917D01*
X104571247Y-96071241D01*
X104595791Y-96079602D01*
X104617879Y-96082223D01*
X104663678Y-96084513D01*
X104730164Y-96086475D01*
X104814312Y-96088109D01*
X104913098Y-96089419D01*
X105023498Y-96090405D01*
X105142489Y-96091070D01*
X105267045Y-96091415D01*
X105394143Y-96091442D01*
X105520759Y-96091153D01*
X105643869Y-96090549D01*
X105760448Y-96089633D01*
X105867473Y-96088407D01*
X105961919Y-96086871D01*
X106040762Y-96085028D01*
X106100978Y-96082880D01*
X106139543Y-96080428D01*
X106151559Y-96078675D01*
X106223090Y-96045978D01*
X106277696Y-95994321D01*
X106312462Y-95927519D01*
X106324466Y-95852532D01*
X106313473Y-95772678D01*
X106279908Y-95705747D01*
X106224877Y-95653941D01*
X106224398Y-95653623D01*
X106170659Y-95618053D01*
X105394303Y-95614289D01*
X105228324Y-95613550D01*
X105086941Y-95613102D01*
X104968014Y-95612989D01*
X104869405Y-95613256D01*
X104788973Y-95613949D01*
X104724579Y-95615113D01*
X104674084Y-95616794D01*
X104635347Y-95619038D01*
X104606230Y-95621888D01*
X104584593Y-95625392D01*
X104568297Y-95629594D01*
X104561512Y-95631960D01*
X104497116Y-95669730D01*
X104449566Y-95724816D01*
X104421633Y-95791802D01*
X104416087Y-95865272D01*
X103688842Y-95865272D01*
X103688842Y-95130106D01*
X107057684Y-95130106D01*
G37*
X107057684Y-95130106D02*
X107057684Y-98479166D01*
X106813579Y-98723004D01*
X106569473Y-98966842D01*
X104169353Y-98966842D01*
X103929098Y-98726201D01*
X103688842Y-98485559D01*
X103688842Y-96790493D01*
X104414576Y-96790493D01*
X104416017Y-96845164D01*
X104440185Y-96910742D01*
X104484005Y-96971658D01*
X104530006Y-97011393D01*
X104575112Y-97041790D01*
X105361002Y-97041790D01*
X105557578Y-97041536D01*
X105727434Y-97040774D01*
X105870585Y-97039504D01*
X105987042Y-97037726D01*
X106076818Y-97035439D01*
X106139927Y-97032644D01*
X106176380Y-97029339D01*
X106184525Y-97027531D01*
X106246195Y-96991348D01*
X106290719Y-96939294D01*
X106317512Y-96876484D01*
X106325991Y-96808034D01*
X106315574Y-96739059D01*
X106285677Y-96674675D01*
X106235718Y-96619997D01*
X106231353Y-96616588D01*
X106184152Y-96580579D01*
X105401050Y-96576538D01*
X105204903Y-96575778D01*
X105035312Y-96575661D01*
X104892103Y-96576189D01*
X104775103Y-96577365D01*
X104684137Y-96579190D01*
X104619033Y-96581667D01*
X104579618Y-96584797D01*
X104569056Y-96586730D01*
X104513534Y-96615738D01*
X104466493Y-96664075D01*
X104432113Y-96724681D01*
X104414576Y-96790493D01*
X103688842Y-96790493D01*
X103688842Y-95865272D01*
X104416087Y-95865272D01*
X104422722Y-95903308D01*
X104453426Y-95977558D01*
X104502328Y-96032917D01*
X104571247Y-96071241D01*
X104595791Y-96079602D01*
X104617879Y-96082223D01*
X104663678Y-96084513D01*
X104730164Y-96086475D01*
X104814312Y-96088109D01*
X104913098Y-96089419D01*
X105023498Y-96090405D01*
X105142489Y-96091070D01*
X105267045Y-96091415D01*
X105394143Y-96091442D01*
X105520759Y-96091153D01*
X105643869Y-96090549D01*
X105760448Y-96089633D01*
X105867473Y-96088407D01*
X105961919Y-96086871D01*
X106040762Y-96085028D01*
X106100978Y-96082880D01*
X106139543Y-96080428D01*
X106151559Y-96078675D01*
X106223090Y-96045978D01*
X106277696Y-95994321D01*
X106312462Y-95927519D01*
X106324466Y-95852532D01*
X106313473Y-95772678D01*
X106279908Y-95705747D01*
X106224877Y-95653941D01*
X106224398Y-95653623D01*
X106170659Y-95618053D01*
X105394303Y-95614289D01*
X105228324Y-95613550D01*
X105086941Y-95613102D01*
X104968014Y-95612989D01*
X104869405Y-95613256D01*
X104788973Y-95613949D01*
X104724579Y-95615113D01*
X104674084Y-95616794D01*
X104635347Y-95619038D01*
X104606230Y-95621888D01*
X104584593Y-95625392D01*
X104568297Y-95629594D01*
X104561512Y-95631960D01*
X104497116Y-95669730D01*
X104449566Y-95724816D01*
X104421633Y-95791802D01*
X104416087Y-95865272D01*
X103688842Y-95865272D01*
X103688842Y-95130106D01*
X107057684Y-95130106D01*
X105631018Y-92990709D02*
X105826614Y-93034212D01*
X105826614Y-93034212D02*
X106015395Y-93100653D01*
X106015395Y-93100653D02*
X106195103Y-93188765D01*
X106195103Y-93188765D02*
X106363483Y-93297282D01*
X106363483Y-93297282D02*
X106518277Y-93424937D01*
X106518277Y-93424937D02*
X106657230Y-93570464D01*
X106657230Y-93570464D02*
X106778084Y-93732597D01*
X106778084Y-93732597D02*
X106874311Y-93901323D01*
X106874311Y-93901323D02*
X106929641Y-94022993D01*
X106929641Y-94022993D02*
X106972936Y-94141037D01*
X106972936Y-94141037D02*
X107005607Y-94261581D01*
X107005607Y-94261581D02*
X107029064Y-94390748D01*
X107029064Y-94390748D02*
X107044719Y-94534665D01*
X107044719Y-94534665D02*
X107053128Y-94677548D01*
X107053128Y-94677548D02*
X107061865Y-94889474D01*
X107061865Y-94889474D02*
X103684967Y-94889474D01*
X103684967Y-94889474D02*
X103692468Y-94658869D01*
X103692468Y-94658869D02*
X103696568Y-94568485D01*
X103696568Y-94568485D02*
X103702628Y-94481419D01*
X103702628Y-94481419D02*
X103710043Y-94404590D01*
X103710043Y-94404590D02*
X103713297Y-94380802D01*
X103713297Y-94380802D02*
X106098197Y-94380802D01*
X106098197Y-94380802D02*
X106099481Y-94447850D01*
X106099481Y-94447850D02*
X106119334Y-94512271D01*
X106119334Y-94512271D02*
X106158146Y-94569359D01*
X106158146Y-94569359D02*
X106216310Y-94614411D01*
X106216310Y-94614411D02*
X106233975Y-94623267D01*
X106233975Y-94623267D02*
X106307924Y-94645496D01*
X106307924Y-94645496D02*
X106379316Y-94642158D01*
X106379316Y-94642158D02*
X106438705Y-94620822D01*
X106438705Y-94620822D02*
X106494581Y-94580168D01*
X106494581Y-94580168D02*
X106535491Y-94523278D01*
X106535491Y-94523278D02*
X106559616Y-94456621D01*
X106559616Y-94456621D02*
X106565135Y-94386668D01*
X106565135Y-94386668D02*
X106550228Y-94319889D01*
X106550228Y-94319889D02*
X106532656Y-94286848D01*
X106532656Y-94286848D02*
X106478464Y-94227299D01*
X106478464Y-94227299D02*
X106412584Y-94188694D01*
X106412584Y-94188694D02*
X106339811Y-94172983D01*
X106339811Y-94172983D02*
X106270891Y-94180424D01*
X106270891Y-94180424D02*
X106201827Y-94210938D01*
X106201827Y-94210938D02*
X106149762Y-94257642D01*
X106149762Y-94257642D02*
X106115088Y-94315832D01*
X106115088Y-94315832D02*
X106098197Y-94380802D01*
X106098197Y-94380802D02*
X103713297Y-94380802D01*
X103713297Y-94380802D02*
X103718206Y-94344918D01*
X103718206Y-94344918D02*
X103721417Y-94328000D01*
X103721417Y-94328000D02*
X103777321Y-94121728D01*
X103777321Y-94121728D02*
X103853849Y-93931557D01*
X103853849Y-93931557D02*
X103923724Y-93806308D01*
X103923724Y-93806308D02*
X104898705Y-93806308D01*
X104898705Y-93806308D02*
X104899939Y-93867355D01*
X104899939Y-93867355D02*
X104905179Y-93912572D01*
X104905179Y-93912572D02*
X104916696Y-93952812D01*
X104916696Y-93952812D02*
X104936759Y-93998925D01*
X104936759Y-93998925D02*
X104940713Y-94007158D01*
X104940713Y-94007158D02*
X105002327Y-94108018D01*
X105002327Y-94108018D02*
X105078427Y-94186679D01*
X105078427Y-94186679D02*
X105168079Y-94242573D01*
X105168079Y-94242573D02*
X105270348Y-94275134D01*
X105270348Y-94275134D02*
X105384301Y-94283797D01*
X105384301Y-94283797D02*
X105396255Y-94283329D01*
X105396255Y-94283329D02*
X105466035Y-94276108D01*
X105466035Y-94276108D02*
X105526119Y-94259459D01*
X105526119Y-94259459D02*
X105579199Y-94236046D01*
X105579199Y-94236046D02*
X105675619Y-94174810D01*
X105675619Y-94174810D02*
X105751544Y-94096952D01*
X105751544Y-94096952D02*
X105805875Y-94004257D01*
X105805875Y-94004257D02*
X105837511Y-93898507D01*
X105837511Y-93898507D02*
X105845746Y-93803972D01*
X105845746Y-93803972D02*
X105844469Y-93748352D01*
X105844469Y-93748352D02*
X105838620Y-93705447D01*
X105838620Y-93705447D02*
X105825469Y-93664032D01*
X105825469Y-93664032D02*
X105802283Y-93612880D01*
X105802283Y-93612880D02*
X105796255Y-93600602D01*
X105796255Y-93600602D02*
X105748492Y-93519757D01*
X105748492Y-93519757D02*
X105691120Y-93455750D01*
X105691120Y-93455750D02*
X105617237Y-93401648D01*
X105617237Y-93401648D02*
X105573790Y-93377112D01*
X105573790Y-93377112D02*
X105542333Y-93362357D01*
X105542333Y-93362357D02*
X105510762Y-93352975D01*
X105510762Y-93352975D02*
X105471750Y-93347809D01*
X105471750Y-93347809D02*
X105417967Y-93345701D01*
X105417967Y-93345701D02*
X105373263Y-93345421D01*
X105373263Y-93345421D02*
X105303361Y-93346463D01*
X105303361Y-93346463D02*
X105252750Y-93350280D01*
X105252750Y-93350280D02*
X105214040Y-93357914D01*
X105214040Y-93357914D02*
X105179842Y-93370405D01*
X105179842Y-93370405D02*
X105172737Y-93373651D01*
X105172737Y-93373651D02*
X105082775Y-93429911D01*
X105082775Y-93429911D02*
X105005074Y-93506593D01*
X105005074Y-93506593D02*
X104945081Y-93598263D01*
X104945081Y-93598263D02*
X104942644Y-93603144D01*
X104942644Y-93603144D02*
X104920271Y-93651632D01*
X104920271Y-93651632D02*
X104907063Y-93691644D01*
X104907063Y-93691644D02*
X104900675Y-93734025D01*
X104900675Y-93734025D02*
X104898760Y-93789623D01*
X104898760Y-93789623D02*
X104898705Y-93806308D01*
X104898705Y-93806308D02*
X103923724Y-93806308D01*
X103923724Y-93806308D02*
X103952273Y-93755136D01*
X103952273Y-93755136D02*
X104073863Y-93590119D01*
X104073863Y-93590119D02*
X104188914Y-93464493D01*
X104188914Y-93464493D02*
X104346602Y-93323000D01*
X104346602Y-93323000D02*
X104512400Y-93206428D01*
X104512400Y-93206428D02*
X104688121Y-93113929D01*
X104688121Y-93113929D02*
X104875577Y-93044653D01*
X104875577Y-93044653D02*
X105076580Y-92997753D01*
X105076580Y-92997753D02*
X105228404Y-92977581D01*
X105228404Y-92977581D02*
X105430862Y-92971410D01*
X105430862Y-92971410D02*
X105631018Y-92990709D01*
X105631018Y-92990709D02*
X105631018Y-92990709D01*
G36*
X103721417Y-94328000D02*
G01*
X103777321Y-94121728D01*
X103853849Y-93931557D01*
X103923724Y-93806308D01*
X104898705Y-93806308D01*
X104899939Y-93867355D01*
X104905179Y-93912572D01*
X104916696Y-93952812D01*
X104936759Y-93998925D01*
X104940713Y-94007158D01*
X105002327Y-94108018D01*
X105078427Y-94186679D01*
X105168079Y-94242573D01*
X105270348Y-94275134D01*
X105384301Y-94283797D01*
X105396255Y-94283329D01*
X105466035Y-94276108D01*
X105526119Y-94259459D01*
X105579199Y-94236046D01*
X105675619Y-94174810D01*
X105751544Y-94096952D01*
X105805875Y-94004257D01*
X105837511Y-93898507D01*
X105845746Y-93803972D01*
X105844469Y-93748352D01*
X105838620Y-93705447D01*
X105825469Y-93664032D01*
X105802283Y-93612880D01*
X105796255Y-93600602D01*
X105748492Y-93519757D01*
X105691120Y-93455750D01*
X105617237Y-93401648D01*
X105573790Y-93377112D01*
X105542333Y-93362357D01*
X105510762Y-93352975D01*
X105471750Y-93347809D01*
X105417967Y-93345701D01*
X105373263Y-93345421D01*
X105303361Y-93346463D01*
X105252750Y-93350280D01*
X105214040Y-93357914D01*
X105179842Y-93370405D01*
X105172737Y-93373651D01*
X105082775Y-93429911D01*
X105005074Y-93506593D01*
X104945081Y-93598263D01*
X104942644Y-93603144D01*
X104920271Y-93651632D01*
X104907063Y-93691644D01*
X104900675Y-93734025D01*
X104898760Y-93789623D01*
X104898705Y-93806308D01*
X103923724Y-93806308D01*
X103952273Y-93755136D01*
X104073863Y-93590119D01*
X104188914Y-93464493D01*
X104346602Y-93323000D01*
X104512400Y-93206428D01*
X104688121Y-93113929D01*
X104875577Y-93044653D01*
X105076580Y-92997753D01*
X105228404Y-92977581D01*
X105430862Y-92971410D01*
X105631018Y-92990709D01*
X105826614Y-93034212D01*
X106015395Y-93100653D01*
X106195103Y-93188765D01*
X106363483Y-93297282D01*
X106518277Y-93424937D01*
X106657230Y-93570464D01*
X106778084Y-93732597D01*
X106874311Y-93901323D01*
X106929641Y-94022993D01*
X106972936Y-94141037D01*
X107005607Y-94261581D01*
X107029064Y-94390748D01*
X107044719Y-94534665D01*
X107053128Y-94677548D01*
X107061865Y-94889474D01*
X103684967Y-94889474D01*
X103692468Y-94658869D01*
X103696568Y-94568485D01*
X103702628Y-94481419D01*
X103710043Y-94404590D01*
X103713297Y-94380802D01*
X106098197Y-94380802D01*
X106099481Y-94447850D01*
X106119334Y-94512271D01*
X106158146Y-94569359D01*
X106216310Y-94614411D01*
X106233975Y-94623267D01*
X106307924Y-94645496D01*
X106379316Y-94642158D01*
X106438705Y-94620822D01*
X106494581Y-94580168D01*
X106535491Y-94523278D01*
X106559616Y-94456621D01*
X106565135Y-94386668D01*
X106550228Y-94319889D01*
X106532656Y-94286848D01*
X106478464Y-94227299D01*
X106412584Y-94188694D01*
X106339811Y-94172983D01*
X106270891Y-94180424D01*
X106201827Y-94210938D01*
X106149762Y-94257642D01*
X106115088Y-94315832D01*
X106098197Y-94380802D01*
X103713297Y-94380802D01*
X103718206Y-94344918D01*
X103721417Y-94328000D01*
G37*
X103721417Y-94328000D02*
X103777321Y-94121728D01*
X103853849Y-93931557D01*
X103923724Y-93806308D01*
X104898705Y-93806308D01*
X104899939Y-93867355D01*
X104905179Y-93912572D01*
X104916696Y-93952812D01*
X104936759Y-93998925D01*
X104940713Y-94007158D01*
X105002327Y-94108018D01*
X105078427Y-94186679D01*
X105168079Y-94242573D01*
X105270348Y-94275134D01*
X105384301Y-94283797D01*
X105396255Y-94283329D01*
X105466035Y-94276108D01*
X105526119Y-94259459D01*
X105579199Y-94236046D01*
X105675619Y-94174810D01*
X105751544Y-94096952D01*
X105805875Y-94004257D01*
X105837511Y-93898507D01*
X105845746Y-93803972D01*
X105844469Y-93748352D01*
X105838620Y-93705447D01*
X105825469Y-93664032D01*
X105802283Y-93612880D01*
X105796255Y-93600602D01*
X105748492Y-93519757D01*
X105691120Y-93455750D01*
X105617237Y-93401648D01*
X105573790Y-93377112D01*
X105542333Y-93362357D01*
X105510762Y-93352975D01*
X105471750Y-93347809D01*
X105417967Y-93345701D01*
X105373263Y-93345421D01*
X105303361Y-93346463D01*
X105252750Y-93350280D01*
X105214040Y-93357914D01*
X105179842Y-93370405D01*
X105172737Y-93373651D01*
X105082775Y-93429911D01*
X105005074Y-93506593D01*
X104945081Y-93598263D01*
X104942644Y-93603144D01*
X104920271Y-93651632D01*
X104907063Y-93691644D01*
X104900675Y-93734025D01*
X104898760Y-93789623D01*
X104898705Y-93806308D01*
X103923724Y-93806308D01*
X103952273Y-93755136D01*
X104073863Y-93590119D01*
X104188914Y-93464493D01*
X104346602Y-93323000D01*
X104512400Y-93206428D01*
X104688121Y-93113929D01*
X104875577Y-93044653D01*
X105076580Y-92997753D01*
X105228404Y-92977581D01*
X105430862Y-92971410D01*
X105631018Y-92990709D01*
X105826614Y-93034212D01*
X106015395Y-93100653D01*
X106195103Y-93188765D01*
X106363483Y-93297282D01*
X106518277Y-93424937D01*
X106657230Y-93570464D01*
X106778084Y-93732597D01*
X106874311Y-93901323D01*
X106929641Y-94022993D01*
X106972936Y-94141037D01*
X107005607Y-94261581D01*
X107029064Y-94390748D01*
X107044719Y-94534665D01*
X107053128Y-94677548D01*
X107061865Y-94889474D01*
X103684967Y-94889474D01*
X103692468Y-94658869D01*
X103696568Y-94568485D01*
X103702628Y-94481419D01*
X103710043Y-94404590D01*
X103713297Y-94380802D01*
X106098197Y-94380802D01*
X106099481Y-94447850D01*
X106119334Y-94512271D01*
X106158146Y-94569359D01*
X106216310Y-94614411D01*
X106233975Y-94623267D01*
X106307924Y-94645496D01*
X106379316Y-94642158D01*
X106438705Y-94620822D01*
X106494581Y-94580168D01*
X106535491Y-94523278D01*
X106559616Y-94456621D01*
X106565135Y-94386668D01*
X106550228Y-94319889D01*
X106532656Y-94286848D01*
X106478464Y-94227299D01*
X106412584Y-94188694D01*
X106339811Y-94172983D01*
X106270891Y-94180424D01*
X106201827Y-94210938D01*
X106149762Y-94257642D01*
X106115088Y-94315832D01*
X106098197Y-94380802D01*
X103713297Y-94380802D01*
X103718206Y-94344918D01*
X103721417Y-94328000D01*
X103448211Y-98472082D02*
X103688842Y-99073790D01*
X103688842Y-99073790D02*
X103736710Y-99193616D01*
X103736710Y-99193616D02*
X103781408Y-99305767D01*
X103781408Y-99305767D02*
X103821981Y-99407821D01*
X103821981Y-99407821D02*
X103857471Y-99497359D01*
X103857471Y-99497359D02*
X103886919Y-99571959D01*
X103886919Y-99571959D02*
X103909368Y-99629201D01*
X103909368Y-99629201D02*
X103923862Y-99666664D01*
X103923862Y-99666664D02*
X103929441Y-99681926D01*
X103929441Y-99681926D02*
X103929474Y-99682117D01*
X103929474Y-99682117D02*
X103916458Y-99683206D01*
X103916458Y-99683206D02*
X103878822Y-99684239D01*
X103878822Y-99684239D02*
X103818683Y-99685201D01*
X103818683Y-99685201D02*
X103738157Y-99686079D01*
X103738157Y-99686079D02*
X103639360Y-99686856D01*
X103639360Y-99686856D02*
X103524410Y-99687519D01*
X103524410Y-99687519D02*
X103395423Y-99688053D01*
X103395423Y-99688053D02*
X103254515Y-99688444D01*
X103254515Y-99688444D02*
X103103804Y-99688676D01*
X103103804Y-99688676D02*
X102973632Y-99688737D01*
X102973632Y-99688737D02*
X102816428Y-99688643D01*
X102816428Y-99688643D02*
X102667282Y-99688369D01*
X102667282Y-99688369D02*
X102528310Y-99687933D01*
X102528310Y-99687933D02*
X102401631Y-99687348D01*
X102401631Y-99687348D02*
X102289359Y-99686631D01*
X102289359Y-99686631D02*
X102193612Y-99685797D01*
X102193612Y-99685797D02*
X102116506Y-99684860D01*
X102116506Y-99684860D02*
X102060158Y-99683837D01*
X102060158Y-99683837D02*
X102026684Y-99682743D01*
X102026684Y-99682743D02*
X102017790Y-99681798D01*
X102017790Y-99681798D02*
X102022584Y-99668356D01*
X102022584Y-99668356D02*
X102036323Y-99632539D01*
X102036323Y-99632539D02*
X102058040Y-99576802D01*
X102058040Y-99576802D02*
X102086769Y-99503602D01*
X102086769Y-99503602D02*
X102121544Y-99415396D01*
X102121544Y-99415396D02*
X102161398Y-99314639D01*
X102161398Y-99314639D02*
X102205364Y-99203789D01*
X102205364Y-99203789D02*
X102251348Y-99088134D01*
X102251348Y-99088134D02*
X102484907Y-98501409D01*
X102484907Y-98501409D02*
X102488638Y-97006257D01*
X102488638Y-97006257D02*
X102492369Y-95511106D01*
X102492369Y-95511106D02*
X102523166Y-95434884D01*
X102523166Y-95434884D02*
X102574907Y-95341202D01*
X102574907Y-95341202D02*
X102647852Y-95259478D01*
X102647852Y-95259478D02*
X102737435Y-95194537D01*
X102737435Y-95194537D02*
X102763601Y-95180646D01*
X102763601Y-95180646D02*
X102852618Y-95136790D01*
X102852618Y-95136790D02*
X103150414Y-95132529D01*
X103150414Y-95132529D02*
X103448211Y-95128268D01*
X103448211Y-95128268D02*
X103448211Y-98472082D01*
X103448211Y-98472082D02*
X103448211Y-98472082D01*
G36*
X103448211Y-98472082D02*
G01*
X103688842Y-99073790D01*
X103736710Y-99193616D01*
X103781408Y-99305767D01*
X103821981Y-99407821D01*
X103857471Y-99497359D01*
X103886919Y-99571959D01*
X103909368Y-99629201D01*
X103923862Y-99666664D01*
X103929441Y-99681926D01*
X103929474Y-99682117D01*
X103916458Y-99683206D01*
X103878822Y-99684239D01*
X103818683Y-99685201D01*
X103738157Y-99686079D01*
X103639360Y-99686856D01*
X103524410Y-99687519D01*
X103395423Y-99688053D01*
X103254515Y-99688444D01*
X103103804Y-99688676D01*
X102973632Y-99688737D01*
X102816428Y-99688643D01*
X102667282Y-99688369D01*
X102528310Y-99687933D01*
X102401631Y-99687348D01*
X102289359Y-99686631D01*
X102193612Y-99685797D01*
X102116506Y-99684860D01*
X102060158Y-99683837D01*
X102026684Y-99682743D01*
X102017790Y-99681798D01*
X102022584Y-99668356D01*
X102036323Y-99632539D01*
X102058040Y-99576802D01*
X102086769Y-99503602D01*
X102121544Y-99415396D01*
X102161398Y-99314639D01*
X102205364Y-99203789D01*
X102251348Y-99088134D01*
X102484907Y-98501409D01*
X102488638Y-97006257D01*
X102492369Y-95511106D01*
X102523166Y-95434884D01*
X102574907Y-95341202D01*
X102647852Y-95259478D01*
X102737435Y-95194537D01*
X102763601Y-95180646D01*
X102852618Y-95136790D01*
X103150414Y-95132529D01*
X103448211Y-95128268D01*
X103448211Y-98472082D01*
G37*
X103448211Y-98472082D02*
X103688842Y-99073790D01*
X103736710Y-99193616D01*
X103781408Y-99305767D01*
X103821981Y-99407821D01*
X103857471Y-99497359D01*
X103886919Y-99571959D01*
X103909368Y-99629201D01*
X103923862Y-99666664D01*
X103929441Y-99681926D01*
X103929474Y-99682117D01*
X103916458Y-99683206D01*
X103878822Y-99684239D01*
X103818683Y-99685201D01*
X103738157Y-99686079D01*
X103639360Y-99686856D01*
X103524410Y-99687519D01*
X103395423Y-99688053D01*
X103254515Y-99688444D01*
X103103804Y-99688676D01*
X102973632Y-99688737D01*
X102816428Y-99688643D01*
X102667282Y-99688369D01*
X102528310Y-99687933D01*
X102401631Y-99687348D01*
X102289359Y-99686631D01*
X102193612Y-99685797D01*
X102116506Y-99684860D01*
X102060158Y-99683837D01*
X102026684Y-99682743D01*
X102017790Y-99681798D01*
X102022584Y-99668356D01*
X102036323Y-99632539D01*
X102058040Y-99576802D01*
X102086769Y-99503602D01*
X102121544Y-99415396D01*
X102161398Y-99314639D01*
X102205364Y-99203789D01*
X102251348Y-99088134D01*
X102484907Y-98501409D01*
X102488638Y-97006257D01*
X102492369Y-95511106D01*
X102523166Y-95434884D01*
X102574907Y-95341202D01*
X102647852Y-95259478D01*
X102737435Y-95194537D01*
X102763601Y-95180646D01*
X102852618Y-95136790D01*
X103150414Y-95132529D01*
X103448211Y-95128268D01*
X103448211Y-98472082D01*
D14*
%TO.C,J1*%
X93050000Y-51530000D02*
X92550000Y-51530000D01*
X93050000Y-48950000D02*
X92550000Y-48950000D01*
X89275000Y-53850000D02*
X89216000Y-53791000D01*
X93050000Y-54030000D02*
X92550000Y-54030000D01*
X83300000Y-45100000D02*
X83300000Y-55380000D01*
X93050000Y-51530000D02*
X93050000Y-54030000D01*
X86784000Y-51770000D02*
X86726000Y-51711000D01*
X82640000Y-45100000D02*
X82640000Y-55380000D01*
X93360000Y-45100000D02*
X93360000Y-55380000D01*
X93360000Y-45100000D02*
X82640000Y-45100000D01*
X92550000Y-51530000D02*
X92550000Y-54030000D01*
X93360000Y-55380000D02*
X82640000Y-55380000D01*
X93050000Y-46450000D02*
X92550000Y-46450000D01*
X92550000Y-46450000D02*
X92550000Y-48950000D01*
X85500000Y-45100000D02*
X85500000Y-55380000D01*
X87024000Y-51600000D02*
X86931000Y-51506000D01*
X93050000Y-46450000D02*
X93050000Y-48950000D01*
X89069000Y-54055000D02*
X88976000Y-53961000D01*
X83240000Y-44860000D02*
X82400000Y-44860000D01*
X91300000Y-45100000D02*
X91300000Y-55380000D01*
X82400000Y-44860000D02*
X82400000Y-45460000D01*
X86320000Y-47700000D02*
G75*
G03*
X86516648Y-48488712I1679991J-2D01*
G01*
X86516000Y-46911000D02*
G75*
G03*
X86319550Y-47729383I1483995J-788998D01*
G01*
X88789000Y-46216000D02*
G75*
G03*
X87210911Y-46216047I-789000J-1483995D01*
G01*
X89484000Y-48489000D02*
G75*
G03*
X89483953Y-46910911I-1483995J789000D01*
G01*
X87211000Y-49184000D02*
G75*
G03*
X88789089Y-49183953I789000J1483995D01*
G01*
X89680000Y-52780000D02*
G75*
G03*
X89680000Y-52780000I-1680000J0D01*
G01*
D16*
%TO.C,U1*%
X125500000Y-55350000D02*
X145800000Y-55350000D01*
X145800000Y-73150000D02*
X125500000Y-73150000D01*
X125500000Y-73150000D02*
X125500000Y-55350000D01*
X145800000Y-55350000D02*
X145800000Y-73150000D01*
D14*
%TO.C,J7*%
X117085000Y-45360000D02*
X117085000Y-42700000D01*
X113215000Y-45360000D02*
X111885000Y-45360000D01*
X114485000Y-42700000D02*
X117085000Y-42700000D01*
X111885000Y-45360000D02*
X111885000Y-44030000D01*
X114485000Y-45360000D02*
X114485000Y-42700000D01*
X114485000Y-45360000D02*
X117085000Y-45360000D01*
D16*
%TO.C,J$1*%
X158460000Y-75100000D02*
X158460000Y-92880000D01*
X125440000Y-75100000D02*
X158460000Y-75100000D01*
X158460000Y-92880000D02*
X125440000Y-92880000D01*
X125440000Y-92880000D02*
X125440000Y-75100000D01*
D14*
%TO.C,J8*%
X103005000Y-42700000D02*
X103005000Y-44030000D01*
X100405000Y-42700000D02*
X97805000Y-42700000D01*
X100405000Y-42700000D02*
X100405000Y-45360000D01*
X100405000Y-45360000D02*
X97805000Y-45360000D01*
X101675000Y-42700000D02*
X103005000Y-42700000D01*
X97805000Y-42700000D02*
X97805000Y-45360000D01*
%TO.C,J9*%
X150030000Y-53050000D02*
X148700000Y-53050000D01*
X148700000Y-53050000D02*
X148700000Y-51720000D01*
X158980000Y-53050000D02*
X158980000Y-50390000D01*
X151300000Y-53050000D02*
X151300000Y-50390000D01*
X151300000Y-53050000D02*
X158980000Y-53050000D01*
X151300000Y-50390000D02*
X158980000Y-50390000D01*
%TO.C,G\u002A\u002A\u002A*%
G36*
X110075443Y-98076710D02*
G01*
X110129182Y-98182935D01*
X110173734Y-98262145D01*
X110201066Y-98300287D01*
X110204051Y-98301773D01*
X110226337Y-98274953D01*
X110267672Y-98203863D01*
X110320024Y-98102557D01*
X110332658Y-98076710D01*
X110441537Y-97851647D01*
X110847089Y-97851647D01*
X110847089Y-99041267D01*
X110464204Y-99041267D01*
X110454697Y-98824241D01*
X110445190Y-98607216D01*
X110333795Y-98824241D01*
X110278036Y-98927857D01*
X110231849Y-99004563D01*
X110203832Y-99040277D01*
X110201309Y-99041267D01*
X110177246Y-99014965D01*
X110132662Y-98945336D01*
X110076331Y-98846295D01*
X110064459Y-98824241D01*
X109948700Y-98607216D01*
X109947768Y-98824241D01*
X109946836Y-99041267D01*
X109561013Y-99041267D01*
X109561013Y-98205317D01*
X109303798Y-98205317D01*
X109303798Y-97851647D01*
X109966564Y-97851647D01*
X110075443Y-98076710D01*
G37*
G36*
X109821305Y-93671900D02*
G01*
X110035290Y-93674606D01*
X110195287Y-93684817D01*
X110311462Y-93705676D01*
X110393983Y-93740321D01*
X110453016Y-93791895D01*
X110498729Y-93863538D01*
X110508974Y-93884333D01*
X110557818Y-94040027D01*
X110545714Y-94179129D01*
X110471511Y-94308699D01*
X110432897Y-94350872D01*
X110366915Y-94414142D01*
X110312529Y-94451334D01*
X110249221Y-94469375D01*
X110156476Y-94475191D01*
X110063150Y-94475697D01*
X109818228Y-94475697D01*
X109818228Y-94861520D01*
X109368101Y-94861520D01*
X109368101Y-94189691D01*
X109818228Y-94189691D01*
X109987025Y-94179972D01*
X110086894Y-94170944D01*
X110139457Y-94153282D01*
X110161713Y-94118805D01*
X110166674Y-94093510D01*
X110159783Y-94022853D01*
X110109421Y-93981037D01*
X110007823Y-93963232D01*
X109954873Y-93961759D01*
X109869215Y-93964247D01*
X109829852Y-93982528D01*
X109818781Y-94031584D01*
X109818228Y-94075479D01*
X109818228Y-94189691D01*
X109368101Y-94189691D01*
X109368101Y-93671900D01*
X109821305Y-93671900D01*
G37*
G36*
X110959228Y-98125557D02*
G01*
X111018028Y-98048354D01*
X111148382Y-97947938D01*
X111312999Y-97882686D01*
X111497017Y-97852261D01*
X111685574Y-97856325D01*
X111863806Y-97894538D01*
X112016851Y-97966562D01*
X112129846Y-98072059D01*
X112131026Y-98073707D01*
X112214816Y-98239001D01*
X112248665Y-98417904D01*
X112235442Y-98597195D01*
X112178018Y-98763653D01*
X112079260Y-98904056D01*
X111942039Y-99005185D01*
X111927358Y-99012155D01*
X111779297Y-99055364D01*
X111600489Y-99072628D01*
X111417909Y-99063926D01*
X111258531Y-99029241D01*
X111216836Y-99012650D01*
X111055583Y-98911783D01*
X110948233Y-98780103D01*
X110891187Y-98611746D01*
X110879241Y-98462533D01*
X110879635Y-98458684D01*
X111329367Y-98458684D01*
X111345909Y-98600695D01*
X111397239Y-98692467D01*
X111457975Y-98730780D01*
X111556685Y-98740502D01*
X111665655Y-98712954D01*
X111750602Y-98657243D01*
X111755380Y-98651785D01*
X111803454Y-98551451D01*
X111809487Y-98434434D01*
X111777903Y-98321725D01*
X111713129Y-98234312D01*
X111660756Y-98202958D01*
X111532874Y-98180147D01*
X111430705Y-98213604D01*
X111360931Y-98298174D01*
X111330232Y-98428700D01*
X111329367Y-98458684D01*
X110879635Y-98458684D01*
X110898457Y-98274694D01*
X110959228Y-98125557D01*
G37*
G36*
X134285823Y-98205317D02*
G01*
X133932152Y-98205317D01*
X133932152Y-99041267D01*
X133514177Y-99041267D01*
X133514177Y-98205317D01*
X132806836Y-98205317D01*
X132806836Y-99041267D01*
X132388861Y-99041267D01*
X132388861Y-98205317D01*
X132003038Y-98205317D01*
X132003038Y-97851647D01*
X134285823Y-97851647D01*
X134285823Y-98205317D01*
G37*
G36*
X115123291Y-98205317D02*
G01*
X114817848Y-98205317D01*
X114676347Y-98205876D01*
X114587105Y-98209663D01*
X114538077Y-98219850D01*
X114517218Y-98239606D01*
X114512482Y-98272101D01*
X114512405Y-98285697D01*
X114516490Y-98330245D01*
X114538810Y-98354296D01*
X114594465Y-98364142D01*
X114698555Y-98366075D01*
X114705317Y-98366077D01*
X114898228Y-98366077D01*
X114898228Y-98558988D01*
X114512405Y-98558988D01*
X114512405Y-99041267D01*
X114094430Y-99041267D01*
X114094430Y-97851647D01*
X115123291Y-97851647D01*
X115123291Y-98205317D01*
G37*
G36*
X122326261Y-93671900D02*
G01*
X122443147Y-93779018D01*
X122516836Y-93855664D01*
X122551936Y-93927183D01*
X122562887Y-94024816D01*
X122563245Y-94038853D01*
X122559103Y-94140739D01*
X122532858Y-94209594D01*
X122471889Y-94275987D01*
X122461455Y-94285406D01*
X122386323Y-94343376D01*
X122323685Y-94376358D01*
X122308733Y-94379241D01*
X122266226Y-94393308D01*
X122261013Y-94404963D01*
X122290850Y-94460836D01*
X122376426Y-94495947D01*
X122508582Y-94507849D01*
X122678987Y-94507849D01*
X122678987Y-94861520D01*
X122202143Y-94861520D01*
X122023239Y-94676646D01*
X121844334Y-94491773D01*
X121843686Y-94676647D01*
X121843038Y-94861520D01*
X119851411Y-94861520D01*
X119697794Y-94669241D01*
X119544177Y-94476963D01*
X119534605Y-94669241D01*
X119525033Y-94861520D01*
X118693943Y-94861520D01*
X118540326Y-94669241D01*
X118386709Y-94476963D01*
X118377137Y-94669241D01*
X118367565Y-94861520D01*
X117952658Y-94861520D01*
X117952658Y-93671900D01*
X118366366Y-93671900D01*
X118521221Y-93869307D01*
X118676076Y-94066715D01*
X118685648Y-93869307D01*
X118695220Y-93671900D01*
X119523835Y-93671900D01*
X119678690Y-93869307D01*
X119833544Y-94066715D01*
X119843117Y-93869307D01*
X119852689Y-93671900D01*
X121296456Y-93671900D01*
X121296456Y-94025571D01*
X120991013Y-94025571D01*
X120849512Y-94026129D01*
X120760270Y-94029916D01*
X120711242Y-94040103D01*
X120690382Y-94059859D01*
X120685647Y-94092354D01*
X120685570Y-94105950D01*
X120689654Y-94150498D01*
X120711975Y-94174549D01*
X120767630Y-94184395D01*
X120871719Y-94186328D01*
X120878481Y-94186330D01*
X121071392Y-94186330D01*
X121071392Y-94379241D01*
X120878481Y-94379241D01*
X120770736Y-94381588D01*
X120712516Y-94391895D01*
X120689116Y-94415064D01*
X120685570Y-94443545D01*
X120689640Y-94471687D01*
X120709260Y-94490159D01*
X120755547Y-94500983D01*
X120839617Y-94506180D01*
X120972585Y-94507770D01*
X121039241Y-94507849D01*
X121392911Y-94507849D01*
X121392911Y-94056042D01*
X121843038Y-94056042D01*
X121845818Y-94111895D01*
X121864648Y-94141117D01*
X121915263Y-94152335D01*
X122013399Y-94154177D01*
X122022009Y-94154178D01*
X122123671Y-94152638D01*
X122175846Y-94142844D01*
X122193351Y-94117035D01*
X122191001Y-94067452D01*
X122190807Y-94065760D01*
X122179655Y-94013802D01*
X122150226Y-93985988D01*
X122085371Y-93972917D01*
X122011836Y-93967624D01*
X121843038Y-93957906D01*
X121843038Y-94056042D01*
X121392911Y-94056042D01*
X121392911Y-93671900D01*
X122326261Y-93671900D01*
G37*
G36*
X120347476Y-95702739D02*
G01*
X120395358Y-95827491D01*
X120439391Y-95977870D01*
X120463218Y-96085989D01*
X120480436Y-96350880D01*
X120437389Y-96622562D01*
X120347154Y-96875952D01*
X120271134Y-97047849D01*
X120105165Y-97047849D01*
X120008856Y-97045260D01*
X119963722Y-97034060D01*
X119956729Y-97009100D01*
X119962729Y-96991583D01*
X120066987Y-96663768D01*
X120107090Y-96333637D01*
X120083038Y-96003249D01*
X119994831Y-95674661D01*
X119962729Y-95592976D01*
X119956556Y-95559937D01*
X119982563Y-95543050D01*
X120053787Y-95537153D01*
X120104875Y-95536710D01*
X120270553Y-95536710D01*
X120347476Y-95702739D01*
G37*
G36*
X126762279Y-98205317D02*
G01*
X126512889Y-98205317D01*
X126314077Y-98213607D01*
X126159261Y-98237474D01*
X126055594Y-98275420D01*
X126017500Y-98309224D01*
X125989645Y-98396471D01*
X125996693Y-98494700D01*
X126031814Y-98583544D01*
X126088178Y-98642636D01*
X126133594Y-98655444D01*
X126193501Y-98661459D01*
X126275981Y-98675539D01*
X126339588Y-98684917D01*
X126368367Y-98668484D01*
X126376134Y-98610767D01*
X126376456Y-98563007D01*
X126376456Y-98430381D01*
X126762279Y-98430381D01*
X126762279Y-99041267D01*
X126400570Y-99038503D01*
X126245412Y-99035079D01*
X126106286Y-99027958D01*
X126000483Y-99018257D01*
X125951773Y-99009488D01*
X125793051Y-98931254D01*
X125669625Y-98810662D01*
X125585114Y-98660470D01*
X125543133Y-98493437D01*
X125547300Y-98322320D01*
X125601231Y-98159877D01*
X125679294Y-98048354D01*
X125768643Y-97968379D01*
X125874308Y-97912148D01*
X126008365Y-97876306D01*
X126182892Y-97857495D01*
X126384494Y-97852353D01*
X126762279Y-97851647D01*
X126762279Y-98205317D01*
G37*
G36*
X124243800Y-95777849D02*
G01*
X124546700Y-95768742D01*
X124849601Y-95759634D01*
X125047592Y-96355514D01*
X125245583Y-96951393D01*
X124773848Y-96951393D01*
X124736189Y-96837286D01*
X124711032Y-96770518D01*
X124679768Y-96737934D01*
X124622242Y-96729129D01*
X124533803Y-96732792D01*
X124435658Y-96741564D01*
X124382212Y-96760715D01*
X124353873Y-96801737D01*
X124339254Y-96846900D01*
X124309432Y-96951393D01*
X124089020Y-96951393D01*
X123979373Y-96948083D01*
X123900444Y-96939387D01*
X123868666Y-96927154D01*
X123868608Y-96926582D01*
X123878343Y-96889548D01*
X123905403Y-96801644D01*
X123946571Y-96672935D01*
X123998628Y-96513487D01*
X124002679Y-96501267D01*
X124392530Y-96501267D01*
X124532467Y-96501267D01*
X124617119Y-96496901D01*
X124666873Y-96485895D01*
X124672405Y-96479979D01*
X124662892Y-96431050D01*
X124639105Y-96350440D01*
X124608172Y-96258697D01*
X124577224Y-96176374D01*
X124553389Y-96124020D01*
X124545949Y-96115444D01*
X124526784Y-96143272D01*
X124494745Y-96215909D01*
X124460111Y-96308355D01*
X124392530Y-96501267D01*
X124002679Y-96501267D01*
X124056204Y-96339810D01*
X124243800Y-95777849D01*
G37*
G36*
X116607958Y-95781213D02*
G01*
X116772164Y-95834698D01*
X116884344Y-95922129D01*
X116942933Y-96042263D01*
X116946365Y-96193854D01*
X116945154Y-96201666D01*
X116898395Y-96321722D01*
X116804303Y-96444375D01*
X116676989Y-96553270D01*
X116602279Y-96599061D01*
X116489747Y-96659184D01*
X116955949Y-96662026D01*
X116955949Y-96951393D01*
X116023544Y-96951393D01*
X116023544Y-96781869D01*
X116026513Y-96681146D01*
X116043122Y-96621965D01*
X116084926Y-96581598D01*
X116142053Y-96548768D01*
X116246667Y-96487307D01*
X116358328Y-96414154D01*
X116383192Y-96396571D01*
X116474311Y-96306078D01*
X116507595Y-96217464D01*
X116489030Y-96140465D01*
X116424603Y-96084819D01*
X116320299Y-96060263D01*
X116185836Y-96075574D01*
X116102236Y-96091876D01*
X116048242Y-96093301D01*
X116041168Y-96090198D01*
X116030233Y-96049818D01*
X116024056Y-95969898D01*
X116023544Y-95937000D01*
X116028263Y-95861912D01*
X116049622Y-95812067D01*
X116098424Y-95782377D01*
X116185475Y-95767756D01*
X116321577Y-95763117D01*
X116393291Y-95762918D01*
X116607958Y-95781213D01*
G37*
G36*
X112786867Y-97857421D02*
G01*
X112975103Y-97861722D01*
X113110913Y-97866823D01*
X113206164Y-97874712D01*
X113272724Y-97887378D01*
X113322459Y-97906811D01*
X113367236Y-97934999D01*
X113401165Y-97960378D01*
X113522189Y-98085515D01*
X113591183Y-98240194D01*
X113612152Y-98424550D01*
X113589839Y-98631549D01*
X113524855Y-98801387D01*
X113471053Y-98876613D01*
X113406748Y-98937951D01*
X113331839Y-98982384D01*
X113235273Y-99012420D01*
X113105997Y-99030565D01*
X112932959Y-99039326D01*
X112745083Y-99041267D01*
X112293924Y-99041267D01*
X112293924Y-98751900D01*
X112711899Y-98751900D01*
X112822337Y-98751900D01*
X112925455Y-98742655D01*
X113013523Y-98721200D01*
X113088780Y-98660993D01*
X113136312Y-98559343D01*
X113150607Y-98435152D01*
X113130576Y-98319978D01*
X113076270Y-98220454D01*
X112987298Y-98162989D01*
X112853223Y-98141523D01*
X112822337Y-98141014D01*
X112711899Y-98141014D01*
X112711899Y-98751900D01*
X112293924Y-98751900D01*
X112293924Y-97847120D01*
X112786867Y-97857421D01*
G37*
G36*
X130652658Y-96115444D02*
G01*
X130652658Y-96195824D01*
X130656743Y-96240371D01*
X130679063Y-96264422D01*
X130734718Y-96274269D01*
X130838808Y-96276202D01*
X130845570Y-96276203D01*
X131038481Y-96276203D01*
X131038481Y-96469115D01*
X130652658Y-96469115D01*
X130652658Y-96951393D01*
X130234684Y-96951393D01*
X130234684Y-96115444D01*
X130009620Y-96115444D01*
X130009620Y-95761773D01*
X131731344Y-95761773D01*
X132125190Y-95761786D01*
X132459766Y-95762189D01*
X132740103Y-95763526D01*
X132971233Y-95766339D01*
X133158189Y-95771174D01*
X133306004Y-95778575D01*
X133419710Y-95789085D01*
X133504339Y-95803248D01*
X133564923Y-95821608D01*
X133606496Y-95844710D01*
X133634089Y-95873097D01*
X133652735Y-95907314D01*
X133667466Y-95947903D01*
X133675316Y-95971909D01*
X133698306Y-96110733D01*
X133664515Y-96221176D01*
X133572657Y-96307339D01*
X133569580Y-96309233D01*
X133509826Y-96351407D01*
X133507722Y-96370721D01*
X133523677Y-96372539D01*
X133584820Y-96394201D01*
X133655313Y-96446679D01*
X133660322Y-96451577D01*
X133726775Y-96558804D01*
X133740999Y-96681425D01*
X133703199Y-96798753D01*
X133656309Y-96857371D01*
X133573378Y-96935317D01*
X131327848Y-96953767D01*
X131327848Y-96613798D01*
X132903291Y-96613798D01*
X132907066Y-96685442D01*
X132930651Y-96717575D01*
X132992442Y-96726030D01*
X133034013Y-96726330D01*
X133134177Y-96718262D01*
X133215393Y-96698331D01*
X133226924Y-96693047D01*
X133284290Y-96642747D01*
X133285479Y-96590965D01*
X133237993Y-96545158D01*
X133149334Y-96512785D01*
X133034013Y-96501267D01*
X132950788Y-96504516D01*
X132913462Y-96524820D01*
X132903639Y-96578013D01*
X132903291Y-96613798D01*
X131327848Y-96613798D01*
X131327848Y-96533419D01*
X131745823Y-96533419D01*
X131749893Y-96561561D01*
X131769513Y-96580033D01*
X131815800Y-96590857D01*
X131899870Y-96596053D01*
X132032838Y-96597643D01*
X132099494Y-96597722D01*
X132453165Y-96597722D01*
X132453165Y-96147596D01*
X132903291Y-96147596D01*
X132906369Y-96207615D01*
X132926917Y-96235628D01*
X132981908Y-96241656D01*
X133056013Y-96237775D01*
X133148631Y-96228486D01*
X133193687Y-96209684D01*
X133207920Y-96171484D01*
X133208734Y-96147596D01*
X133202377Y-96098442D01*
X133172146Y-96072788D01*
X133101301Y-96060751D01*
X133056013Y-96057417D01*
X132964030Y-96053529D01*
X132919225Y-96064106D01*
X132904627Y-96099169D01*
X132903291Y-96147596D01*
X132453165Y-96147596D01*
X132453165Y-96115444D01*
X131745823Y-96115444D01*
X131745823Y-96195824D01*
X131749907Y-96240371D01*
X131772228Y-96264422D01*
X131827883Y-96274269D01*
X131931973Y-96276202D01*
X131938734Y-96276203D01*
X132131646Y-96276203D01*
X132131646Y-96469115D01*
X131938734Y-96469115D01*
X131830989Y-96471461D01*
X131772770Y-96481768D01*
X131749369Y-96504937D01*
X131745823Y-96533419D01*
X131327848Y-96533419D01*
X131327848Y-96115444D01*
X130652658Y-96115444D01*
G37*
G36*
X127919747Y-96951393D02*
G01*
X127533924Y-96951393D01*
X127533924Y-96629874D01*
X127919747Y-96629874D01*
X127919747Y-96951393D01*
G37*
G36*
X117888354Y-94861520D02*
G01*
X117502532Y-94861520D01*
X117502532Y-93671900D01*
X117888354Y-93671900D01*
X117888354Y-94861520D01*
G37*
G36*
X127919747Y-96404811D02*
G01*
X127533924Y-96404811D01*
X127533924Y-96083292D01*
X127919747Y-96083292D01*
X127919747Y-96404811D01*
G37*
G36*
X115573418Y-99041267D02*
G01*
X115187595Y-99041267D01*
X115187595Y-97851647D01*
X115573418Y-97851647D01*
X115573418Y-99041267D01*
G37*
G36*
X127951899Y-98269621D02*
G01*
X128241266Y-98269621D01*
X128241266Y-97851647D01*
X129075401Y-97851647D01*
X129093291Y-98730553D01*
X129182739Y-98760325D01*
X129275368Y-98771377D01*
X129351537Y-98738105D01*
X129383948Y-98714409D01*
X129406063Y-98685645D01*
X129419847Y-98640184D01*
X129427267Y-98566394D01*
X129430291Y-98452645D01*
X129430885Y-98287306D01*
X129430886Y-98268880D01*
X129430886Y-97851647D01*
X129853721Y-97851647D01*
X129843253Y-98299545D01*
X129836696Y-98499173D01*
X129825002Y-98646888D01*
X129804028Y-98755073D01*
X129769633Y-98836110D01*
X129717676Y-98902382D01*
X129644014Y-98966273D01*
X129612142Y-98990510D01*
X129500100Y-99042220D01*
X129350634Y-99068601D01*
X129185591Y-99069259D01*
X129026819Y-99043799D01*
X128916456Y-99003067D01*
X128784375Y-98909124D01*
X128715556Y-98816203D01*
X128659340Y-98703672D01*
X128659291Y-98872469D01*
X128659241Y-99041267D01*
X128241266Y-99041267D01*
X128241266Y-98623292D01*
X127951899Y-98623292D01*
X127951899Y-99041267D01*
X127566076Y-99041267D01*
X127566076Y-98205317D01*
X127308861Y-98205317D01*
X127308861Y-97851647D01*
X127951899Y-97851647D01*
X127951899Y-98269621D01*
G37*
G36*
X118660000Y-98205317D02*
G01*
X118660000Y-97851647D01*
X119272483Y-97851647D01*
X119516011Y-97852954D01*
X119703542Y-97858267D01*
X119843356Y-97869669D01*
X119943732Y-97889245D01*
X120012948Y-97919078D01*
X120059284Y-97961252D01*
X120091017Y-98017852D01*
X120107214Y-98061782D01*
X120130204Y-98200607D01*
X120096413Y-98311049D01*
X120004556Y-98397212D01*
X120001479Y-98399106D01*
X119941724Y-98441280D01*
X119939621Y-98460594D01*
X119955575Y-98462412D01*
X120016719Y-98484075D01*
X120087212Y-98536552D01*
X120092221Y-98541451D01*
X120158666Y-98648675D01*
X120172894Y-98771306D01*
X120135106Y-98888649D01*
X120088258Y-98947245D01*
X120055701Y-98975448D01*
X120020183Y-98996105D01*
X119971432Y-99010622D01*
X119899180Y-99020406D01*
X119793155Y-99026862D01*
X119643087Y-99031398D01*
X119445220Y-99035301D01*
X118885063Y-99045412D01*
X118885063Y-98703672D01*
X119335190Y-98703672D01*
X119338964Y-98775316D01*
X119362550Y-98807448D01*
X119424341Y-98815904D01*
X119465911Y-98816203D01*
X119566075Y-98808136D01*
X119647292Y-98788204D01*
X119658823Y-98782920D01*
X119716189Y-98732621D01*
X119717377Y-98680838D01*
X119669892Y-98635032D01*
X119581233Y-98602659D01*
X119465911Y-98591140D01*
X119382687Y-98594389D01*
X119345360Y-98614693D01*
X119335538Y-98667886D01*
X119335190Y-98703672D01*
X118885063Y-98703672D01*
X118885063Y-98237469D01*
X119335190Y-98237469D01*
X119338268Y-98297488D01*
X119358816Y-98325501D01*
X119413807Y-98331529D01*
X119487911Y-98327649D01*
X119580530Y-98318360D01*
X119625585Y-98299558D01*
X119639819Y-98261357D01*
X119640633Y-98237469D01*
X119634276Y-98188315D01*
X119604045Y-98162662D01*
X119533199Y-98150624D01*
X119487911Y-98147290D01*
X119395929Y-98143403D01*
X119351124Y-98153980D01*
X119336526Y-98189043D01*
X119335190Y-98237469D01*
X118885063Y-98237469D01*
X118885063Y-98205317D01*
X118660000Y-98205317D01*
G37*
G36*
X114030127Y-99041267D02*
G01*
X113644304Y-99041267D01*
X113644304Y-97851647D01*
X114030127Y-97851647D01*
X114030127Y-99041267D01*
G37*
G36*
X129134225Y-96357391D02*
G01*
X129228605Y-96246325D01*
X129337398Y-96123482D01*
X129660562Y-95761773D01*
X129977468Y-95761773D01*
X129977468Y-96469115D01*
X130073924Y-96469115D01*
X130135772Y-96474193D01*
X130163266Y-96501715D01*
X130170228Y-96570107D01*
X130170380Y-96597722D01*
X130166571Y-96680187D01*
X130145930Y-96716845D01*
X130094636Y-96726127D01*
X130073924Y-96726330D01*
X130009119Y-96732603D01*
X129982539Y-96764422D01*
X129977468Y-96838862D01*
X129977468Y-96951393D01*
X129655949Y-96951393D01*
X129655949Y-96726330D01*
X129012911Y-96726330D01*
X129013572Y-96605760D01*
X129018112Y-96553831D01*
X129035432Y-96501533D01*
X129065028Y-96451110D01*
X129424344Y-96451110D01*
X129461876Y-96466304D01*
X129526211Y-96469115D01*
X129655949Y-96469115D01*
X129655949Y-96133949D01*
X129559210Y-96245266D01*
X129471748Y-96349164D01*
X129427214Y-96414921D01*
X129424344Y-96451110D01*
X129065028Y-96451110D01*
X129071985Y-96439257D01*
X129134225Y-96357391D01*
G37*
G36*
X124126767Y-97851647D02*
G01*
X124243653Y-97958765D01*
X124317342Y-98035411D01*
X124352442Y-98106929D01*
X124363393Y-98204563D01*
X124363751Y-98218600D01*
X124359610Y-98320486D01*
X124333365Y-98389341D01*
X124272395Y-98455734D01*
X124261961Y-98465153D01*
X124186830Y-98523123D01*
X124124191Y-98556104D01*
X124109240Y-98558988D01*
X124066732Y-98573055D01*
X124061519Y-98584710D01*
X124091172Y-98640523D01*
X124174427Y-98676066D01*
X124293013Y-98687596D01*
X124447342Y-98687596D01*
X124447342Y-97851647D01*
X125476203Y-97851647D01*
X125476203Y-98205317D01*
X125170760Y-98205317D01*
X125029259Y-98205876D01*
X124940017Y-98209663D01*
X124890989Y-98219850D01*
X124870129Y-98239606D01*
X124865394Y-98272101D01*
X124865317Y-98285697D01*
X124869401Y-98330245D01*
X124891721Y-98354296D01*
X124947377Y-98364142D01*
X125051466Y-98366075D01*
X125058228Y-98366077D01*
X125251139Y-98366077D01*
X125251139Y-98558988D01*
X125058228Y-98558988D01*
X124950483Y-98561335D01*
X124892263Y-98571641D01*
X124868863Y-98594811D01*
X124865317Y-98623292D01*
X124869386Y-98651434D01*
X124889007Y-98669906D01*
X124935294Y-98680730D01*
X125019363Y-98685927D01*
X125152332Y-98687517D01*
X125218987Y-98687596D01*
X125572658Y-98687596D01*
X125572658Y-99041267D01*
X124002649Y-99041267D01*
X123823745Y-98856393D01*
X123644840Y-98671520D01*
X123644192Y-98856393D01*
X123643544Y-99041267D01*
X123193418Y-99041267D01*
X123193418Y-98235789D01*
X123643544Y-98235789D01*
X123646324Y-98291642D01*
X123665154Y-98320864D01*
X123715770Y-98332082D01*
X123813905Y-98333924D01*
X123822515Y-98333925D01*
X123924177Y-98332385D01*
X123976352Y-98322591D01*
X123993857Y-98296782D01*
X123991507Y-98247198D01*
X123991313Y-98245507D01*
X123980162Y-98193549D01*
X123950733Y-98165735D01*
X123885877Y-98152663D01*
X123812342Y-98147371D01*
X123643544Y-98137653D01*
X123643544Y-98235789D01*
X123193418Y-98235789D01*
X123193418Y-97851647D01*
X124126767Y-97851647D01*
G37*
G36*
X121875190Y-99041267D02*
G01*
X121489367Y-99041267D01*
X121489367Y-98719748D01*
X121875190Y-98719748D01*
X121875190Y-99041267D01*
G37*
G36*
X134672294Y-94676647D02*
G01*
X134671646Y-94861520D01*
X133808531Y-94861520D01*
X133770872Y-94747413D01*
X133745716Y-94680644D01*
X133714452Y-94648061D01*
X133656926Y-94639256D01*
X133568487Y-94642919D01*
X133470341Y-94651691D01*
X133416896Y-94670842D01*
X133388556Y-94711863D01*
X133373938Y-94757026D01*
X133344116Y-94861520D01*
X133123703Y-94861520D01*
X133014057Y-94858210D01*
X132935128Y-94849514D01*
X132903349Y-94837281D01*
X132903291Y-94836709D01*
X132913026Y-94799674D01*
X132940087Y-94711771D01*
X132981254Y-94583062D01*
X133033311Y-94423613D01*
X133037362Y-94411393D01*
X133427213Y-94411393D01*
X133567151Y-94411393D01*
X133651802Y-94407028D01*
X133701556Y-94396022D01*
X133707089Y-94390105D01*
X133697575Y-94341177D01*
X133673788Y-94260566D01*
X133642856Y-94168824D01*
X133611908Y-94086500D01*
X133588073Y-94034146D01*
X133580633Y-94025571D01*
X133561468Y-94053398D01*
X133529428Y-94126036D01*
X133494795Y-94218482D01*
X133427213Y-94411393D01*
X133037362Y-94411393D01*
X133090887Y-94249936D01*
X133278483Y-93687976D01*
X133581626Y-93678865D01*
X133884770Y-93669755D01*
X134050425Y-94161144D01*
X134216081Y-94652533D01*
X134218800Y-94162216D01*
X134219389Y-94056042D01*
X134671646Y-94056042D01*
X134674426Y-94111895D01*
X134693256Y-94141117D01*
X134743871Y-94152335D01*
X134842006Y-94154177D01*
X134850617Y-94154178D01*
X134952278Y-94152638D01*
X135004454Y-94142844D01*
X135021959Y-94117035D01*
X135019608Y-94067452D01*
X135019414Y-94065760D01*
X135008263Y-94013802D01*
X134978834Y-93985988D01*
X134913979Y-93972917D01*
X134840443Y-93967624D01*
X134671646Y-93957906D01*
X134671646Y-94056042D01*
X134219389Y-94056042D01*
X134219933Y-93957906D01*
X134221519Y-93671900D01*
X135154868Y-93671900D01*
X135271755Y-93779018D01*
X135345444Y-93855664D01*
X135380543Y-93927183D01*
X135391494Y-94024816D01*
X135391852Y-94038853D01*
X135387711Y-94140739D01*
X135361466Y-94209594D01*
X135300496Y-94275987D01*
X135290062Y-94285406D01*
X135214931Y-94343376D01*
X135152292Y-94376358D01*
X135137341Y-94379241D01*
X135094834Y-94393308D01*
X135089620Y-94404963D01*
X135119274Y-94460776D01*
X135202528Y-94496320D01*
X135321114Y-94507849D01*
X135475443Y-94507849D01*
X135475443Y-93667373D01*
X135968386Y-93677674D01*
X136156622Y-93681975D01*
X136292432Y-93687076D01*
X136387683Y-93694965D01*
X136454243Y-93707631D01*
X136503978Y-93727064D01*
X136548755Y-93755252D01*
X136582683Y-93780632D01*
X136703708Y-93905769D01*
X136772702Y-94060447D01*
X136793671Y-94244803D01*
X136771358Y-94451802D01*
X136706374Y-94621641D01*
X136652572Y-94696866D01*
X136601302Y-94748500D01*
X136544756Y-94788170D01*
X136474043Y-94817421D01*
X136380270Y-94837796D01*
X136254545Y-94850839D01*
X136087975Y-94858095D01*
X135871669Y-94861107D01*
X135704256Y-94861520D01*
X135030751Y-94861520D01*
X134851846Y-94676647D01*
X134750726Y-94572153D01*
X135893418Y-94572153D01*
X136003856Y-94572153D01*
X136106974Y-94562908D01*
X136195042Y-94541453D01*
X136270299Y-94481246D01*
X136317831Y-94379596D01*
X136332126Y-94255405D01*
X136312095Y-94140231D01*
X136257789Y-94040707D01*
X136168817Y-93983242D01*
X136034742Y-93961776D01*
X136003856Y-93961267D01*
X135893418Y-93961267D01*
X135893418Y-94572153D01*
X134750726Y-94572153D01*
X134672942Y-94491773D01*
X134672294Y-94676647D01*
G37*
G36*
X131664446Y-93946785D02*
G01*
X131723851Y-93868608D01*
X131854204Y-93768191D01*
X132018822Y-93702939D01*
X132202840Y-93672515D01*
X132391397Y-93676578D01*
X132569629Y-93714791D01*
X132722674Y-93786816D01*
X132835669Y-93892312D01*
X132836849Y-93893960D01*
X132920639Y-94059254D01*
X132954488Y-94238157D01*
X132941265Y-94417448D01*
X132883840Y-94583906D01*
X132785083Y-94724310D01*
X132647862Y-94825438D01*
X132633181Y-94832408D01*
X132485120Y-94875618D01*
X132306312Y-94892881D01*
X132123732Y-94884179D01*
X131964354Y-94849494D01*
X131922658Y-94832903D01*
X131764036Y-94732212D01*
X131652021Y-94601921D01*
X131621185Y-94539984D01*
X131600028Y-94491912D01*
X131590596Y-94496082D01*
X131587413Y-94558057D01*
X131587101Y-94574586D01*
X131559316Y-94694226D01*
X131502182Y-94767498D01*
X131469625Y-94795701D01*
X131434107Y-94816358D01*
X131385356Y-94830875D01*
X131313104Y-94840659D01*
X131207079Y-94847115D01*
X131057011Y-94851651D01*
X130859144Y-94855554D01*
X130298987Y-94865665D01*
X130298987Y-94523925D01*
X130749114Y-94523925D01*
X130752888Y-94595569D01*
X130776474Y-94627701D01*
X130838265Y-94636157D01*
X130879835Y-94636457D01*
X130979999Y-94628389D01*
X131061216Y-94608458D01*
X131072747Y-94603174D01*
X131130113Y-94552874D01*
X131131302Y-94501092D01*
X131083816Y-94455285D01*
X130995157Y-94422912D01*
X130879835Y-94411393D01*
X130796611Y-94414642D01*
X130759284Y-94434946D01*
X130749462Y-94488139D01*
X130749114Y-94523925D01*
X130298987Y-94523925D01*
X130298987Y-94057722D01*
X130749114Y-94057722D01*
X130752192Y-94117741D01*
X130772740Y-94145754D01*
X130827731Y-94151782D01*
X130901836Y-94147902D01*
X130994454Y-94138613D01*
X131039509Y-94119811D01*
X131053743Y-94081610D01*
X131054557Y-94057722D01*
X131048200Y-94008568D01*
X131017969Y-93982915D01*
X130947123Y-93970877D01*
X130901836Y-93967543D01*
X130809853Y-93963656D01*
X130765048Y-93974233D01*
X130750450Y-94009296D01*
X130749114Y-94057722D01*
X130298987Y-94057722D01*
X130298987Y-94025571D01*
X130073924Y-94025571D01*
X130073924Y-93671900D01*
X130686407Y-93671900D01*
X130929935Y-93673207D01*
X131117466Y-93678520D01*
X131257280Y-93689922D01*
X131357656Y-93709498D01*
X131426872Y-93739331D01*
X131473208Y-93781505D01*
X131504941Y-93838106D01*
X131521139Y-93882035D01*
X131544128Y-94020860D01*
X131510338Y-94131302D01*
X131418480Y-94217465D01*
X131415403Y-94219359D01*
X131355649Y-94261533D01*
X131353545Y-94280847D01*
X131369499Y-94282666D01*
X131430643Y-94304328D01*
X131501136Y-94356805D01*
X131506145Y-94361704D01*
X131585063Y-94440622D01*
X131585063Y-94283417D01*
X131585518Y-94278937D01*
X132035190Y-94278937D01*
X132051732Y-94420948D01*
X132103061Y-94512721D01*
X132163798Y-94551033D01*
X132262508Y-94560755D01*
X132371478Y-94533208D01*
X132456424Y-94477496D01*
X132461203Y-94472038D01*
X132509277Y-94371704D01*
X132515309Y-94254687D01*
X132483726Y-94141978D01*
X132418951Y-94054565D01*
X132366578Y-94023211D01*
X132238696Y-94000401D01*
X132136528Y-94033857D01*
X132066754Y-94118427D01*
X132036054Y-94248953D01*
X132035190Y-94278937D01*
X131585518Y-94278937D01*
X131604122Y-94095704D01*
X131664446Y-93946785D01*
G37*
G36*
X114415949Y-96404811D02*
G01*
X114030127Y-96404811D01*
X114030127Y-96083292D01*
X114415949Y-96083292D01*
X114415949Y-96404811D01*
G37*
G36*
X126280000Y-96115444D02*
G01*
X125926329Y-96115444D01*
X125926329Y-96951393D01*
X125508354Y-96951393D01*
X125508354Y-96115444D01*
X125122532Y-96115444D01*
X125122532Y-95761773D01*
X126280000Y-95761773D01*
X126280000Y-96115444D01*
G37*
G36*
X117512114Y-95733281D02*
G01*
X117443584Y-95970013D01*
X117413687Y-96231206D01*
X117422037Y-96496765D01*
X117468251Y-96746591D01*
X117534935Y-96927279D01*
X117593152Y-97047849D01*
X117254098Y-97047849D01*
X117168421Y-96856934D01*
X117078217Y-96579431D01*
X117048447Y-96290832D01*
X117079100Y-96001984D01*
X117169473Y-95725279D01*
X117254098Y-95536710D01*
X117591513Y-95536710D01*
X117512114Y-95733281D01*
G37*
G36*
X108571435Y-94111353D02*
G01*
X108580380Y-94550806D01*
X108669828Y-94580578D01*
X108762457Y-94591631D01*
X108838625Y-94558358D01*
X108871037Y-94534662D01*
X108893151Y-94505898D01*
X108906935Y-94460437D01*
X108914356Y-94386647D01*
X108917379Y-94272898D01*
X108917973Y-94107560D01*
X108917975Y-94089133D01*
X108917975Y-93671900D01*
X109340810Y-93671900D01*
X109330342Y-94119798D01*
X109323785Y-94319426D01*
X109312090Y-94467142D01*
X109291117Y-94575326D01*
X109256722Y-94656363D01*
X109204765Y-94722636D01*
X109131103Y-94786526D01*
X109099230Y-94810763D01*
X108987189Y-94862473D01*
X108837722Y-94888854D01*
X108672679Y-94889512D01*
X108513908Y-94864053D01*
X108403544Y-94823320D01*
X108310354Y-94767724D01*
X108242352Y-94703810D01*
X108195752Y-94620903D01*
X108166771Y-94508327D01*
X108151624Y-94355409D01*
X108146528Y-94151473D01*
X108146379Y-94097912D01*
X108146329Y-93671900D01*
X108562489Y-93671900D01*
X108571435Y-94111353D01*
G37*
G36*
X135346836Y-98205317D02*
G01*
X135041392Y-98205317D01*
X134899892Y-98205876D01*
X134810650Y-98209663D01*
X134761621Y-98219850D01*
X134740762Y-98239606D01*
X134736027Y-98272101D01*
X134735949Y-98285697D01*
X134740034Y-98330245D01*
X134762354Y-98354296D01*
X134818009Y-98364142D01*
X134922099Y-98366075D01*
X134928861Y-98366077D01*
X135121772Y-98366077D01*
X135121772Y-98558988D01*
X134928861Y-98558988D01*
X134821116Y-98561335D01*
X134762896Y-98571641D01*
X134739496Y-98594811D01*
X134735949Y-98623292D01*
X134740019Y-98651434D01*
X134759640Y-98669906D01*
X134805927Y-98680730D01*
X134889996Y-98685927D01*
X135022965Y-98687517D01*
X135089620Y-98687596D01*
X135443291Y-98687596D01*
X135443291Y-99041267D01*
X134317975Y-99041267D01*
X134317975Y-97851647D01*
X135346836Y-97851647D01*
X135346836Y-98205317D01*
G37*
G36*
X127115949Y-94025571D02*
G01*
X126762279Y-94025571D01*
X126762279Y-94861520D01*
X126344304Y-94861520D01*
X126344304Y-94025571D01*
X125347595Y-94025571D01*
X125347595Y-94105950D01*
X125351680Y-94150498D01*
X125374000Y-94174549D01*
X125429655Y-94184395D01*
X125533745Y-94186328D01*
X125540506Y-94186330D01*
X125733418Y-94186330D01*
X125733418Y-94379241D01*
X125347595Y-94379241D01*
X125347595Y-94861520D01*
X124929620Y-94861520D01*
X124929620Y-93671900D01*
X127115949Y-93671900D01*
X127115949Y-94025571D01*
G37*
G36*
X129206767Y-93671900D02*
G01*
X129323653Y-93779018D01*
X129397342Y-93855664D01*
X129432442Y-93927183D01*
X129443393Y-94024816D01*
X129443751Y-94038853D01*
X129439610Y-94140739D01*
X129413365Y-94209594D01*
X129352395Y-94275987D01*
X129341961Y-94285406D01*
X129266830Y-94343376D01*
X129204191Y-94376358D01*
X129189240Y-94379241D01*
X129146732Y-94393308D01*
X129141519Y-94404963D01*
X129171356Y-94460836D01*
X129256932Y-94495947D01*
X129389089Y-94507849D01*
X129559494Y-94507849D01*
X129559494Y-94861520D01*
X129082649Y-94861520D01*
X128903745Y-94676647D01*
X128724840Y-94491773D01*
X128724192Y-94676647D01*
X128723544Y-94861520D01*
X127148101Y-94861520D01*
X127148101Y-93671900D01*
X128176962Y-93671900D01*
X128176962Y-94025571D01*
X127871519Y-94025571D01*
X127730018Y-94026129D01*
X127640776Y-94029916D01*
X127591748Y-94040103D01*
X127570889Y-94059859D01*
X127566153Y-94092354D01*
X127566076Y-94105950D01*
X127570161Y-94150498D01*
X127592481Y-94174549D01*
X127648136Y-94184395D01*
X127752226Y-94186328D01*
X127758987Y-94186330D01*
X127951899Y-94186330D01*
X127951899Y-94379241D01*
X127758987Y-94379241D01*
X127651242Y-94381588D01*
X127593023Y-94391895D01*
X127569623Y-94415064D01*
X127566076Y-94443545D01*
X127570146Y-94471687D01*
X127589766Y-94490159D01*
X127636053Y-94500983D01*
X127720123Y-94506180D01*
X127853091Y-94507770D01*
X127919747Y-94507849D01*
X128273418Y-94507849D01*
X128273418Y-94056042D01*
X128723544Y-94056042D01*
X128726324Y-94111895D01*
X128745154Y-94141117D01*
X128795770Y-94152335D01*
X128893905Y-94154177D01*
X128902515Y-94154178D01*
X129004177Y-94152638D01*
X129056352Y-94142844D01*
X129073857Y-94117035D01*
X129071507Y-94067452D01*
X129071313Y-94065760D01*
X129060162Y-94013802D01*
X129030733Y-93985988D01*
X128965877Y-93972917D01*
X128892342Y-93967624D01*
X128723544Y-93957906D01*
X128723544Y-94056042D01*
X128273418Y-94056042D01*
X128273418Y-93671900D01*
X129206767Y-93671900D01*
G37*
G36*
X130298987Y-98687596D02*
G01*
X130942025Y-98687596D01*
X130942025Y-97851647D01*
X131970886Y-97851647D01*
X131970886Y-98205317D01*
X131665443Y-98205317D01*
X131523942Y-98205876D01*
X131434700Y-98209663D01*
X131385672Y-98219850D01*
X131364813Y-98239606D01*
X131360077Y-98272101D01*
X131360000Y-98285697D01*
X131364085Y-98330245D01*
X131386405Y-98354296D01*
X131442060Y-98364142D01*
X131546150Y-98366075D01*
X131552911Y-98366077D01*
X131745823Y-98366077D01*
X131745823Y-98558988D01*
X131552911Y-98558988D01*
X131445167Y-98561335D01*
X131386947Y-98571641D01*
X131363547Y-98594811D01*
X131360000Y-98623292D01*
X131364070Y-98651434D01*
X131383690Y-98669906D01*
X131429977Y-98680730D01*
X131514047Y-98685927D01*
X131647015Y-98687517D01*
X131713671Y-98687596D01*
X132067342Y-98687596D01*
X132067342Y-99041267D01*
X129881013Y-99041267D01*
X129881013Y-97851647D01*
X130298987Y-97851647D01*
X130298987Y-98687596D01*
G37*
G36*
X119913924Y-96951393D02*
G01*
X119495949Y-96951393D01*
X119495949Y-96533419D01*
X119206582Y-96533419D01*
X119206582Y-96951393D01*
X118820760Y-96951393D01*
X118820760Y-96115444D01*
X118714658Y-96115444D01*
X118629780Y-96126227D01*
X118571774Y-96152257D01*
X118570847Y-96153154D01*
X118525069Y-96174772D01*
X118455553Y-96155485D01*
X118450372Y-96153154D01*
X118314428Y-96116838D01*
X118190976Y-96129677D01*
X118092400Y-96185636D01*
X118031085Y-96278680D01*
X118016962Y-96364360D01*
X118046230Y-96467275D01*
X118124175Y-96547402D01*
X118236013Y-96592312D01*
X118294589Y-96597722D01*
X118367137Y-96592449D01*
X118396892Y-96563506D01*
X118402778Y-96491213D01*
X118402785Y-96485191D01*
X118402785Y-96372659D01*
X118788608Y-96372659D01*
X118788608Y-96951393D01*
X118426899Y-96950687D01*
X118247198Y-96947677D01*
X118116135Y-96938190D01*
X118018209Y-96920319D01*
X117937916Y-96892155D01*
X117932850Y-96889883D01*
X117780725Y-96788269D01*
X117672325Y-96648588D01*
X117611727Y-96483399D01*
X117603008Y-96305260D01*
X117650246Y-96126731D01*
X117671151Y-96083744D01*
X117749502Y-95970889D01*
X117857376Y-95884921D01*
X117914707Y-95852621D01*
X117977153Y-95821252D01*
X118033893Y-95798482D01*
X118096556Y-95782902D01*
X118176769Y-95773104D01*
X118286162Y-95767678D01*
X118436362Y-95765216D01*
X118638997Y-95764309D01*
X118643809Y-95764297D01*
X119206582Y-95762864D01*
X119206582Y-96179748D01*
X119495949Y-96179748D01*
X119495949Y-95761773D01*
X119913924Y-95761773D01*
X119913924Y-96951393D01*
G37*
G36*
X128632768Y-95781213D02*
G01*
X128796974Y-95834698D01*
X128909154Y-95922129D01*
X128967743Y-96042263D01*
X128971175Y-96193854D01*
X128969964Y-96201666D01*
X128923206Y-96321722D01*
X128829113Y-96444375D01*
X128701799Y-96553270D01*
X128627089Y-96599061D01*
X128514557Y-96659184D01*
X128747658Y-96660605D01*
X128980760Y-96662026D01*
X128980760Y-96951393D01*
X128048354Y-96951393D01*
X128048354Y-96781869D01*
X128051323Y-96681146D01*
X128067932Y-96621965D01*
X128109736Y-96581598D01*
X128166863Y-96548768D01*
X128271477Y-96487307D01*
X128383138Y-96414154D01*
X128408002Y-96396571D01*
X128499121Y-96306078D01*
X128532405Y-96217464D01*
X128513840Y-96140465D01*
X128449413Y-96084819D01*
X128345110Y-96060263D01*
X128210646Y-96075574D01*
X128127046Y-96091876D01*
X128073052Y-96093301D01*
X128065978Y-96090198D01*
X128055043Y-96049818D01*
X128048866Y-95969898D01*
X128048354Y-95937000D01*
X128053073Y-95861912D01*
X128074432Y-95812067D01*
X128123234Y-95782377D01*
X128210285Y-95767756D01*
X128346387Y-95763117D01*
X128418101Y-95762918D01*
X128632768Y-95781213D01*
G37*
G36*
X120660079Y-98033197D02*
G01*
X120772780Y-98214748D01*
X120881370Y-98033197D01*
X120989960Y-97851647D01*
X121493507Y-97851647D01*
X120974937Y-98604839D01*
X120974937Y-99041267D01*
X120556962Y-99041267D01*
X120556962Y-98585433D01*
X120315823Y-98237469D01*
X120226308Y-98106940D01*
X120151840Y-97995761D01*
X120099259Y-97914339D01*
X120075405Y-97873083D01*
X120074684Y-97870576D01*
X120104185Y-97861446D01*
X120182107Y-97854732D01*
X120292578Y-97851704D01*
X120311031Y-97851647D01*
X120547377Y-97851647D01*
X120660079Y-98033197D01*
G37*
G36*
X116666582Y-97851647D02*
G01*
X116666582Y-98205317D01*
X116361139Y-98205317D01*
X116219638Y-98205876D01*
X116130396Y-98209663D01*
X116081368Y-98219850D01*
X116060509Y-98239606D01*
X116055774Y-98272101D01*
X116055696Y-98285697D01*
X116059781Y-98330245D01*
X116082101Y-98354296D01*
X116137756Y-98364142D01*
X116241846Y-98366075D01*
X116248608Y-98366077D01*
X116441519Y-98366077D01*
X116441519Y-98558988D01*
X116248608Y-98558988D01*
X116140863Y-98561335D01*
X116082643Y-98571641D01*
X116059243Y-98594811D01*
X116055696Y-98623292D01*
X116059766Y-98651434D01*
X116079387Y-98669906D01*
X116125673Y-98680730D01*
X116209743Y-98685927D01*
X116342711Y-98687517D01*
X116409367Y-98687596D01*
X116763038Y-98687596D01*
X116763038Y-97847120D01*
X117255981Y-97857421D01*
X117444217Y-97861722D01*
X117580027Y-97866823D01*
X117675278Y-97874712D01*
X117741838Y-97887378D01*
X117791572Y-97906811D01*
X117836350Y-97934999D01*
X117870278Y-97960378D01*
X117991303Y-98085515D01*
X118060297Y-98240194D01*
X118081266Y-98424550D01*
X118058953Y-98631549D01*
X117993969Y-98801387D01*
X117940167Y-98876613D01*
X117898655Y-98920176D01*
X117854759Y-98955309D01*
X117801409Y-98982914D01*
X117731537Y-99003895D01*
X117638075Y-99019156D01*
X117513955Y-99029598D01*
X117352108Y-99036126D01*
X117145466Y-99039643D01*
X116886961Y-99041051D01*
X116651539Y-99041267D01*
X115637722Y-99041267D01*
X115637722Y-98751900D01*
X117181013Y-98751900D01*
X117291451Y-98751900D01*
X117394569Y-98742655D01*
X117482637Y-98721200D01*
X117557893Y-98660993D01*
X117605426Y-98559343D01*
X117619721Y-98435152D01*
X117599690Y-98319978D01*
X117545384Y-98220454D01*
X117456412Y-98162989D01*
X117322337Y-98141523D01*
X117291451Y-98141014D01*
X117181013Y-98141014D01*
X117181013Y-98751900D01*
X115637722Y-98751900D01*
X115637722Y-97851647D01*
X116666582Y-97851647D01*
G37*
G36*
X121875190Y-98494684D02*
G01*
X121489367Y-98494684D01*
X121489367Y-98173165D01*
X121875190Y-98173165D01*
X121875190Y-98494684D01*
G37*
G36*
X113843876Y-93853450D02*
G01*
X113956577Y-94035001D01*
X114065168Y-93853450D01*
X114173758Y-93671900D01*
X114677305Y-93671900D01*
X114418020Y-94048496D01*
X114158734Y-94425093D01*
X114158734Y-94861520D01*
X113740760Y-94861520D01*
X113739546Y-94628419D01*
X113737814Y-94522330D01*
X113729457Y-94443579D01*
X113707764Y-94374594D01*
X113666029Y-94297802D01*
X113597542Y-94195631D01*
X113546634Y-94123095D01*
X113460894Y-94003490D01*
X113404713Y-93931935D01*
X113372249Y-93902798D01*
X113357662Y-93910445D01*
X113354937Y-93938222D01*
X113351158Y-93988188D01*
X113329291Y-94014199D01*
X113273537Y-94024058D01*
X113178101Y-94025571D01*
X113001266Y-94025571D01*
X113001266Y-94861520D01*
X112583291Y-94861520D01*
X112583291Y-94025571D01*
X112197468Y-94025571D01*
X112197468Y-94861520D01*
X111811646Y-94861520D01*
X111811646Y-93671900D01*
X113731175Y-93671900D01*
X113843876Y-93853450D01*
G37*
G36*
X115894937Y-96951393D02*
G01*
X115509114Y-96951393D01*
X115509114Y-96629874D01*
X115894937Y-96629874D01*
X115894937Y-96951393D01*
G37*
G36*
X114415949Y-96951393D02*
G01*
X114030127Y-96951393D01*
X114030127Y-96629874D01*
X114415949Y-96629874D01*
X114415949Y-96951393D01*
G37*
G36*
X111043077Y-93671900D02*
G01*
X111257062Y-93674606D01*
X111417059Y-93684817D01*
X111533234Y-93705676D01*
X111615755Y-93740321D01*
X111674788Y-93791895D01*
X111720501Y-93863538D01*
X111730746Y-93884333D01*
X111779590Y-94040027D01*
X111767486Y-94179129D01*
X111693283Y-94308699D01*
X111654669Y-94350872D01*
X111588688Y-94414142D01*
X111534301Y-94451334D01*
X111470993Y-94469375D01*
X111378248Y-94475191D01*
X111284922Y-94475697D01*
X111040000Y-94475697D01*
X111040000Y-94861520D01*
X110589873Y-94861520D01*
X110589873Y-94189691D01*
X111040000Y-94189691D01*
X111208798Y-94179972D01*
X111308666Y-94170944D01*
X111361229Y-94153282D01*
X111383485Y-94118805D01*
X111388446Y-94093510D01*
X111381555Y-94022853D01*
X111331193Y-93981037D01*
X111229595Y-93963232D01*
X111176646Y-93961759D01*
X111090987Y-93964247D01*
X111051624Y-93982528D01*
X111040553Y-94031584D01*
X111040000Y-94075479D01*
X111040000Y-94189691D01*
X110589873Y-94189691D01*
X110589873Y-93671900D01*
X111043077Y-93671900D01*
G37*
G36*
X116105822Y-94025571D02*
G01*
X116005778Y-94030230D01*
X115934852Y-94042214D01*
X115913901Y-94053049D01*
X115923534Y-94090809D01*
X115969284Y-94147791D01*
X115979367Y-94157543D01*
X116093588Y-94288999D01*
X116172151Y-94430553D01*
X116207106Y-94565599D01*
X116205179Y-94629184D01*
X116188760Y-94705143D01*
X116161900Y-94762414D01*
X116116245Y-94803625D01*
X116043441Y-94831406D01*
X115935130Y-94848385D01*
X115782960Y-94857190D01*
X115578573Y-94860449D01*
X115468924Y-94860805D01*
X114898228Y-94861520D01*
X114898228Y-94507849D01*
X115266077Y-94507849D01*
X115441597Y-94504759D01*
X115568893Y-94495870D01*
X115641610Y-94481755D01*
X115655591Y-94472795D01*
X115647707Y-94431590D01*
X115603781Y-94364714D01*
X115564834Y-94320073D01*
X115464663Y-94204246D01*
X115407431Y-94104608D01*
X115383273Y-94000649D01*
X115380506Y-93936833D01*
X115399345Y-93820668D01*
X115454920Y-93741808D01*
X115479692Y-93720537D01*
X115508481Y-93704085D01*
X115549276Y-93691833D01*
X115610067Y-93683163D01*
X115698842Y-93677457D01*
X115823591Y-93674097D01*
X115992304Y-93672463D01*
X116212968Y-93671939D01*
X116358251Y-93671900D01*
X116633120Y-93672487D01*
X116851215Y-93675251D01*
X117020063Y-93681695D01*
X117147190Y-93693323D01*
X117240124Y-93711639D01*
X117306390Y-93738146D01*
X117353516Y-93774347D01*
X117389027Y-93821747D01*
X117420451Y-93881849D01*
X117421632Y-93884333D01*
X117470476Y-94040027D01*
X117458372Y-94179129D01*
X117384169Y-94308699D01*
X117345555Y-94350872D01*
X117279574Y-94414142D01*
X117225187Y-94451334D01*
X117161879Y-94469375D01*
X117069134Y-94475191D01*
X116975808Y-94475697D01*
X116730886Y-94475697D01*
X116730886Y-94861520D01*
X116280760Y-94861520D01*
X116280760Y-94189691D01*
X116730886Y-94189691D01*
X116899684Y-94179972D01*
X116999552Y-94170944D01*
X117052115Y-94153282D01*
X117074371Y-94118805D01*
X117079332Y-94093510D01*
X117072441Y-94022853D01*
X117022079Y-93981037D01*
X116920481Y-93963232D01*
X116867532Y-93961759D01*
X116781873Y-93964247D01*
X116742510Y-93982528D01*
X116731439Y-94031584D01*
X116730886Y-94075479D01*
X116730886Y-94189691D01*
X116280760Y-94189691D01*
X116280760Y-94025571D01*
X116105822Y-94025571D01*
G37*
G36*
X113613096Y-95761773D02*
G01*
X113729983Y-95868891D01*
X113803671Y-95945538D01*
X113838771Y-96017056D01*
X113849722Y-96114690D01*
X113850080Y-96128727D01*
X113845939Y-96230613D01*
X113819694Y-96299468D01*
X113758724Y-96365861D01*
X113748290Y-96375279D01*
X113673159Y-96433250D01*
X113610520Y-96466231D01*
X113595569Y-96469115D01*
X113553061Y-96483181D01*
X113547848Y-96494836D01*
X113577685Y-96550709D01*
X113663262Y-96585820D01*
X113795418Y-96597722D01*
X113965823Y-96597722D01*
X113965823Y-96951393D01*
X113488979Y-96951393D01*
X113131169Y-96581647D01*
X113129873Y-96951393D01*
X111554430Y-96951393D01*
X111552574Y-96445001D01*
X111550717Y-95938609D01*
X111371892Y-96445001D01*
X111193068Y-96951393D01*
X110541182Y-96951393D01*
X110348502Y-96397598D01*
X110286282Y-96218145D01*
X110231231Y-96058187D01*
X110186932Y-95928236D01*
X110156970Y-95838799D01*
X110145146Y-95801327D01*
X110153996Y-95779206D01*
X110201354Y-95767949D01*
X110297287Y-95766081D01*
X110370203Y-95768349D01*
X110605938Y-95777849D01*
X110726280Y-96192911D01*
X110771053Y-96345903D01*
X110809548Y-96474748D01*
X110838240Y-96567851D01*
X110853605Y-96613617D01*
X110854947Y-96616298D01*
X110866335Y-96590332D01*
X110891913Y-96513317D01*
X110928274Y-96396056D01*
X110972011Y-96249349D01*
X110988386Y-96193198D01*
X111113501Y-95761773D01*
X112583291Y-95761773D01*
X112583291Y-96115444D01*
X112277848Y-96115444D01*
X112136347Y-96116002D01*
X112047105Y-96119790D01*
X111998077Y-96129977D01*
X111977218Y-96149733D01*
X111972482Y-96182227D01*
X111972405Y-96195824D01*
X111976490Y-96240371D01*
X111998810Y-96264422D01*
X112054465Y-96274269D01*
X112158555Y-96276202D01*
X112165317Y-96276203D01*
X112358228Y-96276203D01*
X112358228Y-96469115D01*
X112165317Y-96469115D01*
X112057572Y-96471461D01*
X111999352Y-96481768D01*
X111975952Y-96504937D01*
X111972405Y-96533419D01*
X111976475Y-96561561D01*
X111996095Y-96580033D01*
X112042382Y-96590857D01*
X112126452Y-96596053D01*
X112259420Y-96597643D01*
X112326076Y-96597722D01*
X112679747Y-96597722D01*
X112679747Y-96145916D01*
X113129873Y-96145916D01*
X113132653Y-96201769D01*
X113151483Y-96230990D01*
X113202099Y-96242208D01*
X113300234Y-96244051D01*
X113308845Y-96244052D01*
X113410506Y-96242511D01*
X113462682Y-96232717D01*
X113480186Y-96206909D01*
X113477836Y-96157325D01*
X113477642Y-96155634D01*
X113466491Y-96103675D01*
X113437062Y-96075862D01*
X113372207Y-96062790D01*
X113298671Y-96057498D01*
X113129873Y-96047780D01*
X113129873Y-96145916D01*
X112679747Y-96145916D01*
X112679747Y-95761773D01*
X113613096Y-95761773D01*
G37*
G36*
X115316203Y-96951393D02*
G01*
X114868117Y-96951393D01*
X114859058Y-96581182D01*
X114850000Y-96210971D01*
X114726930Y-96294673D01*
X114652612Y-96341945D01*
X114604086Y-96366645D01*
X114595058Y-96367479D01*
X114579424Y-96332620D01*
X114553739Y-96263332D01*
X114552619Y-96260128D01*
X114521433Y-96173472D01*
X114497089Y-96109780D01*
X114499027Y-96072637D01*
X114537925Y-96025025D01*
X114621376Y-95959211D01*
X114694406Y-95908830D01*
X114809156Y-95834647D01*
X114894320Y-95790676D01*
X114972180Y-95769123D01*
X115065023Y-95762196D01*
X115114910Y-95761773D01*
X115316203Y-95761773D01*
X115316203Y-96951393D01*
G37*
G36*
X134355806Y-95781213D02*
G01*
X134520012Y-95834698D01*
X134632192Y-95922129D01*
X134690781Y-96042263D01*
X134694213Y-96193854D01*
X134693002Y-96201666D01*
X134646244Y-96321722D01*
X134552151Y-96444375D01*
X134424837Y-96553270D01*
X134350127Y-96599061D01*
X134237595Y-96659184D01*
X134470696Y-96660605D01*
X134703798Y-96662026D01*
X134703798Y-96951393D01*
X133771392Y-96951393D01*
X133771392Y-96781869D01*
X133774361Y-96681146D01*
X133790970Y-96621965D01*
X133832774Y-96581598D01*
X133889901Y-96548768D01*
X133994515Y-96487307D01*
X134106176Y-96414154D01*
X134131040Y-96396571D01*
X134222159Y-96306078D01*
X134255443Y-96217464D01*
X134236878Y-96140465D01*
X134172451Y-96084819D01*
X134068148Y-96060263D01*
X133933684Y-96075574D01*
X133850084Y-96091876D01*
X133796090Y-96093301D01*
X133789016Y-96090198D01*
X133778081Y-96049818D01*
X133771904Y-95969898D01*
X133771392Y-95937000D01*
X133776111Y-95861912D01*
X133797470Y-95812067D01*
X133846272Y-95782377D01*
X133933323Y-95767756D01*
X134069425Y-95763117D01*
X134141139Y-95762918D01*
X134355806Y-95781213D01*
G37*
G36*
X122849839Y-97864212D02*
G01*
X122945273Y-97894894D01*
X123051447Y-97948481D01*
X123097642Y-98002195D01*
X123087160Y-98067596D01*
X123023300Y-98156243D01*
X123020745Y-98159209D01*
X122954313Y-98231648D01*
X122908361Y-98262269D01*
X122863415Y-98259640D01*
X122826580Y-98244645D01*
X122689258Y-98207388D01*
X122565033Y-98219184D01*
X122465993Y-98274233D01*
X122404227Y-98366738D01*
X122389620Y-98454233D01*
X122418888Y-98557149D01*
X122496834Y-98637275D01*
X122608672Y-98682185D01*
X122667247Y-98687596D01*
X122739795Y-98682322D01*
X122769550Y-98653379D01*
X122775436Y-98581086D01*
X122775443Y-98575064D01*
X122775443Y-98462533D01*
X123161266Y-98462533D01*
X123161266Y-99041267D01*
X122799557Y-99040561D01*
X122619856Y-99037550D01*
X122488793Y-99028063D01*
X122390867Y-99010192D01*
X122310574Y-98982029D01*
X122305508Y-98979756D01*
X122153383Y-98878143D01*
X122044984Y-98738462D01*
X121984386Y-98573272D01*
X121975667Y-98395134D01*
X122022904Y-98216605D01*
X122043809Y-98173617D01*
X122148892Y-98041243D01*
X122297479Y-97939341D01*
X122474127Y-97872686D01*
X122663395Y-97846051D01*
X122849839Y-97864212D01*
G37*
G36*
X122389620Y-96115444D02*
G01*
X122389620Y-95757876D01*
X122995077Y-95767862D01*
X123600535Y-95777849D01*
X123721907Y-95870505D01*
X123842935Y-95995628D01*
X123911935Y-96150290D01*
X123932911Y-96334677D01*
X123910599Y-96541675D01*
X123845615Y-96711514D01*
X123791812Y-96786740D01*
X123727507Y-96848078D01*
X123652598Y-96892511D01*
X123556032Y-96922547D01*
X123426756Y-96940692D01*
X123253718Y-96949452D01*
X123065843Y-96951393D01*
X122614684Y-96951393D01*
X122614684Y-96662026D01*
X123032658Y-96662026D01*
X123143097Y-96662026D01*
X123246215Y-96652782D01*
X123334283Y-96631326D01*
X123409539Y-96571120D01*
X123457072Y-96469469D01*
X123471366Y-96345279D01*
X123451336Y-96230104D01*
X123397029Y-96130580D01*
X123308057Y-96073115D01*
X123173983Y-96051649D01*
X123143097Y-96051140D01*
X123032658Y-96051140D01*
X123032658Y-96662026D01*
X122614684Y-96662026D01*
X122614684Y-96115444D01*
X122389620Y-96115444D01*
G37*
G36*
X123836456Y-94507849D02*
G01*
X124479494Y-94507849D01*
X124479494Y-93671900D01*
X124865317Y-93671900D01*
X124865317Y-94861520D01*
X123418481Y-94861520D01*
X123418481Y-94025571D01*
X123193418Y-94025571D01*
X123193418Y-93671900D01*
X123836456Y-93671900D01*
X123836456Y-94507849D01*
G37*
G36*
X127341013Y-96115444D02*
G01*
X127035570Y-96115444D01*
X126894069Y-96116002D01*
X126804827Y-96119790D01*
X126755799Y-96129977D01*
X126734939Y-96149733D01*
X126730204Y-96182227D01*
X126730127Y-96195824D01*
X126734211Y-96240371D01*
X126756531Y-96264422D01*
X126812187Y-96274269D01*
X126916276Y-96276202D01*
X126923038Y-96276203D01*
X127115949Y-96276203D01*
X127115949Y-96469115D01*
X126923038Y-96469115D01*
X126815293Y-96471461D01*
X126757073Y-96481768D01*
X126733673Y-96504937D01*
X126730127Y-96533419D01*
X126734197Y-96561561D01*
X126753817Y-96580033D01*
X126800104Y-96590857D01*
X126884173Y-96596053D01*
X127017142Y-96597643D01*
X127083798Y-96597722D01*
X127437468Y-96597722D01*
X127437468Y-96951393D01*
X126312152Y-96951393D01*
X126312152Y-95761773D01*
X127341013Y-95761773D01*
X127341013Y-96115444D01*
G37*
%TO.C,J4*%
X82640000Y-81670000D02*
X82640000Y-91950000D01*
X93050000Y-83020000D02*
X93050000Y-85520000D01*
X87024000Y-88170000D02*
X86931000Y-88076000D01*
X93050000Y-90600000D02*
X92550000Y-90600000D01*
X93050000Y-88100000D02*
X92550000Y-88100000D01*
X83240000Y-81430000D02*
X82400000Y-81430000D01*
X85500000Y-81670000D02*
X85500000Y-91950000D01*
X93360000Y-91950000D02*
X82640000Y-91950000D01*
X92550000Y-88100000D02*
X92550000Y-90600000D01*
X89275000Y-90420000D02*
X89216000Y-90361000D01*
X93360000Y-81670000D02*
X93360000Y-91950000D01*
X83300000Y-81670000D02*
X83300000Y-91950000D01*
X92550000Y-83020000D02*
X92550000Y-85520000D01*
X93050000Y-85520000D02*
X92550000Y-85520000D01*
X93050000Y-88100000D02*
X93050000Y-90600000D01*
X89069000Y-90625000D02*
X88976000Y-90531000D01*
X91300000Y-81670000D02*
X91300000Y-91950000D01*
X86784000Y-88340000D02*
X86726000Y-88281000D01*
X93360000Y-81670000D02*
X82640000Y-81670000D01*
X93050000Y-83020000D02*
X92550000Y-83020000D01*
X82400000Y-81430000D02*
X82400000Y-82030000D01*
X86516000Y-83481000D02*
G75*
G03*
X86319550Y-84299383I1483995J-788998D01*
G01*
X87211000Y-85754000D02*
G75*
G03*
X88789089Y-85753953I789000J1483995D01*
G01*
X86320000Y-84270000D02*
G75*
G03*
X86516648Y-85058712I1679991J-2D01*
G01*
X88789000Y-82786000D02*
G75*
G03*
X87210911Y-82786047I-789000J-1483995D01*
G01*
X89484000Y-85059000D02*
G75*
G03*
X89483953Y-83480911I-1483995J789000D01*
G01*
X89680000Y-89350000D02*
G75*
G03*
X89680000Y-89350000I-1680000J0D01*
G01*
%TO.C,Lifter1*%
X155082929Y-65700000D02*
X155480000Y-65700000D01*
X155480000Y-69890000D02*
X158140000Y-69890000D01*
X164140000Y-65700000D02*
X164140000Y-66460000D01*
X158140000Y-60620000D02*
X164140000Y-60620000D01*
X155082929Y-69000000D02*
X155480000Y-69000000D01*
X164140000Y-68240000D02*
X164140000Y-69000000D01*
X158140000Y-68240000D02*
X164140000Y-68240000D01*
X164140000Y-63920000D02*
X158140000Y-63920000D01*
X155480000Y-64810000D02*
X158140000Y-64810000D01*
X158140000Y-58740000D02*
X164140000Y-58740000D01*
X158140000Y-58380000D02*
X164140000Y-58380000D01*
X158140000Y-58080000D02*
X164140000Y-58080000D01*
X155480000Y-59730000D02*
X158140000Y-59730000D01*
X158140000Y-58140000D02*
X164140000Y-58140000D01*
X152770000Y-58460000D02*
X152770000Y-57190000D01*
X155082929Y-60620000D02*
X155480000Y-60620000D01*
X155082929Y-63920000D02*
X155480000Y-63920000D01*
X158140000Y-58260000D02*
X164140000Y-58260000D01*
X164140000Y-70780000D02*
X164140000Y-71540000D01*
X164140000Y-61380000D02*
X158140000Y-61380000D01*
X158140000Y-58500000D02*
X164140000Y-58500000D01*
X158140000Y-58620000D02*
X164140000Y-58620000D01*
X155480000Y-67350000D02*
X158140000Y-67350000D01*
X164140000Y-63160000D02*
X164140000Y-63920000D01*
X155150000Y-58080000D02*
X155480000Y-58080000D01*
X155150000Y-58840000D02*
X155480000Y-58840000D01*
X158140000Y-72490000D02*
X158140000Y-57130000D01*
X155082929Y-70780000D02*
X155480000Y-70780000D01*
X158140000Y-70780000D02*
X164140000Y-70780000D01*
X164140000Y-69000000D02*
X158140000Y-69000000D01*
X152770000Y-57190000D02*
X154040000Y-57190000D01*
X164140000Y-60620000D02*
X164140000Y-61380000D01*
X164140000Y-58840000D02*
X158140000Y-58840000D01*
X155082929Y-66460000D02*
X155480000Y-66460000D01*
X164140000Y-58080000D02*
X164140000Y-58840000D01*
X155082929Y-63160000D02*
X155480000Y-63160000D01*
X158140000Y-63160000D02*
X164140000Y-63160000D01*
X158140000Y-57130000D02*
X155480000Y-57130000D01*
X155480000Y-62270000D02*
X158140000Y-62270000D01*
X155082929Y-71540000D02*
X155480000Y-71540000D01*
X155082929Y-68240000D02*
X155480000Y-68240000D01*
X155480000Y-72490000D02*
X158140000Y-72490000D01*
X158140000Y-65700000D02*
X164140000Y-65700000D01*
X164140000Y-71540000D02*
X158140000Y-71540000D01*
X155480000Y-57130000D02*
X155480000Y-72490000D01*
X164140000Y-66460000D02*
X158140000Y-66460000D01*
X155082929Y-61380000D02*
X155480000Y-61380000D01*
%TO.C,J6*%
X151300000Y-45305000D02*
X148700000Y-45305000D01*
X150030000Y-47905000D02*
X148700000Y-47905000D01*
X151300000Y-47905000D02*
X158980000Y-47905000D01*
X151300000Y-47905000D02*
X151300000Y-45305000D01*
X148700000Y-47905000D02*
X148700000Y-46575000D01*
X158980000Y-47905000D02*
X158980000Y-42705000D01*
X148700000Y-42705000D02*
X158980000Y-42705000D01*
X148700000Y-45305000D02*
X148700000Y-42705000D01*
%TO.C,J3*%
X89069000Y-78815000D02*
X88976000Y-78721000D01*
X86784000Y-76530000D02*
X86726000Y-76471000D01*
X93050000Y-76290000D02*
X93050000Y-78790000D01*
X83240000Y-69620000D02*
X82400000Y-69620000D01*
X92550000Y-71210000D02*
X92550000Y-73710000D01*
X83300000Y-69860000D02*
X83300000Y-80140000D01*
X82400000Y-69620000D02*
X82400000Y-70220000D01*
X92550000Y-76290000D02*
X92550000Y-78790000D01*
X93050000Y-73710000D02*
X92550000Y-73710000D01*
X85500000Y-69860000D02*
X85500000Y-80140000D01*
X82640000Y-69860000D02*
X82640000Y-80140000D01*
X87024000Y-76360000D02*
X86931000Y-76266000D01*
X93050000Y-76290000D02*
X92550000Y-76290000D01*
X93050000Y-71210000D02*
X92550000Y-71210000D01*
X89275000Y-78610000D02*
X89216000Y-78551000D01*
X93050000Y-71210000D02*
X93050000Y-73710000D01*
X93360000Y-80140000D02*
X82640000Y-80140000D01*
X93050000Y-78790000D02*
X92550000Y-78790000D01*
X91300000Y-69860000D02*
X91300000Y-80140000D01*
X93360000Y-69860000D02*
X93360000Y-80140000D01*
X93360000Y-69860000D02*
X82640000Y-69860000D01*
X86516000Y-71671000D02*
G75*
G03*
X86319550Y-72489383I1483995J-788998D01*
G01*
X87211000Y-73944000D02*
G75*
G03*
X88789089Y-73943953I789000J1483995D01*
G01*
X88789000Y-70976000D02*
G75*
G03*
X87210911Y-70976047I-789000J-1483995D01*
G01*
X86320000Y-72460000D02*
G75*
G03*
X86516648Y-73248712I1679991J-2D01*
G01*
X89484000Y-73249000D02*
G75*
G03*
X89483953Y-71670911I-1483995J789000D01*
G01*
X89680000Y-77540000D02*
G75*
G03*
X89680000Y-77540000I-1680000J0D01*
G01*
D16*
%TO.C,J5*%
X141433250Y-50273500D02*
X145573250Y-50273500D01*
X125253250Y-40013500D02*
X145573250Y-40013500D01*
X129393250Y-50273500D02*
X125253250Y-50273500D01*
X145573250Y-40013500D02*
X145573250Y-50273500D01*
X125253250Y-50273500D02*
X125253250Y-40013500D01*
D11*
X124703250Y-53563500D02*
G75*
G03*
X124703250Y-53563500I-100000J0D01*
G01*
D17*
%TO.C,U$1*%
X122640000Y-47096500D02*
X122640000Y-92816500D01*
X94700000Y-47096500D02*
X94700000Y-92816500D01*
X122640000Y-47096500D02*
X94700000Y-47096500D01*
X122640000Y-92816500D02*
X94700000Y-92816500D01*
%TD*%
M02*
